<?xml version="1.0" encoding="utf-8"?>
<!-- Generator: Adobe Illustrator 24.3.0, SVG Export Plug-In . SVG Version: 6.00 Build 0)  -->
<svg version="1.1" id="圖層_7" xmlns="http://www.w3.org/2000/svg" xmlns:xlink="http://www.w3.org/1999/xlink" x="0px" y="0px"
	 viewBox="0 0 428.5 435.8" style="enable-background:new 0 0 428.5 435.8;" xml:space="preserve">
<style type="text/css">
	.st0{fill:url(#SVGID_1_);}
	.st1{fill:#FFFFFF;}
	.st2{fill:url(#SVGID_2_);}
	.st3{fill:#FBE7F0;}
	.st4{fill:url(#SVGID_3_);}
	.st5{fill:url(#SVGID_4_);}
	.st6{fill:url(#SVGID_5_);}
	.st7{fill:#004687;}
	.st8{fill:#E04041;}
</style>
<linearGradient id="SVGID_1_" gradientUnits="userSpaceOnUse" x1="91.3199" y1="146.541" x2="367.2845" y2="317.5056" gradientTransform="matrix(1 0 0 -1 0 438)">
	<stop  offset="0.15" style="stop-color:#E8473C"/>
	<stop  offset="0.41" style="stop-color:#E95B54"/>
	<stop  offset="0.59" style="stop-color:#FFF5DB"/>
	<stop  offset="0.7" style="stop-color:#EB6F6D"/>
	<stop  offset="0.88" style="stop-color:#F6C3BF"/>
	<stop  offset="0.98" style="stop-color:#EB6F6D"/>
</linearGradient>
<ellipse class="st0" cx="216" cy="214.2" rx="208" ry="207.5"/>
<ellipse class="st1" cx="216" cy="220.3" rx="208" ry="207.5"/>
<linearGradient id="SVGID_2_" gradientUnits="userSpaceOnUse" x1="216" y1="394.1937" x2="216" y2="-1.5946" gradientTransform="matrix(1 0 0 -1 0 438)">
	<stop  offset="0.15" style="stop-color:#E8473C"/>
	<stop  offset="0.59" style="stop-color:#D5050F"/>
	<stop  offset="0.98" style="stop-color:#EB6F6D"/>
</linearGradient>
<ellipse class="st2" cx="216" cy="222.3" rx="208" ry="207.5"/>
<path class="st3" d="M219,407.1c97.9,0,177.2-79.2,177.2-176.8c0-19.9-3.3-39.7-10-58.5c5.3,17,8,34.7,7.9,52.5
	c0,97.6-79.4,176.8-177.2,176.8c-75.2,0-142.2-47.4-167.3-118.3C72.9,356.8,141.5,407.1,219,407.1z"/>
<linearGradient id="SVGID_3_" gradientUnits="userSpaceOnUse" x1="70.4734" y1="135.3023" x2="417.0139" y2="135.3023" gradientTransform="matrix(1 0 0 -1 -20.72 423.78)">
	<stop  offset="0.15" style="stop-color:#E8473C"/>
	<stop  offset="0.41" style="stop-color:#E95B54"/>
	<stop  offset="0.59" style="stop-color:#FFF5DB"/>
	<stop  offset="0.7" style="stop-color:#EB6F6D"/>
	<stop  offset="0.88" style="stop-color:#F6C3BF"/>
	<stop  offset="0.98" style="stop-color:#EB6F6D"/>
</linearGradient>
<path class="st4" d="M219,406.1c97.9,0,177.2-79.2,177.2-176.8c0-19.9-3.3-39.7-10-58.5c5.3,17,7.9,34.6,7.9,52.4
	c0,97.6-79.4,176.8-177.2,176.8c-75.2,0.1-142.2-47.3-167.3-118.2C72.9,355.8,141.5,406.2,219,406.1z"/>
<linearGradient id="SVGID_4_" gradientUnits="userSpaceOnUse" x1="237.7587" y1="4.3971" x2="237.7587" y2="384.0316" gradientTransform="matrix(1 0 0 -1 -20.72 423.78)">
	<stop  offset="0.15" style="stop-color:#FFFFFF"/>
	<stop  offset="0.59" style="stop-color:#DEDEDE"/>
	<stop  offset="0.98" style="stop-color:#F7F7F7"/>
</linearGradient>
<path class="st5" d="M394.3,223.3c0,97.6-79.4,176.8-177.2,176.8S39.8,320.9,39.8,223.3S119.2,46.5,217,46.5
	S394.3,125.6,394.3,223.3z"/>
<path class="st1" d="M338.5,94.5c31.9,32.9,49.8,76.9,49.7,122.8c0,97.6-79.4,176.8-177.2,176.8c-46.1,0.1-90.4-17.9-123.5-50
	c33.4,34.6,79.5,54.1,127.6,54c97.9,0,177.2-79.2,177.2-176.8C392.3,173.5,372.9,127.7,338.5,94.5z"/>
<linearGradient id="SVGID_5_" gradientUnits="userSpaceOnUse" x1="120.7477" y1="71.2113" x2="488.2473" y2="262.3586" gradientTransform="matrix(1 0 0 -1 -20.72 423.78)">
	<stop  offset="0.15" style="stop-color:#D4D4D5"/>
	<stop  offset="0.21" style="stop-color:#C0C1C1"/>
	<stop  offset="0.34" style="stop-color:#F09270"/>
	<stop  offset="0.46" style="stop-color:#B5B5B6"/>
	<stop  offset="0.51" style="stop-color:#A0A1A1"/>
	<stop  offset="0.56" style="stop-color:#A5A5A6"/>
	<stop  offset="0.59" style="stop-color:#E8E9E9"/>
	<stop  offset="0.64" style="stop-color:#ABABAC"/>
	<stop  offset="0.75" style="stop-color:#B4B4B5"/>
	<stop  offset="0.8" style="stop-color:#E1E2E2"/>
	<stop  offset="0.84" style="stop-color:#C0C1C1"/>
	<stop  offset="0.98" style="stop-color:#D8D8D9"/>
</linearGradient>
<path class="st6" d="M340.5,96.5c31.9,32.9,49.8,76.9,49.7,122.8c0,97.6-79.4,176.8-177.2,176.8c-46.1,0.1-90.4-17.9-123.5-50
	c33.4,34.6,79.4,54.1,127.5,54c97.9,0,177.2-79.2,177.2-176.8C394.3,175.5,374.9,129.7,340.5,96.5z"/>
<path class="st1" d="M41.8,231.4c0-97.7,79.4-176.8,177.2-176.8c66.4,0,127.3,37.1,157.7,96.1C347.2,89.4,285.1,50.5,217,50.5
	c-97.9,0-177.2,79.2-177.2,176.8c0,29.1,7,54.5,19.5,78.7C48.1,282.8,41.8,258.8,41.8,231.4z"/>
<path class="st7" d="M248.8,53.4v17.1l-60.6,40.4h60.6v51.7H188l60.8,40.5V223h-29.9l-73.6-49v49H93.6v-49.1l-47.5,31.7
	c-0.6,5.8-0.9,11.6-0.9,17.4c0,95.2,77.2,172.4,172.5,172.4c95.2,0,172.4-77.2,172.4-172.4C390.1,138.4,329.2,68,248.8,53.4z
	 M137.2,347.2l-17.7-18.6l-17.7,18.6l3.5-25.5l-25.6-2.2l22.1-13.1l-14.2-21.4l24.1,9.1l7.9-24.5l7.9,24.5l24-9.1l-14.2,21.4
	l22.1,13.1l-25.6,2.2L137.2,347.2z M322.2,220.1l-8.7-9.1l-8.7,9.1l1.8-12.5l-12.6-1.1l10.8-6.4l-6.9-10.5l11.7,4.5l3.9-12l3.9,12
	l11.7-4.5l-6.9,10.5l10.8,6.4l-12.6,1.1L322.2,220.1z M217.7,50.5c-25,0-49.7,5.4-72.4,15.9v33.3l73.8-49.1
	C218.6,50.6,218.1,50.5,217.7,50.5z"/>
<polygon class="st1" points="172,121.7 248.8,121.7 248.8,110.9 188.2,110.9 "/>
<polygon class="st1" points="134.6,166.8 134.6,223 145.3,223 145.3,173.9 "/>
<polygon class="st1" points="188,162.6 248.8,162.6 248.8,151.8 171.8,151.8 "/>
<path class="st1" d="M145.3,99.7V66.4c-3.7,1.7-7.2,3.5-10.8,5.4v35L145.3,99.7z"/>
<path class="st1" d="M104.4,93c-3,2.6-5.9,5.3-8.7,8.1l8.7,5.8V93z"/>
<path class="st1" d="M60.6,151.8c-0.9,2-1.8,4.1-2.6,6.1l9.2-6.1H60.6z"/>
<polygon class="st1" points="93.6,173.9 93.6,223 104.4,223 104.4,166.8 "/>
<polygon class="st1" points="171.8,151.8 134.6,151.8 134.6,166.8 145.3,173.9 218.9,223 248.8,223 248.8,222.5 158.8,162.6 
	179.3,162.6 248.8,208.9 248.8,203.2 188,162.6 "/>
<path class="st1" d="M104.4,106.9l-8.7-5.8c-6.4,6.4-12.2,13.3-17.5,20.6h26.2V106.9z"/>
<path class="st1" d="M134.6,106.9v14.8H172l16.2-10.8l60.6-40.4V53.4c-1.1-0.2-2.2-0.4-3.3-0.6l-87.4,58.1h-12.8v-5.1l82.5-54.9
	c-2.9-0.2-5.9-0.3-8.8-0.3l-73.8,49.1L134.6,106.9z"/>
<path class="st1" d="M104.4,166.8v-14.9H67.1l-9.2,6.1c-3.3,8-5.9,16.3-7.9,24.7l30.1-20h13.4v4.7l-46.6,31
	c-0.3,2.4-0.7,4.9-0.9,7.3l47.5-31.7L104.4,166.8z"/>
<path class="st8" d="M104.4,151.8V223h30.2v-71.2h114.3v-30.2H134.6V71.9c-10.8,6-20.9,13.1-30.2,21.2v28.6H78.2
	c-6.9,9.4-12.8,19.5-17.6,30.2H104.4z"/>
<polygon class="st8" points="158.8,162.6 248.8,222.5 248.8,208.9 179.3,162.6 "/>
<path class="st8" d="M145.3,110.9h12.8l87.4-58.1c-5.8-1-11.7-1.6-17.6-1.9l-82.5,54.9L145.3,110.9z"/>
<path class="st8" d="M93.6,162.6H80.2l-30.1,20c-1.2,5.1-2.2,10.3-3,15.6l46.6-31L93.6,162.6z"/>
<polygon class="st1" points="137.2,306.3 151.4,284.9 127.4,294 119.5,269.6 111.6,294 87.5,284.9 101.8,306.3 79.7,319.5 
	105.3,321.7 101.8,347.2 119.5,328.5 137.2,347.2 133.7,321.7 159.3,319.5 "/>
<polygon class="st1" points="322.2,200.2 329.1,189.7 317.4,194.1 313.5,182.2 309.7,194.1 297.9,189.7 304.9,200.2 294.1,206.6 
	306.6,207.7 304.8,220.1 313.5,211 322.2,220.1 320.4,207.7 333,206.6 "/>
</svg>
