<svg id="圖層_1" data-name="圖層 1" xmlns="http://www.w3.org/2000/svg" viewBox="0 0 1490.88 875.07"><defs><style>.cls-1{fill:#b77941;}.cls-2{fill:#fff;}</style></defs><path class="cls-1" d="M1469.12,314.08c-17.78-34.65-26.8-70.2-26.8-105.75v-3.27c0-32.37-30.19-58.6-67.38-58.64-12.06,0-21.86-8.48-21.9-19,0-32.39-30.17-58.64-67.38-58.7H1039.24c-40.8,0-81.68-7.85-121.52-23.32C872,27.69,814.38,17.9,755.36,17.9S638.68,27.69,593,45.46c-39.81,15.48-80.68,23.33-121.52,23.33H225.07c-37.2,0-67.34,26.27-67.39,58.64,0,10.47-9.76,19-21.8,19h-.1c-37.2,0-67.34,26.27-67.38,58.64v3.27c0,35.5-9,71.07-26.8,105.74C21.18,353.81,9.92,404,9.92,455.38S21.18,556.9,41.6,596.68c17.78,34.64,26.8,70.2,26.8,105.7v3.28c0,32.37,30.18,58.6,67.38,58.64h.1c12,0,21.79,8.49,21.8,19v.17c0,32.37,30.19,58.6,67.39,58.64H471.49c40.8,0,81.67,7.85,121.52,23.33C638.68,883.18,696.35,893,755.36,893s116.7-9.79,162.4-27.56c39.8-15.48,80.68-23.33,121.51-23.33H1285.7c37.2,0,67.34-26.27,67.38-58.64v-.12c0-10.47,9.77-19,21.8-19h.27c37.11-.16,67.11-26.35,67.18-58.64v-3.27c0-35.5,9-71.07,26.8-105.74,20.43-39.77,31.68-90,31.68-141.33S1489.55,353.85,1469.12,314.08Z" transform="translate(-9.92 -17.9)"/><path class="cls-2" d="M1464.28,314.9c-17.66-34.41-26.62-69.73-26.62-105v-3.25c-.05-32.15-30-58.21-66.93-58.25-12,0-21.71-8.42-21.75-18.84,0-32.17-30-58.25-66.93-58.3H1037.29c-40.52,0-81.12-7.79-120.69-23.17C871.21,30.45,814,20.72,755.33,20.72S639.44,30.45,594,48.1C554.5,63.47,513.9,71.27,473.34,71.27H228.62c-37,0-66.89,26.09-66.93,58.24,0,10.41-9.7,18.84-21.66,18.85h-.1c-36.94,0-66.88,26.1-66.93,58.25v3.24c0,35.27-9,70.6-26.62,105C26.1,354.36,14.92,404.21,14.92,455.25S26.1,556.08,46.38,595.59C64,630,73,665.32,73,700.58v3.26c0,32.15,30,58.2,66.93,58.24h.1c12,0,21.65,8.44,21.66,18.85v.17c0,32.15,30,58.2,66.93,58.24H473.38c40.52,0,81.12,7.8,120.69,23.17,45.37,17.66,102.65,27.37,161.26,27.37s115.91-9.71,161.31-27.37c39.53-15.37,80.13-23.17,120.69-23.17h244.76c37,0,66.89-26.09,66.93-58.24V781c0-10.4,9.7-18.83,21.65-18.86h.27c36.86-.16,66.66-26.17,66.73-58.24v-3.25c0-35.26,9-70.59,26.62-105,20.29-39.5,31.46-89.36,31.46-140.37S1484.57,354.4,1464.28,314.9Z" transform="translate(-9.92 -17.9)"/></svg>