<?xml version="1.0" encoding="utf-8"?>
<!-- Generator: Adobe Illustrator 24.3.0, SVG Export Plug-In . SVG Version: 6.00 Build 0)  -->
<svg version="1.1" id="圖層_1" xmlns="http://www.w3.org/2000/svg" xmlns:xlink="http://www.w3.org/1999/xlink" x="0px" y="0px"
	 viewBox="0 0 201 200.8" style="enable-background:new 0 0 201 200.8;" xml:space="preserve">
<style type="text/css">
	.st0{clip-path:url(#SVGID_2_);}
	.st1{fill:#FBD6B5;}
	.st2{fill:#41312A;}
	.st3{fill:#ECBF9A;}
	.st4{fill:#FFFFFF;}
	.st5{fill:#86A2CB;}
	.st6{fill:#E9B17E;}
</style>
<g>
	<g>
		<defs>
			<circle id="SVGID_1_" cx="106.7" cy="89.8" r="106.7"/>
		</defs>
		<clipPath id="SVGID_2_">
			<use xlink:href="#SVGID_1_"  style="overflow:visible;"/>
		</clipPath>
		<g class="st0">
			<path class="st1" d="M150.2,126.8c0,0-1.9,15.5-5.7,31.4c-3.7,15.9,5.7,50.8,5.7,50.8l-60.1,27.5c0,0,0.8-40.6-1.6-51.2
				C86.1,174.7,77.8,168,77.8,168L150.2,126.8z"/>
			<path class="st1" d="M150.2,126.4c0,0-19.7,20-34.2,29.3c-12.9,8.2-23.7,14.5-35.6,16.9c-24.1,5-31.4,2-26.9-11.8
				c1.3-4.2-1.6-4.5-3.1-5.4c-2.5-1.4,19.8-6.1,12.2-13.2c-7.5-2.9-16.7,5.6-15.1-4.6c0.7-5-5-6.2-7.1-8.2c-3.9-3.7-3-7.5,1.7-12.1
				s10.2-9.8,10.3-15.9c0.2-5.6-3.3-17-2.7-28.9c0.2-4.9,2.3-10.5,3.7-14.8c2.7-8,9.2-12.2,17-14.7
				C118.3,27.7,150.2,126.4,150.2,126.4z"/>
			<path class="st2" d="M86.1,93c0,0-9.3-7.5-15.9-10.1c-6.4-2.5-12.1-1.5-13.9-2.5c-3.4-1.8,1.6-4.4,5.6-4.6
				C78.5,74.9,86.1,93,86.1,93z"/>
			<path class="st3" d="M88.5,185.3c0,0,14.8-5,27.4-17.3c8.6-8.4,17.1-28.6,17.1-28.6S119.3,152,107.9,161
				c-7.6,6-27.4,11.8-27.4,11.8C85.6,174.7,88.5,185.3,88.5,185.3z"/>
			<path class="st4" d="M69.8,97.8l7.4,6.6c0,0-3.1,2.5-6.5,3.4c-3.4,0.8-7.7,0.7-9-3.2c-0.8-2.3-0.3-9.9-0.3-9.9L69.8,97.8z"/>
			<path class="st5" d="M68.2,97.3c0,0-0.3,11.3-4.9,9.6c-3.4-1.3-1.9-11.2-1.9-11.2L68.2,97.3z"/>
			<path class="st2" d="M64.2,99.3c-0.8,0-1.5,1-1.5,2.3s0.7,2.3,1.5,2.3s1.5-1,1.5-2.3S65,99.3,64.2,99.3z"/>
			<path class="st4" d="M63.4,98c-0.6,0-1.1,0.8-1.1,1.7s0.5,1.7,1.1,1.7s1.1-0.8,1.1-1.7C64.5,98.7,64,98,63.4,98z"/>
			<path class="st6" d="M48,129.1c1.8,1.6,0,3.5-2,1.6c-2.1-1.8-2.7-3.2-2.7-3.2S46.3,127.5,48,129.1z"/>
			<path class="st2" d="M55.1,71.8c-6,10.2-2.7,29.8-2.7,29.8S40.5,89.4,38.5,80.2s4.7-20.1,4.7-20.1s-5.2,3.5-12.7,3.6
				c-14,0.2-19.6-5.9-19.6-5.9s16.4-2.6,23-7.2c6.5-4.6,29.5-28.9,46.5-32.7c39.8-8.8,52.5,7,52.5,7s21.6-12.9,36.2,16.5
				c11.3,22.7,15.5,51.7,8.2,80c-7.2,28.3-33.5,50.8-33.5,50.8s-4.6-17.7-5.9-23.9s-7.9-20.2-13.4-26.9c-5.6-6.7-23.4-37-23.4-37
				s0.7,6.6,3.5,19.6c1.4,6.6,10.9,25.5,10.9,25.5s-8.5-6.8-15.7-17.5c-7.3-10.7-16-31.7-16-31.7s0.1,3.9,2.3,12.6
				c2.1,8.4,6,16.7,6,16.7s-8.4-4.7-15.9-17.8c-7.4-13.1-9.5-33.2-9.5-33.2S59.9,63.7,55.1,71.8z"/>
			<path class="st2" d="M61.3,96.3c-2.2-0.9-2.2-3.2-2.2-3.2s3.6,0,8.3,2.4c4.3,2.2,9.7,8.9,9.7,8.9S66.9,97.3,61.3,96.3z"/>
			<path class="st1" d="M122.2,127.5c0,0,8.9-7.1,10.7-14.2s0.3-15-7.1-16.1c-7.4-1-15.1,11.1-15.1,11.1L122.2,127.5z"/>
			<path class="st6" d="M121,114.1c0.5,2.1-0.1,6.5-0.1,6.5s5.6-2.5,4-6.7c-0.5-1.3-3.4-4.4-0.4-6.1s6.5,1.5,6.5,1.5s0-6.6-4.2-8
				c-4.2-1.4-9.4,10.1-9.4,10.1S120.4,111.8,121,114.1z"/>
			<path class="st2" d="M132.6,134.1c1,9.2-1.5,22.5-1.5,22.5s-1.4-9.3-2.2-18.5c-0.6-6.4-2.4-14.6-2.4-14.6
				S131.8,127.2,132.6,134.1z"/>
			<path class="st2" d="M132.9,128.4c0,0,8,10.7,8,24.3s-5.3,22-5.3,22s0.9-12.6-0.4-22c-1.3-9.5-4.2-17.8-4.2-17.8L132.9,128.4z"/>
			<path class="st2" d="M143.8,171.4c0.9,3.6,6.4,15,6.4,15s0.8-8.7,2.1-16.6c1.4-7.9,9.1-17.9,9.9-18.9
				C162.2,150.9,138.6,150.9,143.8,171.4z"/>
		</g>
	</g>
</g>
</svg>
