<?xml version="1.0" encoding="utf-8"?>
<!-- Generator: Adobe Illustrator 24.3.0, SVG Export Plug-In . SVG Version: 6.00 Build 0)  -->
<svg version="1.1" id="圖層_1" xmlns="http://www.w3.org/2000/svg" xmlns:xlink="http://www.w3.org/1999/xlink" x="0px" y="0px"
	 viewBox="0 0 452.8 436.7" style="enable-background:new 0 0 452.8 436.7;" xml:space="preserve">
<style type="text/css">
	.st0{fill:url(#SVGID_1_);}
	.st1{fill:#FFFFFF;}
	.st2{fill:url(#SVGID_2_);}
	.st3{fill:#FBE7F0;}
	.st4{fill:url(#SVGID_3_);}
	.st5{fill:url(#SVGID_4_);}
	.st6{fill:url(#SVGID_5_);}
	.st7{fill:#D42036;}
</style>
<g>
	<g id="圖層_8">
		
			<linearGradient id="SVGID_1_" gradientUnits="userSpaceOnUse" x1="85.8275" y1="143.814" x2="370.0976" y2="319.924" gradientTransform="matrix(1 0 0 -1 0 438)">
			<stop  offset="0.15" style="stop-color:#E8473C"/>
			<stop  offset="0.41" style="stop-color:#E95B54"/>
			<stop  offset="0.59" style="stop-color:#FFF5DB"/>
			<stop  offset="0.7" style="stop-color:#EB6F6D"/>
			<stop  offset="0.88" style="stop-color:#F6C3BF"/>
			<stop  offset="0.98" style="stop-color:#EB6F6D"/>
		</linearGradient>
		<ellipse class="st0" cx="214.3" cy="214.6" rx="214.3" ry="213.7"/>
		<ellipse class="st1" cx="214.3" cy="220.9" rx="214.3" ry="213.7"/>
		
			<linearGradient id="SVGID_2_" gradientUnits="userSpaceOnUse" x1="214.26" y1="398.92" x2="214.26" y2="-8.78" gradientTransform="matrix(1 0 0 -1 0 438)">
			<stop  offset="0.15" style="stop-color:#E8473C"/>
			<stop  offset="0.59" style="stop-color:#D5050F"/>
			<stop  offset="0.98" style="stop-color:#EB6F6D"/>
		</linearGradient>
		<ellipse class="st2" cx="214.3" cy="222.9" rx="214.3" ry="213.7"/>
		<path class="st3" d="M217.4,413.3c100.8,0,182.6-81.5,182.6-182.1c0-20.5-3.5-40.9-10.3-60.3c5.4,17.5,8.2,35.7,8.2,54.1
			c0,100.6-81.7,182.1-182.6,182.1c-77.5,0-146.5-48.8-172.3-121.8C66.9,361.5,137.5,413.4,217.4,413.3z"/>
		
			<linearGradient id="SVGID_3_" gradientUnits="userSpaceOnUse" x1="63.73" y1="133.555" x2="420.7001" y2="133.555" gradientTransform="matrix(1 0 0 -1 -20.72 424.67)">
			<stop  offset="0.15" style="stop-color:#E8473C"/>
			<stop  offset="0.41" style="stop-color:#E95B54"/>
			<stop  offset="0.59" style="stop-color:#FFF5DB"/>
			<stop  offset="0.7" style="stop-color:#EB6F6D"/>
			<stop  offset="0.88" style="stop-color:#F6C3BF"/>
			<stop  offset="0.98" style="stop-color:#EB6F6D"/>
		</linearGradient>
		<path class="st4" d="M217.4,412.3c100.8,0,182.6-81.5,182.6-182.1c0-20.5-3.5-40.9-10.3-60.3c5.4,17.5,8.2,35.7,8.2,54
			c0,100.6-81.7,182.1-182.6,182.1C137.9,406.1,68.8,357.3,43,284.3C66.9,360.5,137.5,412.4,217.4,412.3z"/>
		
			<linearGradient id="SVGID_4_" gradientUnits="userSpaceOnUse" x1="236.05" y1="-1.29" x2="236.05" y2="389.77" gradientTransform="matrix(1 0 0 -1 -20.72 424.67)">
			<stop  offset="0.15" style="stop-color:#FFFFFF"/>
			<stop  offset="0.59" style="stop-color:#DEDEDE"/>
			<stop  offset="0.98" style="stop-color:#F7F7F7"/>
		</linearGradient>
		<path class="st5" d="M397.9,224c0,100.6-81.7,182.1-182.6,182.1S32.8,324.5,32.8,224S114.5,41.8,215.3,41.8S397.9,123.4,397.9,224
			z"/>
		<path class="st1" d="M340.5,91.3c32.9,33.9,51.3,79.2,51.2,126.4c0,100.6-81.8,182.1-182.6,182.1c-47.5,0.1-93.1-18.4-127.2-51.5
			c34.4,35.7,81.9,55.8,131.4,55.7c100.8,0,182.6-81.5,182.6-182.1C395.9,172.6,375.9,125.5,340.5,91.3z"/>
		
			<linearGradient id="SVGID_5_" gradientUnits="userSpaceOnUse" x1="115.5173" y1="67.5351" x2="494.0773" y2="264.4351" gradientTransform="matrix(1 0 0 -1 -20.72 424.67)">
			<stop  offset="0.15" style="stop-color:#D4D4D5"/>
			<stop  offset="0.21" style="stop-color:#C0C1C1"/>
			<stop  offset="0.34" style="stop-color:#F09270"/>
			<stop  offset="0.46" style="stop-color:#B5B5B6"/>
			<stop  offset="0.51" style="stop-color:#A0A1A1"/>
			<stop  offset="0.56" style="stop-color:#A5A5A6"/>
			<stop  offset="0.59" style="stop-color:#E8E9E9"/>
			<stop  offset="0.64" style="stop-color:#ABABAC"/>
			<stop  offset="0.75" style="stop-color:#B4B4B5"/>
			<stop  offset="0.8" style="stop-color:#E1E2E2"/>
			<stop  offset="0.84" style="stop-color:#C0C1C1"/>
			<stop  offset="0.98" style="stop-color:#D8D8D9"/>
		</linearGradient>
		<path class="st6" d="M342.5,93.3c32.9,33.9,51.2,79.2,51.2,126.5c0,100.6-81.7,182.1-182.6,182.1C163.7,402,118,383.5,84,350.4
			c34.4,35.6,81.8,55.7,131.3,55.7c100.8,0,182.6-81.5,182.6-182.1C397.9,174.7,377.9,127.6,342.5,93.3z"/>
		<path class="st1" d="M34.8,232.3c0-100.6,81.7-182.1,182.6-182.1c68.4,0,131.1,38.2,162.5,99C349.4,86,285.4,45.9,215.3,46
			C114.5,46,32.7,127.5,32.7,228.1c0,30,7.3,56.2,20.1,81.1C41.3,285.3,34.8,260.6,34.8,232.3z"/>
		<path class="st7" d="M36.3,223.6c0,55.9,26.3,108.5,71,142V81.5C62.5,115,36.2,167.7,36.3,223.6z"/>
		<path class="st7" d="M391.4,223.6c0-55.9-26.3-108.5-71-142v284.1C365.2,332.1,391.5,279.5,391.4,223.6z"/>
		<path class="st1" d="M107.3,81.5v284.2c63.1,47.3,149.9,47.3,213.1,0V81.5C257.2,34.2,170.4,34.2,107.3,81.5L107.3,81.5z"/>
		<path class="st7" d="M213.8,327.1h3.6l-1.2-48.4c0-1.6,2-2.9,3.4-2.9c15.1,1.8,28.8,3.4,43.9,5.3l-3.9-13.2
			c-0.6-2.3,0.2-4.7,2-6.3l44-37.4l-9.1-4.5c-4-1.5-2.9-3.9-1.4-9.5l6.7-25.6l-25.6,5.6c-2,0.4-4-0.8-4.5-2.8l-3.3-12l-20.2,23.7
			c-2.9,3.8-8.7,3.8-6.9-5l8.6-47.9l-11.6,6.3c-3.3,1.9-6.5,2.2-8.4-1.2l-16.3-31.2l-16.2,31.2c-1.8,3.4-5.1,3.1-8.4,1.2l-11.6-6.3
			l8.6,47.9c1.8,8.8-4,8.8-6.9,5l-20.2-23.7l-3.3,12c-0.5,2-2.5,3.2-4.5,2.8l-25.6-5.6l6.7,25.6c1.4,5.7,2.6,8-1.4,9.5l-9.1,4.5
			l44,37.4c1.8,1.5,2.6,4,2,6.3l-3.9,13.2c15.1-1.8,28.8-3.5,43.9-5.3c1.4,0,3.4,1.3,3.4,2.9l-1.2,48.4L213.8,327.1z"/>
	</g>
</g>
</svg>
