<?xml version="1.0" encoding="utf-8"?>
<!-- Generator: Adobe Illustrator 24.3.0, SVG Export Plug-In . SVG Version: 6.00 Build 0)  -->
<svg version="1.1" id="圖層_1" xmlns="http://www.w3.org/2000/svg" xmlns:xlink="http://www.w3.org/1999/xlink" x="0px" y="0px"
	 viewBox="0 0 72.2 70.1" style="enable-background:new 0 0 72.2 70.1;" xml:space="preserve">
<style type="text/css">
	.st0{fill:#F4C9B8;}
	.st1{fill:#FEDA7C;}
	.st2{fill:#1EB975;}
	.st3{fill:#D3D6DD;}
	.st4{fill:#FFFFFF;}
</style>
<path class="st0" d="M1.7,28c0,0,0.8-20.1,8.3-20c0,0,4,4.7,2,15.2l2.1,3.7l9.2,14.6c0,0,3.6,1,1.6,8.7l-0.6,2.6l-13.5,0.1
	C10.7,52.9-0.1,37.5,1.7,28z"/>
<path class="st0" d="M69.8,28.4c0,0-0.8-19.8-8.2-19.7c0,0-3.9,4.6-1.9,15l-2.1,3.6l-9.1,14.4c0,0-3.6,1-1.6,8.6l0.6,2.5l13.4,0.1
	C60.8,52.9,71.5,37.8,69.8,28.4z"/>
<g>
	<g>
		
			<rect x="46.7" y="51.7" transform="matrix(7.218087e-03 -1 1 7.218087e-03 -7.3986 115.254)" class="st1" width="15.3" height="19.4"/>
	</g>
	<g>
		
			<rect x="7.6" y="53.6" transform="matrix(1 -7.223604e-03 7.223604e-03 1 -0.4423 0.1265)" class="st1" width="19.4" height="15.3"/>
	</g>
	<g>
		<path class="st2" d="M35.3,29.7v-1.1c-1.4-0.1-2.7-0.7-3.8-1.7l1.1-1.3c0.9,0.8,1.8,1.2,2.7,1.3v-3c-1.2-0.3-2-0.6-2.6-1.1
			c-0.5-0.5-0.8-1.1-0.8-2s0.3-1.6,0.9-2.2c0.6-0.6,1.4-0.9,2.4-0.9v-0.8h1v0.8c1.1,0.1,2.2,0.5,3.2,1.2l-1,1.4
			c-0.7-0.5-1.4-0.8-2.2-0.9v2.9l0,0c1.2,0.3,2.1,0.7,2.6,1.1c0.6,0.5,0.8,1.2,0.8,2.1s-0.3,1.6-1,2.2c-0.6,0.6-1.5,0.9-2.5,0.9v1.1
			H35.3z M34.2,19.7c-0.3,0.2-0.4,0.5-0.4,0.9c0,0.3,0.1,0.6,0.3,0.8c0.2,0.2,0.6,0.4,1.2,0.6v-2.7C34.9,19.3,34.5,19.5,34.2,19.7z
			 M37.5,26.5c0.3-0.2,0.4-0.5,0.4-0.9s-0.1-0.6-0.3-0.9c-0.2-0.2-0.6-0.4-1.3-0.6v2.8C36.8,26.8,37.2,26.7,37.5,26.5z"/>
	</g>
	<g>
		<path class="st3" d="M28.2,6.2c-1.7-2-0.5-3.3-0.5-3.3c1.3-1.7,8,2,8,2l0,0c0,0,6.7-3.6,8-1.9c0,0,1.3,1.3-0.5,3.3l-2,2.4h-11
			L28.2,6.2z"/>
	</g>
	<g>
		<path class="st3" d="M41.9,8.5c1,0,1.8,0.8,1.8,1.8v0.5c0,1-0.8,1.8-1.8,1.8H29.6c-1,0-1.8-0.8-1.8-1.8v-0.5c0-1,0.8-1.8,1.8-1.8
			H41.9z"/>
	</g>
	<g>
		<g>
			<path d="M49.7,33.2c0.7-0.9,0.8-1.7,0.7-2.1c1.3-7.9-4.7-15.2-7.4-17.9c0.8-0.4,1.4-1.3,1.4-2.3v-0.5c0-1.1-0.7-2-1.6-2.4l1-1.2
				c1.8-2,1.1-3.8,0.5-4.4c-0.4-0.5-1-0.8-1.9-0.8c-2.2,0-5.6,1.7-6.8,2.3c-1.2-0.6-4.7-2.3-6.8-2.3c-0.9,0-1.5,0.3-1.8,0.7
				c-0.6,0.7-1.3,2.4,0.5,4.4l1,1.2C27.6,8.3,27,9.2,27,10.3v0.5c0,1,0.6,1.9,1.4,2.3c-2.6,2.8-8.7,10-7.4,17.9
				c-0.3,4.3,7.3,5,11.6,5C38,36.1,46.9,36.7,49.7,33.2z M30.2,9.4L30.2,9.4h11.1l0,0h0.6c0.5,0,0.9,0.4,0.9,0.9v0.5
				c0,0.5-0.4,0.9-0.9,0.9H29.6c-0.5,0-0.9-0.4-0.9-0.9v-0.5c0-0.5,0.4-0.9,0.9-0.9H30.2z M28.4,3.4c0,0,0.2-0.1,0.5-0.1
				c1.8,0,5.3,1.7,6.4,2.3c0.2,0.1,0.6,0.1,0.8,0c1.2-0.6,4.7-2.3,6.4-2.3c0.4,0,0.5,0.1,0.6,0.2c0.1,0.1,0.7,0.9-0.5,2.2l-1.7,2.1
				H30.6l-1.8-2.1C27.7,4.3,28.2,3.6,28.4,3.4z M48.8,31.2c0,0,0.1,0.5-0.4,1c-0.7,0.8-2.9,2.2-9.5,2.2v0.8l-0.1-0.8
				c-5.2,0-13.4,0.5-15.7-2.2c-0.5-0.5-0.4-1-0.4-1c0-0.1,0-0.2,0-0.3c-1.5-8.2,6.3-16.1,7.8-17.5H41c1.4,1.4,9.2,9.3,7.8,17.5
				C48.8,31,48.8,31.1,48.8,31.2z"/>
		</g>
		<g>
			<path d="M64,52.9h-1.6c4.5-13.5,11.8-17.5,8-29.7c-1.3-4-2.4-10.3-4.7-13.5c-1.7-2.4-5.6-2.2-6.8,0.4c-1.7,3.7-0.2,10.3,0.6,13.2
				c-2.4,0.1-4.4,4-5.3,6.2c-1.5,4-7.2,10.8-7.2,10.8c-3.4,3.2-2.6,8.8-1.6,12.5h-0.8c-0.3,0-0.4,0.1-0.6,0.2
				c-0.2,0.2-0.2,0.4-0.2,0.6l-0.1,15.3c0,0.5,0.4,0.8,0.8,0.8l19.4,0.1l0,0c0.5,0,0.8-0.4,0.8-0.8l0.1-15.3c0-0.2-0.1-0.4-0.2-0.6
				C64.4,53,64.2,52.9,64,52.9z M48.3,41.5c0.2-0.3,5.9-7.1,7.5-11.4c0.6-1.7,2.8-5.9,4.4-4.9c1.9,2.7,1.6,5.9-0.7,8.7
				c-2,2.3-3,5.4-3,5.5c-0.1,0.4,0.1,0.9,0.5,1.1c0.1,0,0.2,0,0.3,0c0.4,0,0.7-0.2,0.8-0.6c0,0,0.9-2.9,2.7-5
				c2.8-3.3,3.1-7.4,0.8-10.7c-0.2-0.8-2.8-9.4-1-13.4c0.6-1.4,2.9-1.5,3.9-0.1c2.1,2.9,3.2,9.1,4.5,13c3.6,11.7-3.6,15.1-8.2,29.2
				l-13.5-0.1C46.3,50,45.2,44.4,48.3,41.5z M63.1,68.2l-17.7-0.1l0.1-13.6l17.7,0.1L63.1,68.2z"/>
		</g>
		<g>
			<path d="M26.8,52.8L26.8,52.8H26c1-3.6,1.8-9.2-1.6-12.4c-0.1-0.1-5.7-6.9-7.2-11C17,28.9,15,24,12.4,23.3
				c-0.2,0-0.4-0.1-0.5-0.1c0.8-3,2.2-9.5,0.6-13.2c-1.2-2.6-5.1-2.8-6.8-0.4C3.4,12.8,2.2,19.1,1,23.1c-1,3.2-2.1,9.5,1.3,15.3
				c0,0.1,4.5,8.2,6.7,14.4H7.4c-0.2,0-0.4,0.1-0.6,0.2c-0.2,0.2-0.2,0.4-0.2,0.6l0.1,15.3c0,0.5,0.4,0.8,0.8,0.8l0,0L27,69.8
				c0.2,0,0.4-0.1,0.6-0.2c0.2-0.2,0.2-0.4,0.2-0.6l-0.1-15.3C27.7,53.1,27.3,52.8,26.8,52.8z M3.8,37.6c-3.2-5.3-2.1-11.1-1.2-14
				c1.2-4,2.4-10.1,4.5-13c1-1.4,3.3-1.3,3.9,0.1c1.8,3.9-0.7,12.4-1,13.4c-1.2,1.7-1.7,3.8-1.5,6c0.5,4,3.2,4.5,5,9.7
				c0.3,1.1,1.9,0.5,1.6-0.5c0-0.1-1-3.2-3-5.5c-2.5-3-2.4-6.2-0.7-8.7c0.3-0.2,0.5-0.2,0.7-0.1c1.3,0.4,2.9,3.3,3.6,5
				c1.6,4.4,7.2,11.2,7.5,11.5c3,2.9,1.9,8.5,1,11.3l-13.5,0.1C8.7,46.4,4.1,38,3.8,37.6z M8.4,68.2L8.3,54.6L26,54.4L26.1,68
				L8.4,68.2z"/>
		</g>
	</g>
	<g>
		<ellipse class="st4" cx="48.4" cy="59.2" rx="1.2" ry="1.2"/>
	</g>
	<g>
		<path class="st4" d="M48.6,63.1c0.6,0.1,1.1,0.7,1,1.4c-0.1,0.6-0.7,1.1-1.4,1c-0.6-0.1-1.1-0.7-1-1.4C47.4,63.4,48,63,48.6,63.1z
			"/>
	</g>
	<g>
		<path class="st4" d="M22.9,58c-0.6,0.1-1.1,0.7-1,1.4c0.1,0.6,0.7,1.1,1.4,1c0.6-0.1,1.1-0.7,1-1.4C24.2,58.4,23.5,57.9,22.9,58z"
			/>
	</g>
	<g>
		<path class="st4" d="M22.9,63.1c-0.6,0.1-1.1,0.7-1,1.4c0.1,0.6,0.7,1.1,1.4,1c0.6-0.1,1.1-0.7,1-1.4C24.1,63.4,23.5,63,22.9,63.1
			z"/>
	</g>
</g>
</svg>
