<?xml version="1.0" encoding="utf-8"?>
<!-- Generator: Adobe Illustrator 24.3.0, SVG Export Plug-In . SVG Version: 6.00 Build 0)  -->
<svg version="1.1" id="圖層_1" xmlns="http://www.w3.org/2000/svg" xmlns:xlink="http://www.w3.org/1999/xlink" x="0px" y="0px"
	 viewBox="0 0 72.2 70.1" style="enable-background:new 0 0 72.2 70.1;" xml:space="preserve">
<style type="text/css">
	.st0{fill:#65D179;}
	.st1{fill:#FCF8DE;}
	.st2{fill:#FFFFFF;}
	.st3{fill:#DCDEE4;}
	.st4{fill:#EA6260;}
	.st5{fill:#F2F3F4;}
	.st6{fill:#040000;}
	.st7{fill:#FDE076;}
</style>
<circle class="st0" cx="39.7" cy="32.9" r="29.9"/>
<path d="M40.1,1.9c-17.1,0-31,13.9-31,31s13.9,31,31,31s31-13.9,31-31l0,0C71,15.8,57.2,2,40.1,1.9z M37.2,3.5
	c-4.8,3.3-8.5,7.9-10.7,13.3c-2.9-0.9-5.7-2.2-8.3-3.8C23.2,7.6,30,4.2,37.2,3.5z M17.4,14c2.7,1.7,5.6,3.1,8.6,4.1
	c-1.7,4.5-2.6,9.3-2.8,14.2H10.5C10.7,25.5,13.1,19.1,17.4,14z M17.4,51.8c-4.3-5.1-6.7-11.5-6.8-18.2h12.7c0.1,4.8,1,9.6,2.8,14.2
	C23,48.8,20.1,50.1,17.4,51.8z M18.3,52.9c2.6-1.6,5.4-2.9,8.3-3.8c2.2,5.4,5.8,10,10.6,13.3C30,61.6,23.3,58.3,18.3,52.9L18.3,52.9
	z M39.4,62.1c-5-2.7-8.9-7.4-11.5-13.4c3.8-1.1,7.6-1.7,11.5-1.7V62.1z M39.4,45.6c-4.1,0.1-8.1,0.7-12.1,1.8
	c-1.7-4.4-2.6-9.1-2.8-13.8h14.8L39.4,45.6z M39.4,32.2H24.6c0.1-4.7,1.1-9.4,2.8-13.8c3.9,1.2,8,1.8,12.1,1.8L39.4,32.2z
	 M39.4,18.9c-3.9,0-7.8-0.6-11.5-1.7c2.6-5.9,6.6-10.7,11.5-13.4V18.9z M61.9,12.9c-2.6,1.6-5.4,2.9-8.3,3.8
	c-2.2-5.4-5.9-10-10.6-13.3C50.2,4.2,57,7.6,61.9,12.9L61.9,12.9z M40.8,3.8c5,2.7,9,7.4,11.5,13.4c-3.7,1.1-7.6,1.7-11.5,1.7V3.8z
	 M40.8,20.3c4.1-0.1,8.1-0.7,12.1-1.8c1.7,4.4,2.6,9.1,2.8,13.8H40.8V20.3L40.8,20.3z M40.8,33.6h14.8c-0.1,4.7-1.1,9.4-2.8,13.8
	c-3.9-1.2-8-1.8-12.1-1.8L40.8,33.6z M40.8,47c3.9,0,7.8,0.6,11.5,1.7c-2.6,5.9-6.6,10.7-11.5,13.4V47z M43,62.4
	c4.8-3.3,8.5-7.9,10.7-13.3c2.9,0.9,5.7,2.2,8.3,3.8C57,58.3,50.3,61.6,43,62.4L43,62.4z M62.8,51.8c-2.7-1.7-5.6-3-8.6-4
	c1.7-4.5,2.6-9.3,2.8-14.2h12.7C69.5,40.3,67.1,46.7,62.8,51.8z M69.7,32.2H57c-0.1-4.8-1-9.6-2.8-14.2c3-1,5.9-2.4,8.6-4.1
	C67.1,19.1,69.5,25.5,69.7,32.2z"/>
<path class="st1" d="M3.7,62.4c0,0,10.9,3.8,18,0c0,0,1.6,2.1,0,3.5S1,71,3.7,62.4z"/>
<path class="st1" d="M3.9,59.6c0,0,10.9,3.9,18,0c0,0,1.6,2.1,0,3.5C20.4,64.4,1.3,68.3,3.9,59.6z"/>
<path class="st1" d="M3.6,55.7c0,0,10.9,3.9,18,0c0,0,1.6,2.1,0,3.5S1,64.4,3.6,55.7z"/>
<path class="st2" d="M3.9,52c0,0,10.9,3.9,18,0c0,0,1.6,2.1,0,3.5C20.4,56.9,1.3,60.7,3.9,52z"/>
<path class="st1" d="M3.9,52c0,0,10.9,3.9,18,0c0,0,1.6,2.1,0,3.5C20.4,56.8,1.3,60.7,3.9,52z"/>
<path class="st3" d="M23.4,35.5c0,0-7.7,5.7-8.1,10.6c0,0,4.4-0.2,6.8,2.9c0,0,1.9,1.2-0.8,3.7l1.4,1.2l-1.5,1.6l1.9,1.6l-0.9,2.2
	l0.4,1.2L21,62.4c1.3,0.1,2.3,1.3,2.2,2.6c0,0,26,3.1,25.9-4.9c0,0,4.6-10.9-10.9-24.6H23.4z"/>
<path class="st4" d="M31.9,59.3v-1.6c-2-0.2-3.9-1-5.3-2.4l1.6-1.9c1,1,2.3,1.6,3.7,1.9v-4.2c-1.3-0.2-2.5-0.8-3.6-1.5
	c-0.8-0.7-1.3-1.8-1.2-2.8c0-1.2,0.4-2.3,1.3-3.1c1-0.8,2.2-1.3,3.5-1.3v-1.1h1.4v1.1c1.6,0.1,3.2,0.7,4.5,1.6l-1.4,2
	c-0.9-0.7-2-1.1-3.1-1.3v4.1h0.1c1.3,0.2,2.5,0.8,3.6,1.6c0.8,0.7,1.3,1.8,1.2,2.9c0,1.2-0.5,2.3-1.4,3.1c-1,0.8-2.3,1.3-3.6,1.3
	v1.6L31.9,59.3z M30.3,45.3c-0.7,0.6-0.7,1.7-0.1,2.4l0,0c0.5,0.4,1,0.7,1.6,0.8v-3.8C31.3,44.8,30.8,45,30.3,45.3z M34.9,54.9
	c0.4-0.3,0.6-0.8,0.6-1.3c0-0.4-0.2-0.9-0.5-1.2c-0.5-0.4-1.1-0.7-1.8-0.8v3.9C33.9,55.4,34.4,55.2,34.9,54.9L34.9,54.9z"/>
<path class="st5" d="M23.6,25.8c-1.7-3-0.5-5.1-0.5-5.1c1.2-2.5,8,3,8,3l0,0c0,0,6.7-5.5,7.9-3c0,0,1.2,2-0.5,5.1l-2,3.6h-11
	L23.6,25.8z"/>
<path class="st3" d="M22.7,29.5h16.7c1.3,0,2.4,1.1,2.4,2.4v0.7c0,1.3-1.1,2.4-2.4,2.4H22.7c-1.3,0-2.4-1.1-2.4-2.4v-0.7
	C20.3,30.6,21.3,29.5,22.7,29.5z"/>
<path class="st6" d="M12.2,54.4c-0.3,0-0.6-0.2-0.6-0.5l0,0l0,0c0-0.3,0.3-0.6,0.6-0.6s0.6,0.3,0.6,0.6
	C12.8,54.1,12.5,54.4,12.2,54.4z"/>
<ellipse class="st7" cx="12.9" cy="50.2" rx="10" ry="3.6"/>
<path class="st6" d="M40,35.5c1.4-0.3,2.4-1.5,2.4-2.9v-0.7c0-1.6-1.4-3-3-2.9h-1.9l1.5-2.8c1.7-3,2.3-11.2-8-3.1
	c-10.1-8-9.7,0-8,3.1l1.5,2.8h-1.9c-1.6,0-3,1.3-3,3l0,0v0.6c0,1.4,1,2.6,2.4,2.9c-3.1,3.1-5.7,6.7-7.8,10.6c-0.5,0-0.9,0-1.4,0
	c-8.4,0-12.6,3.3-9.6,6c-1,0.7-1.2,2.1-0.5,3.1c0.1,0.2,0.3,0.4,0.5,0.5c-1,0.7-1.2,2.1-0.5,3.1c0.3,0,0.5,0.2,0.7,0.4
	c-1,0.7-1.2,2.1-0.5,3.1c0.1,0.2,0.3,0.4,0.5,0.5c-0.6,0.5-1,1.2-1,2c0,4.9,17,5.6,20.5,1.4c1.2,0.1,2.5,0.1,3.9,0.1h8.5
	c9.3,0,12.8-2,14.2-3.7c0.6-0.7,0.9-1.7,0.8-2.6C52.3,48.9,43.1,38.6,40,35.5z M24,25.6c-1.3-2.2-1-4.9,0.2-4.9
	c1.7,0,5.2,2.6,6.4,3.6c0.2,0.1,0.5,0.1,0.7,0h0.1c1.4-1.2,6.3-4.7,7.1-3.1c0,0.1,1,1.8-0.5,4.5L36.2,29H25.9L24,25.6z M20.8,32.5
	v-0.7c0-1,0.8-1.8,1.8-1.8l0,0h16.7c1,0,1.8,0.8,1.8,1.8l0,0v0.7c0,1-0.8,1.8-1.8,1.9l0,0H22.7C21.6,34.4,20.8,33.6,20.8,32.5
	L20.8,32.5z M12.9,47.2c0.6,0,1.2,0,1.7,0l0,0c4.8,0.3,10.6,2.4,6,4.7c-2.4,1-5,1.4-7.5,1.4h-0.3c-5.2,0-9.2-1.6-9.2-3
	S7.5,47.2,12.9,47.2z M12.7,54.4H13c2.9,0.1,5.8-0.5,8.5-1.7c3,2.2-3.1,4.2-8.6,4.2c-4.2,0-11.9-1.8-8.6-4.2
	C6.9,53.9,9.8,54.5,12.7,54.4z M12.9,58c3,0.1,5.9-0.5,8.6-1.7c1.2,0.9,1,1.7-0.3,2.5c-6,3.7-21.3,0.7-16.9-2.5
	C7,57.5,9.9,58.1,12.9,58L12.9,58z M21.5,60c1.2,0.9,1,1.7-0.3,2.5c-6,3.7-21.3,0.7-16.9-2.5C8.5,62.2,17.5,62.2,21.5,60z
	 M12.9,67.8c-5.6,0-11.5-2.1-8.6-4.2c4.2,2.3,13.1,2.2,17.2,0c0.9,0.6,0.9,1.2,0.7,1.6c0,0.1-0.1,0.1-0.1,0.2
	C21.2,66.6,17.5,67.8,12.9,67.8L12.9,67.8z M49.3,60.2c0,0.6-0.2,1.3-0.6,1.7c-1.2,1.5-4.5,3.2-13.3,3.2h-8.5c-1.2,0-2.4,0-3.4-0.1
	c0.1-0.8-0.2-1.6-0.9-2.1c1-0.7,1.2-2.1,0.5-3.1c-0.1-0.2-0.3-0.4-0.5-0.5c1-0.7,1.2-2.1,0.5-3.1c-0.1-0.2-0.3-0.4-0.5-0.5
	c1-0.7,1.2-2.1,0.5-3.1c-0.1-0.2-0.3-0.4-0.5-0.5C25,50,23,47,15.7,46.2c2.1-4,4.8-7.6,8-10.7h14.8c1.5,1.4,12.9,12.6,10.9,24.4
	C49.2,60,49.2,60.1,49.3,60.2L49.3,60.2z"/>
<path class="st6" d="M12.7,52.7v-0.4c-0.7,0-1.4-0.2-2-0.6l0.6-0.5c0.4,0.3,0.9,0.5,1.4,0.5v-1.2c-0.5-0.1-0.9-0.2-1.3-0.4
	c-0.3-0.2-0.4-0.5-0.4-0.8s0.2-0.7,0.5-0.8c0.4-0.2,0.8-0.4,1.3-0.4v-0.3h0.5v0.3c0.6,0,1.2,0.2,1.7,0.4L14.4,49
	c-0.4-0.2-0.8-0.3-1.2-0.3v1.1l0,0c0.5,0.1,1,0.2,1.4,0.4c0.3,0.2,0.4,0.5,0.4,0.8s-0.2,0.7-0.5,0.8c-0.4,0.2-0.9,0.4-1.3,0.4v0.4
	L12.7,52.7z M12.1,48.9c-0.1,0.1-0.2,0.2-0.2,0.3s0.1,0.2,0.2,0.3c0.2,0.1,0.4,0.2,0.6,0.2v-1C12.5,48.7,12.3,48.7,12.1,48.9z
	 M13.8,51.4c0.1-0.1,0.2-0.2,0.2-0.3s-0.1-0.3-0.2-0.3c-0.2-0.1-0.4-0.2-0.7-0.2v1.1C13.4,51.6,13.7,51.6,13.8,51.4z"/>
</svg>
