<?xml version="1.0" encoding="utf-8"?>
<!-- Generator: Adobe Illustrator 24.3.0, SVG Export Plug-In . SVG Version: 6.00 Build 0)  -->
<svg version="1.1" id="圖層_1" xmlns="http://www.w3.org/2000/svg" xmlns:xlink="http://www.w3.org/1999/xlink" x="0px" y="0px"
	 viewBox="0 0 76.9 72.3" style="enable-background:new 0 0 76.9 72.3;" xml:space="preserve">
<style type="text/css">
	.st0{fill:#1EB975;}
	.st1{fill:#FFFFFF;}
	.st2{fill:#F9EFE4;}
	.st3{clip-path:url(#SVGID_2_);}
	.st4{fill:none;}
	.st5{clip-path:url(#SVGID_4_);}
	.st6{fill:#9FACBD;}
	.st7{clip-path:url(#SVGID_6_);}
	.st8{clip-path:url(#SVGID_8_);}
	.st9{clip-path:url(#SVGID_10_);}
	.st10{clip-path:url(#SVGID_12_);}
	.st11{clip-path:url(#SVGID_14_);}
	.st12{fill:#FEDA7C;}
	.st13{fill:#F7D719;}
	.st14{fill:#5D89E2;}
	.st15{fill:#EA7C2A;}
	.st16{fill:#020202;}
</style>
<g>
	<g>
		<polygon class="st0" points="70.9,14.4 70.9,34.4 49.9,34.4 43.6,39.5 43.6,34.4 39,34.4 39,14.4 		"/>
	</g>
	<g>
		<path class="st1" d="M54.7,31.6v-1.2c-1.6-0.1-3-0.8-4.2-1.9l1.3-1.5c1,0.9,2,1.3,3,1.5v-3.4c-1.3-0.3-2.3-0.8-2.8-1.2
			c-0.7-0.5-0.9-1.3-0.9-2.3s0.3-1.9,1.1-2.5c0.7-0.7,1.6-1,2.7-1.1v-0.9H56V18c1.3,0.1,2.5,0.5,3.6,1.3L58.5,21
			c-0.8-0.5-1.6-0.9-2.5-1v3.3l0,0c1.3,0.3,2.3,0.8,2.9,1.3c0.7,0.5,1,1.3,1,2.3s-0.3,1.9-1.1,2.5c-0.8,0.7-1.6,1-2.8,1.1v1.2
			L54.7,31.6C54.7,31.7,54.7,31.6,54.7,31.6z M53.5,20.5c-0.3,0.2-0.4,0.5-0.4,1s0.1,0.7,0.3,0.9c0.2,0.2,0.7,0.4,1.3,0.7v-3
			C54.2,20,53.8,20.1,53.5,20.5z M57.1,28.1c0.3-0.2,0.4-0.7,0.4-1c0-0.4-0.1-0.8-0.3-1s-0.8-0.4-1.4-0.7v3.2
			C56.4,28.4,56.8,28.3,57.1,28.1z"/>
	</g>
	<g>
		<path class="st2" d="M54.8,10.3V4.7c0-2.1-1.7-3.8-3.8-3.8H18.4c-2.1,0-3.8,1.7-3.8,3.8v5.7L54.8,10.3L54.8,10.3z"/>
	</g>
	<g>
		<path class="st2" d="M14.6,61.7v5.7c0,2.1,1.7,3.8,3.8,3.8h32.8c2.1,0,3.8-1.7,3.8-3.8v-5.7H14.6z"/>
	</g>
	<g>
		<path d="M70.9,13.5H55.7V4.7c0-2.2-1.6-4.1-3.7-4.6C51.7,0,51.4,0,51,0H18.4c-0.7,0-1.3,0.1-1.9,0.4c-1.6,0.8-2.8,2.3-2.8,4.2
			v62.7c0,2.5,2.1,4.6,4.7,4.6h32.8c2.5,0,4.6-2.1,4.6-4.6v-32h15.1c0.4,0,0.9-0.3,0.9-0.9v-20C71.7,13.8,71.3,13.5,70.9,13.5z
			 M15.4,4.7c0-1.2,0.8-2.3,1.7-2.7c0.3-0.1,0.8-0.2,1.2-0.2h32.8c0.2,0,0.4,0,0.5,0.1C52.9,2.2,54,3.3,54,4.7v4.8H15.4V4.7z
			 M54.1,67.4c0,1.6-1.3,2.9-2.9,2.9H18.4c-1.6,0-2.9-1.3-2.9-2.9v-4.8h38.6V67.4z M54.1,60.9H15.4V11.1H54v2.4H39
			c-0.4,0-0.9,0.3-0.9,0.9v20.1c0,0.4,0.3,0.9,0.9,0.9h3.9v4.2c0,0.3,0.2,0.7,0.4,0.8c0.1,0.1,0.2,0.1,0.3,0.1
			c0.2,0,0.3-0.1,0.5-0.2l6-4.9H54L54.1,60.9C54,60.9,54.1,60.9,54.1,60.9z M70,33.5H50c-0.2,0-0.4,0.1-0.5,0.2l-4.9,4v-3.4
			c0-0.4-0.3-0.9-0.9-0.9h-3.9V15.1H70V33.5z"/>
	</g>
	<g>
		<g>
			<g>
				<defs>
					<circle id="SVGID_1_" cx="34.7" cy="66.4" r="2"/>
				</defs>
				<clipPath id="SVGID_2_">
					<use xlink:href="#SVGID_1_"  style="overflow:visible;"/>
				</clipPath>
				<g class="st3">
					<rect x="31.7" y="53.9" class="st4" width="11.3" height="10.8"/>
				</g>
			</g>
		</g>
		<g>
			<g>
				<defs>
					<circle id="SVGID_3_" cx="34.7" cy="66.4" r="2"/>
				</defs>
				<clipPath id="SVGID_4_">
					<use xlink:href="#SVGID_3_"  style="overflow:visible;"/>
				</clipPath>
				<g class="st5">
					<rect x="31.7" y="53.9" class="st6" width="11.3" height="10.8"/>
				</g>
			</g>
		</g>
		<g>
			<g>
				<defs>
					<circle id="SVGID_5_" cx="34.7" cy="66.4" r="2"/>
				</defs>
				<clipPath id="SVGID_6_">
					<use xlink:href="#SVGID_5_"  style="overflow:visible;"/>
				</clipPath>
				<g class="st7">
					<rect x="31.7" y="64.7" class="st4" width="11.3" height="10.8"/>
				</g>
			</g>
		</g>
		<g>
			<g>
				<defs>
					<circle id="SVGID_7_" cx="34.7" cy="66.4" r="2"/>
				</defs>
				<clipPath id="SVGID_8_">
					<use xlink:href="#SVGID_7_"  style="overflow:visible;"/>
				</clipPath>
				<g class="st8">
					<rect x="31.7" y="64.7" class="st6" width="11.3" height="10.8"/>
				</g>
			</g>
		</g>
	</g>
	<g>
		<g>
			<g>
				<g>
					<defs>
						<path id="SVGID_9_" d="M43.1,6.4H26.4c-0.4,0-0.9-0.3-0.9-0.9c0-0.4,0.3-0.9,0.9-0.9h16.7C43.5,4.7,44,5,44,5.6
							C43.9,6.1,43.5,6.4,43.1,6.4z"/>
					</defs>
					<clipPath id="SVGID_10_">
						<use xlink:href="#SVGID_9_"  style="overflow:visible;"/>
					</clipPath>
					<g class="st9">
						<rect x="42.9" y="-0.1" class="st4" width="11.3" height="10.8"/>
						<rect x="42.9" y="-0.1" class="st6" width="11.3" height="10.8"/>
					</g>
				</g>
			</g>
			<g>
				<g>
					<defs>
						<path id="SVGID_11_" d="M43.1,6.4H26.4c-0.4,0-0.9-0.3-0.9-0.9c0-0.4,0.3-0.9,0.9-0.9h16.7C43.5,4.7,44,5,44,5.6
							C43.9,6.1,43.5,6.4,43.1,6.4z"/>
					</defs>
					<clipPath id="SVGID_12_">
						<use xlink:href="#SVGID_11_"  style="overflow:visible;"/>
					</clipPath>
					<g class="st10">
						<rect x="31.7" y="-0.1" class="st4" width="11.3" height="10.8"/>
						<rect x="31.7" y="-0.1" class="st6" width="11.3" height="10.8"/>
					</g>
				</g>
			</g>
			<g>
				<g>
					<defs>
						<path id="SVGID_13_" d="M43.1,6.4H26.4c-0.4,0-0.9-0.3-0.9-0.9c0-0.4,0.3-0.9,0.9-0.9h16.7C43.5,4.7,44,5,44,5.6
							C43.9,6.1,43.5,6.4,43.1,6.4z"/>
					</defs>
					<clipPath id="SVGID_14_">
						<use xlink:href="#SVGID_13_"  style="overflow:visible;"/>
					</clipPath>
					<g class="st11">
						<rect x="20.3" y="-0.1" class="st4" width="11.3" height="10.8"/>
						<rect x="20.3" y="-0.1" class="st6" width="11.3" height="10.8"/>
					</g>
				</g>
			</g>
		</g>
	</g>
</g>
<g>
	<rect x="20" y="57.6" class="st12" width="29.4" height="1.9"/>
</g>
<g>
	<rect x="43.9" y="41" class="st13" width="3.7" height="16.5"/>
</g>
<g>
	<rect x="29.3" y="42.9" class="st14" width="3.7" height="14.7"/>
</g>
<g>
	<rect x="21.8" y="37.3" class="st15" width="3.7" height="19.8"/>
</g>
<g>
	<g>
		<path class="st16" d="M49.4,57.3h-1.5V41c0-0.2-0.1-0.3-0.3-0.3h-3.7c-0.2,0-0.3,0.1-0.3,0.3c0,11-0.1,14.8,0,16.1h-3
			c0.1-1.5,0-6,0-19.8c0-0.2-0.1-0.3-0.3-0.3h-3.7c-0.2,0-0.3,0.1-0.3,0.3v19.8h-2.9c0.1-1.3,0-4.7,0-14.4c0-0.2-0.1-0.3-0.3-0.3
			h-3.7c-0.2,0-0.3,0.1-0.3,0.3v14.4h-2.9V37.4c0-0.2-0.1-0.3-0.3-0.3h-3.7c-0.2,0-0.3,0.1-0.3,0.3c0,13.8-0.1,18.3,0,19.8H20
			c-0.2,0-0.3,0.1-0.3,0.3v1.9c0,0.2,0.1,0.3,0.3,0.3h29.4c0.2,0,0.3-0.1,0.3-0.3v-1.9C49.7,57.4,49.6,57.3,49.4,57.3z M44.3,41.5
			h2.9v15.8h-2.9V41.5z M36.9,37.8h2.9v19.5h-2.9V37.8z M29.6,43.2h2.9v13.9h-2.9V43.2z M22.2,37.8h2.9v19.5h-2.9V37.8z M49.1,59.1
			H20.4V58h1.3h18.7h8.7L49.1,59.1L49.1,59.1z"/>
	</g>
</g>
</svg>
