<?xml version="1.0" encoding="utf-8"?>
<!-- Generator: Adobe Illustrator 24.3.0, SVG Export Plug-In . SVG Version: 6.00 Build 0)  -->
<svg version="1.1" id="圖層_1" xmlns="http://www.w3.org/2000/svg" xmlns:xlink="http://www.w3.org/1999/xlink" x="0px" y="0px"
	 viewBox="0 0 72.2 70.1" style="enable-background:new 0 0 72.2 70.1;" xml:space="preserve">
<style type="text/css">
	.st0{fill:#86D2FF;}
	.st1{fill:#F86868;}
	.st2{fill:#D3D6DD;}
	.st3{fill:#FEDA7C;}
</style>
<g>
	<g>
		<path class="st0" d="M48.6,25.3l0,38.6c0,5,16.7,5,16.7,0l0-38.6c0,1.5-3.7,2.6-8.3,2.6C52.3,27.9,48.6,26.7,48.6,25.3z"/>
	</g>
	<g>
		<path class="st1" d="M28.1,33.9l0,30c0,5,16.7,5,16.7,0l0-30c0,1.5-3.7,2.6-8.3,2.6C31.8,36.5,28.1,35.3,28.1,33.9z"/>
	</g>
	<g>
		<path class="st2" d="M7.5,42.5l0,21.4c0,5,16.7,5,16.7,0l0-21.4c0,1.5-3.7,2.6-8.3,2.6C11.3,45.1,7.5,43.9,7.5,42.5z"/>
	</g>
	<g>
		<path class="st3" d="M15.7,33.5v-0.8c-0.9-0.1-1.8-0.5-2.5-1.1l0.8-0.9c0.6,0.5,1.2,0.8,1.8,0.9l0-2c-0.8-0.2-1.3-0.4-1.7-0.7
			c-0.4-0.3-0.5-0.7-0.5-1.3c0-0.6,0.2-1.1,0.6-1.5c0.4-0.4,1-0.6,1.6-0.6V25l0.7,0l0,0.5c0.8,0.1,1.5,0.3,2.1,0.8l-0.7,0.9
			c-0.5-0.3-0.9-0.5-1.5-0.6l0,1.9h0c0.8,0.2,1.4,0.4,1.7,0.8c0.4,0.3,0.6,0.8,0.6,1.4c0,0.6-0.2,1.1-0.6,1.5
			c-0.4,0.4-1,0.6-1.7,0.6l0,0.7L15.7,33.5z M14.9,26.8c-0.2,0.2-0.3,0.3-0.3,0.6c0,0.2,0.1,0.4,0.2,0.5c0.1,0.1,0.4,0.3,0.8,0.4
			l0-1.8C15.3,26.6,15.1,26.7,14.9,26.8z M17.1,31.4c0.2-0.2,0.3-0.4,0.3-0.6c0-0.2-0.1-0.4-0.2-0.6c-0.2-0.1-0.4-0.3-0.8-0.4l0,1.9
			C16.6,31.6,16.9,31.5,17.1,31.4z"/>
	</g>
	<g>
		<path class="st3" d="M36.2,24.5l0-0.7c-0.9-0.1-1.7-0.5-2.5-1.1l0.7-0.9c0.6,0.5,1.1,0.8,1.7,0.9l0-2c-0.8-0.2-1.3-0.4-1.7-0.7
			c-0.4-0.3-0.5-0.7-0.5-1.3c0-0.6,0.2-1.1,0.6-1.4c0.4-0.4,0.9-0.6,1.6-0.6l0-0.5l0.6,0v0.5c0.7,0.1,1.4,0.3,2.1,0.8l-0.7,0.9
			c-0.4-0.3-0.9-0.5-1.4-0.6l0,1.9h0c0.8,0.2,1.3,0.4,1.7,0.7c0.4,0.3,0.5,0.8,0.5,1.3c0,0.6-0.2,1.1-0.6,1.4
			c-0.4,0.4-1,0.6-1.7,0.6v0.7H36.2z M35.5,18c-0.2,0.2-0.3,0.3-0.3,0.6c0,0.2,0.1,0.4,0.2,0.5c0.1,0.1,0.4,0.3,0.8,0.4l0-1.7
			C35.9,17.8,35.7,17.9,35.5,18z M37.6,22.4c0.2-0.2,0.3-0.3,0.3-0.6c0-0.2-0.1-0.4-0.2-0.6c-0.1-0.1-0.4-0.3-0.8-0.4l0,1.8
			C37.2,22.7,37.4,22.6,37.6,22.4z"/>
	</g>
	<g>
		<g>
			<path d="M66.1,25.3c0-2.8-6.3-3.4-9.1-3.4c-4.4,0-9.1,1.1-9.1,3.4c0,0,0,0,0,0c0,0,0,0,0,0l0,38.6c0,6.1,18.2,6.1,18.2,0
				L66.1,25.3L66.1,25.3z M57,23.4c5,0,7.6,1.3,7.6,1.9c0,1-4.3,1.9-7.6,1.9c-2,0-4.7-0.3-6.5-1.1c-0.8-0.4-1.1-0.7-1.1-0.8
				C49.4,24.7,52,23.4,57,23.4z M64.5,63.9c0,1.5-3.1,3.1-7.6,3.1c-4.5,0-7.6-1.6-7.6-3.1l0-36.7c1.9,1.1,5.2,1.4,7.6,1.4
				c0.2,0,0.3,0,0.5,0c2.1,0,5.2-0.4,7.1-1.4L64.5,63.9z"/>
		</g>
		<g>
			<path d="M36.4,30.5c-4.4,0-9.1,1.1-9.1,3.4c0,0,0,0,0,0l0,30c0,2.6,3.9,4.6,9.1,4.6c5.2,0,9.1-2,9.1-4.6l0-30l0,0
				C45.5,31.1,39.3,30.5,36.4,30.5z M36.4,32c5,0,7.6,1.3,7.6,1.9c0,1-4.3,1.9-7.6,1.9c-3.3,0-7.6-0.9-7.6-1.9
				C28.8,33.3,31.4,32,36.4,32z M44,63.9c0,1.5-3.1,3.1-7.6,3.1c-4.5,0-7.6-1.6-7.6-3.1l0-28.1c2,1.1,5.3,1.4,7.6,1.4
				c0.2,0,0.4,0,0.5,0c2.1,0,5.2-0.4,7.1-1.4L44,63.9z"/>
		</g>
		<g>
			<path d="M15.9,39.1c-4.4,0-9.1,1.1-9.1,3.4c0,0,0,0,0,0l0,21.4C6.8,70,25,70,25,63.9l0-21.4l0,0C25,39.7,18.8,39.1,15.9,39.1z
				 M15.9,40.6c10,0,9.9,3.8,0,3.8v0c0,0,0,0,0,0v0c-3.3,0-7.6-0.9-7.6-1.9C8.3,41.9,10.9,40.6,15.9,40.6z M23.5,63.9
				c0,1.5-3.1,3.1-7.6,3.1c-4.5,0-7.6-1.6-7.6-3.1l0-19.5c2,1.1,5.4,1.4,7.6,1.4c2.2,0,5.6-0.3,7.6-1.4L23.5,63.9z"/>
		</g>
		<g>
			<path d="M15.9,36.7c4.1,0,7.5-3.4,7.5-7.5c0-4.1-3.4-7.5-7.5-7.5c-4.1,0-7.5,3.4-7.5,7.5C8.4,33.4,11.7,36.7,15.9,36.7z
				 M11.8,25.2c1.1-1.1,2.5-1.7,4-1.7c3.1,0,5.7,2.6,5.7,5.7c0,3.1-2.6,5.7-5.7,5.7c-3.1,0-5.7-2.6-5.7-5.7
				C10.2,27.7,10.8,26.3,11.8,25.2z"/>
		</g>
		<g>
			<path d="M36.4,27.7c4.1,0,7.4-3.3,7.4-7.4c0-4.1-3.3-7.4-7.4-7.4c-4.1,0-7.4,3.3-7.4,7.4C29.1,24.4,32.4,27.7,36.4,27.7z
				 M32.5,16.4c1.1-1.1,2.5-1.6,4-1.6c3.1,0,5.6,2.5,5.6,5.6c0,3.1-2.5,5.6-5.6,5.6c-3.1,0-5.6-2.5-5.6-5.6
				C30.8,18.8,31.4,17.4,32.5,16.4z"/>
		</g>
		<g>
			<path d="M56.7,19.6c4.6,0,8.4-3.8,8.4-8.4c0-4.6-3.8-8.4-8.4-8.4c-4.6,0-8.4,3.8-8.4,8.4S52.1,19.6,56.7,19.6z M56.7,4.7
				c3.5,0,6.4,2.9,6.4,6.4s-2.9,6.4-6.4,6.4c-3.5,0-6.4-2.9-6.4-6.4C50.3,7.6,53.2,4.7,56.7,4.7z"/>
		</g>
	</g>
	<g>
		<path class="st3" d="M56.4,15.9v-0.8c-1.1-0.1-2-0.5-2.8-1.3l0.8-1c0.6,0.6,1.3,0.9,2,1l0-2.2c-0.9-0.2-1.5-0.5-1.9-0.8
			c-0.4-0.3-0.6-0.8-0.6-1.5c0-0.7,0.2-1.2,0.7-1.6c0.5-0.4,1.1-0.7,1.8-0.7V6.4l0.7,0v0.6C58,7,58.8,7.3,59.6,7.8l-0.8,1.1
			c-0.5-0.4-1.1-0.6-1.7-0.7l0,2.2h0c0.9,0.2,1.5,0.5,2,0.8c0.4,0.4,0.6,0.9,0.6,1.5c0,0.7-0.2,1.2-0.7,1.6
			c-0.5,0.4-1.1,0.7-1.9,0.7v0.8L56.4,15.9z M55.6,8.5c-0.2,0.2-0.3,0.4-0.3,0.6c0,0.3,0.1,0.5,0.2,0.6c0.2,0.1,0.4,0.3,0.9,0.4l0-2
			C56.1,8.2,55.8,8.3,55.6,8.5z M58.1,13.5c0.2-0.2,0.3-0.4,0.3-0.7c0-0.3-0.1-0.5-0.3-0.6c-0.2-0.2-0.5-0.3-0.9-0.4l0,2.1
			C57.6,13.8,57.9,13.7,58.1,13.5z"/>
	</g>
</g>
</svg>
