<?xml version="1.0" encoding="utf-8"?>
<!-- Generator: Adobe Illustrator 24.3.0, SVG Export Plug-In . SVG Version: 6.00 Build 0)  -->
<svg version="1.1" id="圖層_1" xmlns="http://www.w3.org/2000/svg" xmlns:xlink="http://www.w3.org/1999/xlink" x="0px" y="0px"
	 viewBox="0 0 62 74.1" style="enable-background:new 0 0 62 74.1;" xml:space="preserve">
<style type="text/css">
	.st0{fill:#9B4F24;}
	.st1{fill:url(#SVGID_1_);}
	.st2{fill:#C2621B;}
	.st3{fill:url(#SVGID_2_);}
	.st4{fill:url(#SVGID_3_);}
	.st5{fill:url(#SVGID_4_);}
	.st6{fill:url(#SVGID_5_);}
	.st7{fill:url(#SVGID_6_);}
	.st8{fill:#D8B8A0;}
	.st9{fill:url(#SVGID_7_);}
	.st10{fill:url(#SVGID_8_);}
	.st11{fill:url(#SVGID_9_);}
	.st12{fill:#E9D3B3;}
	.st13{fill:url(#SVGID_10_);}
	.st14{fill:url(#SVGID_11_);}
</style>
<g>
	<path class="st0" d="M44.6,57.8h-1.3c0,0,2-23.3-10.7-23.3h-2.5c-12.7,0-10.7,23.3-10.7,23.3h-3l-3-28.2h35.9l-3,28.2H44.6z"/>
	<linearGradient id="SVGID_1_" gradientUnits="userSpaceOnUse" x1="62.8291" y1="27.778" x2="51.4275" y2="27.778">
		<stop  offset="0.1438" style="stop-color:#F9D78B"/>
		<stop  offset="0.9721" style="stop-color:#E3A120"/>
	</linearGradient>
	<path class="st1" d="M60.6,26.5c1.9,0,1.7,1.6,0.7,2.5l0,0l-9.1,0c0.2-0.8,0.3-1.7,0.2-2.6h7.5H60.6z"/>
	<path class="st2" d="M52.1,29.1l9.1,0l0,0c-0.4,0.3-0.8,0.5-1.4,0.5h-0.9H3.8H1.4c-0.3,0-0.6-0.1-0.9-0.4l40.8-0.1L52.1,29.1z"/>
	<linearGradient id="SVGID_2_" gradientUnits="userSpaceOnUse" x1="3.8081" y1="43.7012" x2="58.9284" y2="43.7012">
		<stop  offset="0.1438" style="stop-color:#F9D78B"/>
		<stop  offset="0.9721" style="stop-color:#E3A120"/>
	</linearGradient>
	<path class="st3" d="M51.7,57.8h-2c0,0,3-23.3-16.4-23.3h-3.9C10,34.6,13,57.8,13,57.8H8.4L3.8,29.6h55.1l-4.6,28.2H51.7z"/>
	<linearGradient id="SVGID_3_" gradientUnits="userSpaceOnUse" x1="57.175" y1="59.035" x2="50.6521" y2="59.035">
		<stop  offset="0.1438" style="stop-color:#F9D78B"/>
		<stop  offset="0.9721" style="stop-color:#E3A120"/>
	</linearGradient>
	<path class="st4" d="M55.2,57.8c1.5,0,1.4,1.5,0.6,2.4h0h-4.1c0.3-0.8,0.3-1.6,0-2.4h2.6H55.2z"/>
	<path class="st2" d="M51.7,60.2h4.1c-0.3,0.4-0.7,0.7-1.2,0.7h-0.7H9H6.7c-0.4,0-0.7-0.3-0.9-0.7h35.8H51.7z"/>
	<linearGradient id="SVGID_4_" gradientUnits="userSpaceOnUse" x1="9.0266" y1="66.9014" x2="53.8922" y2="66.9014">
		<stop  offset="0" style="stop-color:#E68646"/>
		<stop  offset="0.2682" style="stop-color:#DB4E27"/>
		<stop  offset="0.3949" style="stop-color:#D44832"/>
		<stop  offset="0.6474" style="stop-color:#C23748"/>
		<stop  offset="1" style="stop-color:#A41564"/>
	</linearGradient>
	<path class="st5" d="M53.9,60.9l-1.6,6.8c-13.9,6.9-27.7,7-41.4,0L9,60.9H53.9z"/>
	<path class="st2" d="M52.4,26.5c0.1,0.9,0,1.7-0.2,2.6l-10.8,0c0.2-0.8,0.2-1.7,0-2.6H52.4z"/>
	<path class="st2" d="M51.7,57.8c0.2,0.8,0.2,1.6,0,2.4H41.6c0.4-0.8,0.5-1.6,0.4-2.4h7.7H51.7z"/>
	<linearGradient id="SVGID_5_" gradientUnits="userSpaceOnUse" x1="5.3066" y1="59.035" x2="42.016" y2="59.035">
		<stop  offset="0.1438" style="stop-color:#F9D78B"/>
		<stop  offset="0.9721" style="stop-color:#E3A120"/>
	</linearGradient>
	<path class="st6" d="M42,57.8c0.1,0.8-0.1,1.7-0.4,2.4H5.7c-0.6-0.9-0.7-2.4,0.4-2.4h2.3H13H42z"/>
	<linearGradient id="SVGID_6_" gradientUnits="userSpaceOnUse" x1="-0.3135" y1="27.853" x2="41.4226" y2="27.853">
		<stop  offset="0.1438" style="stop-color:#F9D78B"/>
		<stop  offset="0.9721" style="stop-color:#E3A120"/>
	</linearGradient>
	<path class="st7" d="M41.3,26.5c0.2,0.8,0.2,1.7,0,2.6L0.5,29.2c-0.9-0.8-1.3-2.7,0.2-2.7h1.1h19.6h18.9H41.3z"/>
	<path class="st8" d="M3.8,29.6h55.1l-0.5,2.9l-3.8,1l-2.2,24.3h-2.7c0.4-3.3,0.2-6.7-0.6-10.2l-0.7-13.2l-44.3-3L3.8,29.6z"/>
	<polygon class="st8" points="9,60.9 53.9,60.9 53.4,63.8 49.3,65.3 47.8,69.7 43.2,71.3 40.8,65.2 9.4,62.8 	"/>
	<linearGradient id="SVGID_7_" gradientUnits="userSpaceOnUse" x1="5.6154" y1="58.5334" x2="40.9081" y2="58.5334">
		<stop  offset="0" style="stop-color:#D2BA73"/>
		<stop  offset="0.1026" style="stop-color:#C5AD6C"/>
		<stop  offset="0.2821" style="stop-color:#A18C59"/>
		<stop  offset="0.5173" style="stop-color:#6C5C3E"/>
		<stop  offset="0.7959" style="stop-color:#2E281E"/>
		<stop  offset="1" style="stop-color:#040000"/>
	</linearGradient>
	<polygon class="st9" points="6,58 40.9,58 40.5,59 5.6,59 	"/>
	<linearGradient id="SVGID_8_" gradientUnits="userSpaceOnUse" x1="7.520523e-02" y1="27.4961" x2="40.4635" y2="27.4961">
		<stop  offset="0" style="stop-color:#D2BA73"/>
		<stop  offset="0.1026" style="stop-color:#C5AD6C"/>
		<stop  offset="0.2821" style="stop-color:#A18C59"/>
		<stop  offset="0.5173" style="stop-color:#6C5C3E"/>
		<stop  offset="0.7959" style="stop-color:#2E281E"/>
		<stop  offset="1" style="stop-color:#040000"/>
	</linearGradient>
	<polygon class="st10" points="0.5,26.8 40.5,26.8 40.5,28.1 0.1,28.1 	"/>
	<linearGradient id="SVGID_9_" gradientUnits="userSpaceOnUse" x1="10.3323" y1="55.6061" x2="8.4171" y2="32.146">
		<stop  offset="0" style="stop-color:#D2BA73"/>
		<stop  offset="0.1026" style="stop-color:#C5AD6C"/>
		<stop  offset="0.2821" style="stop-color:#A18C59"/>
		<stop  offset="0.5173" style="stop-color:#6C5C3E"/>
		<stop  offset="0.7959" style="stop-color:#2E281E"/>
		<stop  offset="1" style="stop-color:#040000"/>
	</linearGradient>
	<polygon class="st11" points="5.3,32.4 9.3,57.8 11.1,57.8 11.6,32.8 	"/>
	<polygon class="st12" points="3.8,26.5 25.5,12.8 36.7,12.8 58.9,26.5 	"/>
	<linearGradient id="SVGID_10_" gradientUnits="userSpaceOnUse" x1="14.2372" y1="19.6745" x2="49.0992" y2="19.6745">
		<stop  offset="0" style="stop-color:#E68646"/>
		<stop  offset="0.2682" style="stop-color:#DB4E27"/>
		<stop  offset="0.3949" style="stop-color:#D44832"/>
		<stop  offset="0.6474" style="stop-color:#C23748"/>
		<stop  offset="1" style="stop-color:#A41564"/>
	</linearGradient>
	<path class="st13" d="M27.8,12.8l-5.4,13.7H3.8l21.7-13.7H27.8z M34.5,12.8l5.8,13.7h18.6L36.9,12.8H34.5z"/>
	<linearGradient id="SVGID_11_" gradientUnits="userSpaceOnUse" x1="22.448" y1="10.3181" x2="39.3991" y2="10.3181">
		<stop  offset="0.1438" style="stop-color:#F9D78B"/>
		<stop  offset="0.9721" style="stop-color:#E3A120"/>
	</linearGradient>
	<path class="st14" d="M34.7,17.9c-1.1,0.6-2.4,0.9-3.8,0.9c-1.3,0-2.6-0.3-3.7-0.8c-2.8-1.4-4.8-4.3-4.8-7.6c0-4.7,3.8-8.5,8.5-8.5
		c4.7,0,8.5,3.8,8.5,8.5C39.4,13.6,37.5,16.5,34.7,17.9z"/>
	<path class="st2" d="M32.9,14.2c-0.6,0.3-1.2,0.5-1.9,0.5c-0.7,0-1.3-0.2-1.9-0.4c-1.4-0.7-2.4-2.2-2.4-3.9c0-2.4,1.9-4.3,4.3-4.3
		c2.4,0,4.3,1.9,4.3,4.3C35.2,12,34.3,13.5,32.9,14.2z"/>
</g>
</svg>
