<?xml version="1.0" encoding="utf-8"?>
<!-- Generator: Adobe Illustrator 24.3.0, SVG Export Plug-In . SVG Version: 6.00 Build 0)  -->
<svg version="1.1" id="圖層_1" xmlns="http://www.w3.org/2000/svg" xmlns:xlink="http://www.w3.org/1999/xlink" x="0px" y="0px"
	 viewBox="0 0 198.5 198.8" style="enable-background:new 0 0 198.5 198.8;" xml:space="preserve">
<style type="text/css">
	.st0{fill:#ECD5B4;}
	.st1{fill:url(#SVGID_1_);}
	.st2{fill:url(#SVGID_2_);}
	.st3{fill:#AE0F6A;}
	.st4{fill:url(#SVGID_3_);}
</style>
<g>
	<g>
		<path class="st0" d="M42.7,53.2L25.9,38.9c-1.7-1.3,0.2-3.8,1.9-2.5l17.1,15.4L42.7,53.2z M76,30.9L69,9c-0.8-2-3.7-0.7-2.9,1.2
			L73.4,31L76,30.9z M113.3,28.3L118,5.8c0.2-2.1-2.9-2.5-3.1-0.4l-4,21.7L113.3,28.3z M147.3,45l15.5-17c1.3-1.7-1.2-3.6-2.5-1.9
			l-14.4,16.7L147.3,45z M168,75.7l21.9-7.2c2-0.9,0.7-3.7-1.2-2.9l-20.8,7.4L168,75.7z M170.7,113.3l22.5,4.8
			c2.1,0.2,2.5-2.9,0.4-3.1l-21.7-4L170.7,113.3z M153.9,147.4l17,15.5c1.7,1.3,3.6-1.2,1.9-2.5L156.2,146L153.9,147.4z M123.4,168
			l7.2,21.9c0.9,2,3.7,0.7,2.9-1.3l-7.5-20.7L123.4,168z M86,170.7l-4.7,22.5c-0.2,2.1,2.9,2.5,3.1,0.4l3.9-21.7L86,170.7z
			 M52,154.3l-15.4,17.1c-1.3,1.7,1.2,3.6,2.5,1.9l14.3-16.8L52,154.3z M31,123.2l-21.9,7.1c-2,0.9-0.7,3.7,1.2,2.9l20.7-7.4
			L31,123.2z M28.3,86.1L5.7,81.5c-2.1-0.2-2.5,2.9-0.3,3.1l21.7,3.8L28.3,86.1z"/>
		<g>
			<path class="st0" d="M86.4,172.5c-0.4-0.2-0.6-0.6-0.6-1l3.9-50.9l-36.4,35.7c-0.4,0.4-1,0.4-1.4,0.1c-0.4-0.4-0.5-1-0.2-1.4
				l28.8-42.1L31,125.6c-0.5,0.1-1.1-0.2-1.3-0.7c-0.2-0.5,0-1.1,0.5-1.3l46-22.1L27.2,87.9c-0.5-0.1-0.9-0.7-0.8-1.2
				c0.1-0.5,0.6-0.9,1.1-0.9l50.9,3.9L42.7,53.2c-0.4-0.4-0.4-1-0.1-1.4c0.4-0.4,1-0.5,1.4-0.2l42.1,28.8L73.4,31
				c-0.1-0.5,0.2-1.1,0.7-1.3c0.5-0.2,1.1,0,1.3,0.5l22.1,46l13.7-49.2c0.1-0.5,0.7-0.9,1.2-0.8c0.5,0.1,0.9,0.6,0.9,1.1l-3.9,50.9
				l36.4-35.7c0.4-0.4,1-0.4,1.4-0.1c0.4,0.4,0.5,1,0.2,1.4l-28.8,42.1L168,73.4c0.5-0.1,1.1,0.1,1.3,0.7c0.2,0.5,0,1.1-0.5,1.3
				l-46,22.1l49.2,13.7c0.5,0.1,0.9,0.7,0.8,1.2c-0.1,0.5-0.6,0.9-1.1,0.9l-50.9-3.9l35.7,36.4c0.4,0.4,0.4,1,0.1,1.4
				c-0.4,0.4-1,0.5-1.4,0.2l-42.1-28.8l12.7,49.4c0.1,0.5-0.2,1.1-0.7,1.3c-0.5,0.2-1.1,0-1.3-0.5l-22.1-46l-13.7,49.2
				c-0.1,0.5-0.7,0.9-1.2,0.8C86.6,172.6,86.5,172.6,86.4,172.5z M91.4,116.9c0.4,0.2,0.6,0.6,0.6,1l-3.3,42.9l11.5-41.4
				c0.1-0.4,0.5-0.7,0.9-0.8c0.4,0,0.9,0.2,1.1,0.6l18.6,38.8l-10.7-41.6c-0.1-0.4,0.1-0.9,0.4-1.1c0.4-0.3,0.8-0.3,1.2,0l35.5,24.3
				l-30.1-30.7c-0.3-0.3-0.4-0.8-0.2-1.2c0.2-0.4,0.6-0.6,1-0.6l42.9,3.3l-41.4-11.5c-0.4-0.1-0.7-0.5-0.8-0.9
				c0-0.4,0.2-0.9,0.6-1.1L158,78.2l-41.6,10.7c-0.4,0.1-0.9-0.1-1.1-0.4c-0.3-0.4-0.3-0.8,0-1.2l24.3-35.5l-30.7,30.1
				c-0.3,0.3-0.8,0.4-1.2,0.2c-0.4-0.2-0.6-0.6-0.6-1l3.3-42.9L98.8,79.6c-0.1,0.4-0.5,0.7-0.9,0.8c-0.4,0-0.9-0.2-1.1-0.6L78.2,41
				l10.7,41.6c0.1,0.4-0.1,0.9-0.4,1.1c-0.4,0.3-0.8,0.3-1.2,0L51.8,59.5l30.1,30.7c0.3,0.3,0.4,0.8,0.2,1.2c-0.2,0.4-0.6,0.6-1,0.6
				l-42.9-3.3l41.4,11.5c0.4,0.1,0.7,0.5,0.8,0.9c0,0.4-0.2,0.9-0.6,1.1L41,120.8l41.6-10.7c0.4-0.1,0.9,0.1,1.1,0.4
				c0.3,0.4,0.3,0.8,0,1.2l-24.3,35.5l30.7-30.1C90.5,116.8,91,116.7,91.4,116.9z"/>
		</g>
		<g>
			<path class="st0" d="M48,180.6C48,180.6,48,180.6,48,180.6c-0.2-0.1-0.3-0.4-0.3-0.6l4.1-23.6l-22.5,8.1c-0.2,0.1-0.4,0-0.6-0.1
				c-0.1-0.2-0.2-0.4-0.1-0.6l10-21.7l-23.8,2c-0.2,0-0.4-0.1-0.5-0.3c-0.1-0.2-0.1-0.4,0.1-0.6L29.7,125l-23.6-4.2
				c-0.2,0-0.4-0.2-0.4-0.4c0-0.2,0-0.4,0.2-0.5L25.5,106L3.8,95.9c-0.2-0.1-0.3-0.3-0.3-0.5c0-0.2,0.1-0.4,0.3-0.5l22.5-8.3L8,71.2
				c-0.2-0.1-0.2-0.4-0.2-0.6c0.1-0.2,0.2-0.3,0.5-0.4l23.8-2.2L18.4,48.5c-0.1-0.2-0.1-0.4,0-0.6c0.1-0.2,0.3-0.3,0.5-0.2l23.6,4.1
				l-8.1-22.5c-0.1-0.2,0-0.4,0.1-0.6c0.2-0.1,0.4-0.2,0.6-0.1l21.7,10l-2-23.8c0-0.2,0.1-0.4,0.3-0.5c0.2-0.1,0.4-0.1,0.6,0.1
				L74,29.7l4.2-23.6c0-0.2,0.2-0.4,0.4-0.4c0.2,0,0.4,0,0.5,0.2L93,25.5l10.1-21.7c0.1-0.2,0.3-0.3,0.5-0.3c0.2,0,0.4,0.1,0.5,0.3
				l8.3,22.5L127.8,8c0.1-0.2,0.4-0.2,0.6-0.2c0.2,0.1,0.4,0.2,0.4,0.5l2.2,23.8l19.6-13.7c0.2-0.1,0.4-0.1,0.6,0
				c0.2,0.1,0.3,0.3,0.2,0.5l-4.1,23.6l22.5-8.1c0.2-0.1,0.4,0,0.6,0.1c0.1,0.2,0.2,0.4,0.1,0.6l-10,21.7l23.8-2
				c0.2,0,0.4,0.1,0.5,0.3c0.1,0.2,0.1,0.4-0.1,0.6L169.3,74l23.6,4.2c0.2,0,0.4,0.2,0.4,0.4c0,0.2,0,0.4-0.2,0.5L173.5,93
				l21.7,10.1c0.2,0.1,0.3,0.3,0.3,0.5c0,0.2-0.1,0.4-0.3,0.5l-22.5,8.3l18.3,15.4c0.2,0.1,0.2,0.4,0.2,0.6
				c-0.1,0.2-0.2,0.4-0.5,0.4l-23.8,2.2l13.7,19.6c0.1,0.2,0.1,0.4,0,0.6c-0.1,0.2-0.3,0.3-0.5,0.2l-23.6-4.1l8.1,22.5
				c0.1,0.2,0,0.4-0.1,0.6c-0.2,0.1-0.4,0.2-0.6,0.1l-21.7-10l2,23.8c0,0.2-0.1,0.4-0.3,0.5c-0.2,0.1-0.4,0.1-0.6-0.1L125,169.3
				l-4.2,23.6c0,0.2-0.2,0.4-0.4,0.4c-0.2,0-0.4,0-0.5-0.2L106,173.5l-10.1,21.7c-0.1,0.2-0.3,0.3-0.5,0.3c-0.2,0-0.4-0.1-0.5-0.3
				l-8.3-22.5L71.3,191c-0.1,0.2-0.4,0.2-0.6,0.2c-0.2-0.1-0.3-0.2-0.4-0.5l-2.2-23.8l-19.6,13.7C48.4,180.7,48.2,180.7,48,180.6z
				 M52.7,155.2c0,0,0.1,0,0.1,0.1c0.1,0.1,0.2,0.3,0.2,0.5L49,179l19.3-13.5c0.3-0.2,0.8,0,0.8,0.4l2.1,23.5l15.2-18
				c0.1-0.1,0.3-0.2,0.5-0.2c0.2,0,0.3,0.2,0.4,0.3l8.1,22.1l10-21.3c0.1-0.2,0.2-0.3,0.4-0.3c0.2,0,0.4,0.1,0.5,0.2l13.6,19.3
				l4.1-23.2c0-0.2,0.2-0.3,0.3-0.4c0.2-0.1,0.4,0,0.5,0.1l18.1,15.1l-2-23.5c0-0.2,0.1-0.4,0.2-0.5c0.2-0.1,0.4-0.1,0.5,0l21.4,9.9
				l-8-22.2c-0.1-0.2,0-0.4,0.1-0.5c0.1-0.1,0.3-0.2,0.5-0.2l23.2,4l-13.5-19.3c-0.1-0.2-0.1-0.4,0-0.5c0.1-0.2,0.2-0.3,0.4-0.3
				l23.5-2.1l-18-15.2c-0.1-0.1-0.2-0.3-0.2-0.5c0-0.2,0.2-0.3,0.3-0.4l22.1-8.1l-21.3-10c-0.2-0.1-0.3-0.2-0.3-0.4
				c0-0.2,0.1-0.4,0.2-0.5L191.4,79l-23.2-4.1c-0.2,0-0.3-0.2-0.4-0.3c-0.1-0.2,0-0.4,0.1-0.5L183,56l-23.5,2
				c-0.2,0-0.4-0.1-0.5-0.2c-0.1-0.2-0.1-0.4,0-0.5l9.9-21.4l-22.2,8c-0.2,0.1-0.4,0-0.5-0.1c-0.1-0.1-0.2-0.3-0.2-0.5l4-23.2
				l-19.3,13.5c-0.3,0.2-0.8,0-0.8-0.4l-2.1-23.5l-15.2,18c-0.1,0.1-0.3,0.2-0.5,0.2c-0.2,0-0.3-0.2-0.4-0.3l-8.1-22.1l-10,21.3
				c-0.1,0.2-0.2,0.3-0.4,0.3c-0.2,0-0.4-0.1-0.5-0.2L79.1,7.6l-4.1,23.2c0,0.2-0.2,0.3-0.3,0.4c-0.2,0.1-0.4,0-0.5-0.1L56,16
				l2,23.5c0,0.2-0.1,0.4-0.2,0.5c-0.2,0.1-0.4,0.1-0.5,0l-21.4-9.9l8,22.2c0.1,0.2,0,0.4-0.1,0.5c-0.1,0.1-0.3,0.2-0.5,0.2L20,49
				l13.5,19.3c0.1,0.2,0.1,0.4,0,0.5c-0.1,0.2-0.2,0.3-0.4,0.3L9.7,71.2l18,15.2c0.1,0.1,0.2,0.3,0.2,0.5c0,0.2-0.2,0.3-0.3,0.4
				L5.4,95.5l21.3,10c0.2,0.1,0.3,0.2,0.3,0.4c0,0.2-0.1,0.4-0.2,0.5L7.6,120l23.2,4.1c0.2,0,0.3,0.2,0.4,0.3c0.1,0.2,0,0.4-0.1,0.5
				L16,143.1l23.5-2c0.2,0,0.4,0.1,0.5,0.2c0.1,0.2,0.1,0.4,0,0.5l-9.9,21.4l22.2-8C52.4,155.1,52.6,155.1,52.7,155.2z"/>
		</g>
		
			<linearGradient id="SVGID_1_" gradientUnits="userSpaceOnUse" x1="-70.1871" y1="145.3853" x2="-24.3055" y2="145.3853" gradientTransform="matrix(0.9066 0.4221 -0.4221 0.9066 203.7114 -12.3586)">
			<stop  offset="0.1438" style="stop-color:#FFDC8B"/>
			<stop  offset="0.9721" style="stop-color:#EBA511"/>
		</linearGradient>
		<path class="st1" d="M109.2,78.7c11.5,5.3,16.5,19,11.1,30.5c-5.3,11.5-19,16.5-30.5,11.1c-11.5-5.3-16.5-19-11.1-30.5
			C84.1,78.3,97.7,73.4,109.2,78.7z M117.8,108c4.7-10.1,0.3-22.1-9.8-26.8C97.9,76.6,86,80.9,81.3,91c-4.7,10.1-0.3,22.1,9.8,26.8
			C101.1,122.4,113.1,118.1,117.8,108z"/>
		
			<radialGradient id="SVGID_2_" cx="-47.2463" cy="145.3852" r="20.1378" gradientTransform="matrix(0.9066 0.4221 -0.4221 0.9066 203.7114 -12.3586)" gradientUnits="userSpaceOnUse">
			<stop  offset="0" style="stop-color:#EF8945"/>
			<stop  offset="0.514" style="stop-color:#E74E23"/>
			<stop  offset="0.6169" style="stop-color:#E34929"/>
			<stop  offset="0.7477" style="stop-color:#D63B38"/>
			<stop  offset="0.893" style="stop-color:#C12452"/>
			<stop  offset="1" style="stop-color:#AE0F6A"/>
		</radialGradient>
		<circle class="st2" cx="99.5" cy="99.5" r="20.1"/>
		<path class="st3" d="M58.6,187.4C10.1,164.8-11,107,11.6,58.6S92-11,140.4,11.6c48.5,22.6,69.6,80.4,47,128.8
			S107.1,210,58.6,187.4z M139.3,14.2C92.2-7.8,36.1,12.7,14.2,59.8c-21.9,47.1-1.4,103.2,45.6,125.1
			c47.1,21.9,103.2,1.4,125.1-45.6C206.8,92.2,186.3,36.1,139.3,14.2z M68,167.2C30.7,149.8,14.4,105.3,31.8,68
			C49.2,30.7,93.7,14.4,131,31.8c37.3,17.4,53.6,61.9,36.2,99.2C149.8,168.3,105.3,184.6,68,167.2z M129.8,34.4
			c-35.9-16.7-78.7-1.1-95.5,34.8c-16.7,35.9-1.1,78.7,34.8,95.5c35.9,16.7,78.7,1.1,95.5-34.8C181.4,93.9,165.8,51.1,129.8,34.4z"
			/>
		<g>
			
				<linearGradient id="SVGID_3_" gradientUnits="userSpaceOnUse" x1="-69.7274" y1="143.6049" x2="-27.6826" y2="143.6049" gradientTransform="matrix(0.9066 0.4221 -0.4221 0.9066 203.7114 -12.3586)">
				<stop  offset="0" style="stop-color:#D7BE74"/>
				<stop  offset="9.817198e-02" style="stop-color:#CCB46E"/>
				<stop  offset="0.27" style="stop-color:#AF9B5E"/>
				<stop  offset="0.4952" style="stop-color:#807145"/>
				<stop  offset="0.7618" style="stop-color:#403822"/>
				<stop  offset="1" style="stop-color:#000000"/>
			</linearGradient>
			<path class="st4" d="M121.8,98.1c0,0,0-0.3-0.1-0.8c0-0.3-0.1-0.6-0.2-1c-0.1-0.4-0.2-0.8-0.3-1.3c-0.1-0.5-0.3-1-0.5-1.6
				c-0.2-0.6-0.5-1.2-0.7-1.9c-0.6-1.3-1.4-2.7-2.4-4.2c-2.1-2.9-5.4-5.9-9.7-7.7c-2.2-0.9-4.6-1.4-7.2-1.5
				c-2.6-0.1-5.2,0.3-7.8,1.1c-2.6,0.9-4.9,2.1-7,3.7c-2,1.6-3.7,3.5-4.9,5.5c-2.5,4-3.3,8.4-3.3,12c0,1.8,0.2,3.4,0.5,4.8
				c0.2,0.7,0.3,1.3,0.5,1.9c0.2,0.6,0.4,1.1,0.6,1.6c0.2,0.5,0.4,0.9,0.5,1.2c0.2,0.4,0.3,0.6,0.5,0.9c0.3,0.5,0.4,0.7,0.4,0.7
				s-0.1-0.2-0.4-0.7c-0.1-0.2-0.3-0.5-0.5-0.9c-0.2-0.4-0.4-0.8-0.6-1.2c-0.2-0.5-0.4-1-0.6-1.6c-0.2-0.6-0.4-1.2-0.6-1.9
				c-0.4-1.4-0.6-3.1-0.7-4.9c-0.1-3.7,0.6-8.2,3.1-12.4c1.2-2.1,2.9-4.1,5-5.8c2.1-1.7,4.6-3,7.3-3.9c2.7-0.9,5.5-1.2,8.2-1.1
				c2.7,0.1,5.2,0.7,7.5,1.7c4.5,2,7.8,5.2,9.8,8.2c1,1.5,1.8,3,2.3,4.4c0.3,0.7,0.5,1.3,0.7,1.9c0.2,0.6,0.3,1.1,0.4,1.6
				c0.1,0.5,0.2,0.9,0.2,1.3c0.1,0.4,0.1,0.7,0.1,1C121.7,97.8,121.8,98.1,121.8,98.1z"/>
		</g>
	</g>
</g>
</svg>
