<?xml version="1.0" encoding="utf-8"?>
<!-- Generator: Adobe Illustrator 24.3.0, SVG Export Plug-In . SVG Version: 6.00 Build 0)  -->
<svg version="1.1" id="圖層_1" xmlns="http://www.w3.org/2000/svg" xmlns:xlink="http://www.w3.org/1999/xlink" x="0px" y="0px"
	 viewBox="0 0 201 200.8" style="enable-background:new 0 0 201 200.8;" xml:space="preserve">
<style type="text/css">
	.st0{fill:#E9B17E;}
	.st1{clip-path:url(#SVGID_2_);}
	.st2{fill:#F9C99B;}
	.st3{fill:#FFFFFF;}
	.st4{fill:#86A2CB;}
	.st5{fill:#936747;}
	.st6{fill:#41312A;}
</style>
<path class="st0" d="M285.1,226.6c-1.4,0.5-1.9,1.7-1.9,2.3C285.4,228.1,287.1,225.9,285.1,226.6z"/>
<g>
	<defs>
		<circle id="SVGID_1_" cx="105.5" cy="92.4" r="95.4"/>
	</defs>
	<clipPath id="SVGID_2_">
		<use xlink:href="#SVGID_1_"  style="overflow:visible;"/>
	</clipPath>
	<g class="st1">
		<path class="st0" d="M124.1,218.6c-1.3-23.3-2.4-38.7,7.9-68.5c-5.1-12-49.2-30.2-49.2-30.2l-2,30.2c0,0,0.5,17.4-18.3,55
			C73.6,218.6,107,214.3,124.1,218.6z"/>
		<path class="st2" d="M75.8,113.8c12.3,36.7,47.2,45,64.5,47.5c6.4,0.9,22,2.2,19.6-11.3c-1-5.5,8.8-4.8,5.2-11.9
			c1.8-1.4,4.1-2.9,2.5-5c-1.4-1.8-1.9-3.5-0.2-5.6c2.9-3.5,9.7-5,8.1-9.1c-0.9-2.3-1.6-4.2-3.7-8.3c-2.1-4.2-4-9.5-5.4-13.7
			c-2.2-6.2,3.4-12.8,1.7-17.7c-12.3-36.7-43.6-59.2-70-50.4C71.7,37.2,63.6,77.2,75.8,113.8z"/>
		<path class="st2" d="M108.7,99.3c0,0-9.8-15.7-19.5-4.1c-9.8,11.6,4.4,25.4,4.4,25.4L108.7,99.3z"/>
		<path class="st0" d="M89.2,101.8c0,0,0.4-6.4,7.3-6.4c4.9,0,7.8,2.6,7.1,4.5c-0.7,1.8-3.1,2.7-4,5.2c-0.9,2.4-4.5,7.5-4.5,7.5
			s-0.5-3.9-0.2-6.1c0.4-3.6,3.4-6.4,3.4-6.4S91.9,97,89.2,101.8z"/>
		<path class="st0" d="M165.1,138.4c0,0-2.7-0.7-5.6-1.1c-2.8-0.3-6-0.1-6-0.1s2.7,2.8,6.5,2.6C161.8,139.8,165.1,138.4,165.1,138.4
			z"/>
		<g>
			<path class="st3" d="M143.7,102.6c0,0,8.3,1.2,11.3,0c2.3-0.9,3-1.7,2.6-5.8c-0.3-3.2-1.5-5-1.5-5S147.4,95,143.7,102.6z"/>
			<path class="st4" d="M158,96.2c0.2,2.7-1.1,5.1-3,5.2c-1.9,0.2-3.6-1.9-3.8-4.7c-0.2-2.7,1.1-5.1,3-5.2
				C156.1,91.4,157.8,93.5,158,96.2z"/>
			<path class="st5" d="M156.7,97.4c0.1,1.2-0.4,2.2-1.2,2.2c-0.8,0.1-1.5-0.8-1.6-2c-0.1-1.2,0.4-2.2,1.2-2.2
				C155.9,95.4,156.6,96.3,156.7,97.4z"/>
			<path class="st3" d="M156.7,95.9c0.1,0.8-0.4,1.4-1,1.5c-0.6,0-1.1-0.5-1.2-1.3c-0.1-0.8,0.4-1.4,1-1.5
				C156.1,94.6,156.6,95.1,156.7,95.9z"/>
			<path class="st5" d="M143.7,102.6c0,0,0.7-6.4,9-10.6c1.7-0.8,3.9-1.3,5-1.6c0.4,0.9,0,2.3-0.6,3.1c-1.9,0.7-3.2,0.6-4.9,1.7
				C147.7,98,143.7,102.6,143.7,102.6z"/>
			<path class="st5" d="M138.9,98.2c0,0,2.6-9.8,9.9-14c7.4-4.3,13.2-5.1,15.1-5.1c2.9,0,0.6,2.6-1.7,3.8c-2.4,1.3-5.3,1.1-11.3,4.3
				C146.9,89.4,138.9,98.2,138.9,98.2z"/>
		</g>
		<path class="st5" d="M157.7,90.4c0,0,1.3,2,2.7,2.5c1.5,0.4,3.4,0.3,3.4,0.3s-1.6,1.6-4.5,0.9c-2.9-0.6-3.7-1.8-3.7-1.8
			L157.7,90.4z"/>
		<path class="st6" d="M121.9,74.5c0,0-7.6,30.6-11,48c-3.6,18.2-3.6,46.6-3.6,46.6s-61.3,6.2-80.6-32c-4.1-8.2,3.3-79.3,27.1-107.5
			c23.8-28.2,59.5-5.7,59.5-5.7s13.7-5.9,32.1,2.5c18.5,8.5,28.9,32.9,28.9,32.9S154,69.1,145.5,72
			C130.8,76.8,121.9,74.5,121.9,74.5z"/>
		<path class="st4" d="M124,21.9c-3.6,2.9-11.3,15.7-15.7,24.6c-4.5,8.9-10.4,36.9-10.4,36.9s-6.3-22.9,0.5-42.5
			C105,21.1,113.6,14.5,124,21.9z"/>
		<path class="st6" d="M112.6,104.5c0,0-0.8,30.1-0.2,42.3c0.6,12.2,4.1,22.6,4.1,22.6s-9.5-16-9.7-33.9
			C106.5,117.6,112.6,104.5,112.6,104.5z"/>
	</g>
</g>
</svg>
