<?xml version="1.0" encoding="utf-8"?>
<!-- Generator: Adobe Illustrator 24.3.0, SVG Export Plug-In . SVG Version: 6.00 Build 0)  -->
<svg version="1.1" id="圖層_1" xmlns="http://www.w3.org/2000/svg" xmlns:xlink="http://www.w3.org/1999/xlink" x="0px" y="0px"
	 viewBox="0 0 76.9 72.3" style="enable-background:new 0 0 76.9 72.3;" xml:space="preserve">
<style type="text/css">
	.st0{fill:#F9F44B;}
	.st1{fill:#FEDA7C;}
	.st2{fill:#EF5526;}
	.st3{fill:#040000;}
	.st4{fill:#F9F7F7;}
	.st5{font-family:'H-LiHei-Bold';}
	.st6{font-size:18.0372px;}
</style>
<path class="st0" d="M34.4,9.9c0,0-16.2,0.7-18.1,12.1s0.1,18.5-5.9,25.1S2.9,58.7,2.9,58.7l56.4-1.9c0,0-10.2-13.1-9.1-25.2
	S48.8,11.2,34.4,9.9z"/>
<path class="st1" d="M22,56.8l21.8,0.4c0,0-0.8,9.5-12.2,10.2C31.7,67.4,22.1,65.8,22,56.8z"/>
<g>
	<path d="M63.9,56c-0.1-0.1-10.6-8.5-10.6-20.8c0-11.2-1-22.4-12.8-25.6c-0.4-4.3-4.1-7.3-8.3-6.9c-3.7,0.3-6.5,3.2-6.9,6.9
		c-11.8,3.2-12.8,14.3-12.8,25.6C12.5,47.5,2,56,1.9,56c-0.7,0.6-0.8,1.5-0.2,2.1c0.3,0.3,0.7,0.6,1.2,0.6h18.3
		C22,65.3,28,69.9,34.5,69.1c5.4-0.7,9.7-4.9,10.4-10.4h18.3c0.8,0,1.5-0.7,1.5-1.5C64.5,56.8,64.2,56.3,63.9,56z M32.9,5.6
		c2,0,3.9,1.3,4.5,3.2c-0.1,0-0.2,0-0.3,0c-0.4-0.1-1-0.1-1.5-0.1c-0.2,0-0.3,0-0.6,0c-0.7,0-1.3-0.1-2.1-0.1s-1.5,0-2.1,0.1
		c-0.2,0-0.3,0-0.6,0c-0.6,0-1,0.1-1.6,0.1c-0.1,0-0.2,0-0.3,0C29,6.8,30.8,5.6,32.9,5.6z M32.9,66.2c-4.4,0-8.1-3.1-8.8-7.5h17.7
		C41,63,37.3,66.2,32.9,66.2z M43.3,55.7H6.6c3.5-3.7,9-11,9-20.6c0-13.3,1.9-20.9,11.8-23.1c1.9-0.3,3.8-0.6,5.7-0.6
		s3.8,0.1,5.7,0.6c9.6,2.1,11.5,9.7,11.5,23.2c0,9.6,5.5,16.9,9,20.6L43.3,55.7L43.3,55.7z"/>
</g>
<g>
	<circle class="st2" cx="63.1" cy="58.2" r="12"/>
</g>
<g>
	<path class="st3" d="M63.1,71.1c-7.2,0-12.9-5.8-12.9-12.9S56,45.3,63.1,45.3c7.2,0,12.9,5.8,12.9,12.9S70.3,71.1,63.1,71.1z
		 M63.1,47.1c-6.2,0-11.1,5-11.1,11.1c0,6.2,5,11.1,11.1,11.1c6.2,0,11.1-5,11.1-11.1C74.3,52.1,69.3,47.1,63.1,47.1z"/>
</g>
<text transform="matrix(1.4199 0 0 1 58.3 66.2)" class="st4 st5 st6">!</text>
<g>
	<g>
		<path class="st3" d="M57.1,26.8c0.4,0.1,0.9,0.1,1.2,0.2c0.1-2.2-0.1-4.6-0.6-6.9c-1-4.8-3.4-9.1-6.5-12.5
			c-0.2,0.3-0.6,0.7-0.9,0.9c3,3.2,5.2,7.3,6.2,12C57,22.5,57.1,24.6,57.1,26.8z"/>
	</g>
</g>
<g>
	<g>
		<path class="st3" d="M61,26.1c0.6,0.1,1,0.2,1.6,0.2c0-2.7-0.2-5.5-0.9-8.3c-1.5-5.7-4.3-10.7-8.2-14.8c-0.3,0.4-0.7,0.8-1.1,1.1
			c3.7,3.8,6.4,8.6,7.7,14.1C60.8,21.1,61,23.6,61,26.1z"/>
	</g>
</g>
<g>
	<g>
		<path class="st3" d="M8.5,26c-0.4,0-0.9,0.1-1.2,0.1c0.2-2.2,0.7-4.6,1.5-6.8c1.6-4.7,4.4-8.6,8-11.6c0.2,0.3,0.4,0.7,0.8,1
			c-3.4,2.9-6,6.6-7.5,11.1C9,21.7,8.6,23.9,8.5,26z"/>
	</g>
</g>
<g>
	<g>
		<path class="st3" d="M4.6,24.9c-0.6,0-1,0-1.6,0.1c0.2-2.7,0.9-5.5,1.9-8.2C7,11.2,10.4,6.6,14.7,3c0.2,0.4,0.6,0.9,0.9,1.2
			c-4,3.4-7.4,7.7-9.3,13.1C5.5,19.8,4.9,22.3,4.6,24.9z"/>
	</g>
</g>
</svg>
