<?xml version="1.0" encoding="utf-8"?>
<!-- Generator: Adobe Illustrator 24.3.0, SVG Export Plug-In . SVG Version: 6.00 Build 0)  -->
<svg version="1.1" id="圖層_1" xmlns="http://www.w3.org/2000/svg" xmlns:xlink="http://www.w3.org/1999/xlink" x="0px" y="0px"
	 viewBox="0 0 150.6 161" style="enable-background:new 0 0 150.6 161;" xml:space="preserve">
<style type="text/css">
	.st0{fill:#FFA412;}
	.st1{fill:#FFB93E;}
	.st2{fill:#FA9712;}
	.st3{fill:#F99746;}
	.st4{fill:#ED7D2B;}
	.st5{fill:#FFC261;}
	.st6{fill:#4A75CB;}
	.st7{fill:#739AF0;}
	.st8{fill:#AFCDFB;}
	.st9{fill:#88B3FF;}
	.st10{fill:#72A9F7;}
	.st11{fill:#3969B7;}
</style>
<g>
	<rect x="108.1" y="61.6" class="st0" width="32.8" height="94.5"/>
	<rect x="21.4" y="61.6" class="st1" width="86.7" height="94.5"/>
	
		<rect x="61.4" y="67.8" transform="matrix(-1.836970e-16 1 -1 -1.836970e-16 175.8765 46.41)" class="st0" width="6.6" height="86.7"/>
	
		<rect x="121.2" y="94.7" transform="matrix(-1.836970e-16 1 -1 -1.836970e-16 235.6342 -13.3477)" class="st2" width="6.6" height="32.8"/>
	<path class="st3" d="M81.2,62.6c0,0,19.6-12.7,32.9-8.6l-2.7,2.6l1.2,4.3c0,0-14.8-4.8-31.8,2.5L81.2,62.6z"/>
	<path class="st3" d="M80.1,59.7c0,0-3.5-0.4-8.6-1.1c-13.7-1.9-39.3-5.8-43.9-9.5c-7.2-5.7,9.9-30,17.3-33.4
		C52.3,12.4,80.1,59.7,80.1,59.7z"/>
	<path class="st3" d="M134.3,29.5c1.2,6-54.7,32-54.7,32s1-2.8,2.7-7.1c0,0,0,0,0,0c6-15.7,20.6-52.3,25.4-51.8c0.5,0,1,0.2,1.7,0.5
		C116.7,6.4,133.1,23.9,134.3,29.5z"/>
	<path class="st4" d="M108.8,8.5c-3.4,5.9-26.2,45.3-26.6,45.9c6-15.7,20.6-52.3,25.4-51.8c0,0,0.9,0,1.7,0.5
		C110.2,3.8,110.7,5.2,108.8,8.5z"/>
	<path class="st4" d="M71.5,58.6L71.5,58.6c-13.7-1.9-39.3-5.8-43.9-9.5c-2.1-5.8,3.3-6.3,7.2-6.7C38.7,42,71.5,58.6,71.5,58.6z"/>
	<path class="st4" d="M69.6,61.6c0,0,3.1-7.1,9.3-7.5c6.4-0.4,10.1,7.5,10.1,7.5H69.6z"/>
	<rect x="18.8" y="61.6" class="st5" width="90.7" height="13"/>
	<rect x="109.5" y="61.6" class="st2" width="34.2" height="13"/>
	<path class="st3" d="M72.8,60.5c0,0-17.8-5.6-29.8-1.9c-13.8,4.3-13,21.3-13,21.3l3.3-1.3l4.4,2.1c0,0,0.7-18.1,12-20.6
		C59.4,57.9,72.8,60.5,72.8,60.5z"/>
	<rect x="57.1" y="61.6" class="st0" width="6.6" height="94.5"/>
</g>
<g>
	<rect x="53.1" y="108.2" class="st6" width="16.7" height="48.1"/>
	<rect x="9" y="108.2" class="st7" width="44.1" height="48.1"/>
	
		<rect x="29.4" y="111.3" transform="matrix(-1.836970e-16 1 -1 -1.836970e-16 164.4256 102.3069)" class="st8" width="3.4" height="44.1"/>
	
		<rect x="59.8" y="125" transform="matrix(-1.836970e-16 1 -1 -1.836970e-16 194.816 71.9165)" class="st9" width="3.4" height="16.7"/>
	<path class="st6" d="M41.2,107.4c0,0,13.5-6.1,22.9-3.8l-1.9,1.3l0.9,2.2c0,0-10.5-2.7-22.3,0.7L41.2,107.4z"/>
	<g>
		<path class="st10" d="M38.9,107.2c0,0-1.8-0.2-4.4-0.6c-7-1-20-3-22.3-4.8c-3.7-2.9,5-15.3,8.8-17
			C24.7,83.1,38.9,107.2,38.9,107.2z"/>
		<path class="st10" d="M66.4,91.8c0.6,3.1-27.8,16.3-27.8,16.3s0.5-1.4,1.4-3.6c0,0,0,0,0,0c3.1-8,10.5-26.6,12.9-26.3
			c0.2,0,0.5,0.1,0.9,0.3C57.5,80.1,65.8,89,66.4,91.8z"/>
		<path class="st6" d="M53.5,81.2c-1.7,3-13.3,23-13.5,23.3c3.1-8,10.5-26.6,12.9-26.3c0,0,0.5,0,0.9,0.3
			C54.2,78.8,54.5,79.5,53.5,81.2z"/>
		<path class="st6" d="M34.5,106.6L34.5,106.6c-7-1-20-3-22.3-4.8c-1.1-3,1.7-3.2,3.7-3.4C17.8,98.2,34.5,106.6,34.5,106.6z"/>
		<path class="st6" d="M33.6,108.1c0,0,1.6-3.6,4.7-3.8c3.3-0.2,5.1,3.8,5.1,3.8H33.6z"/>
	</g>
	<rect x="7.7" y="108.2" class="st9" width="46.1" height="6.6"/>
	<rect x="53.8" y="108.2" class="st11" width="17.4" height="6.6"/>
	<path class="st6" d="M35.2,107.6c0,0-9-2.9-15.1-1c-7,2.2-6.6,10.9-6.6,10.9l1.7-0.7l2.2,1c0,0,0.4-9.2,6.1-10.5
		C28.4,106.3,35.2,107.6,35.2,107.6z"/>
	<rect x="27.2" y="108.2" class="st8" width="3.4" height="48.5"/>
</g>
</svg>
