<?xml version="1.0" encoding="utf-8"?>
<!-- Generator: Adobe Illustrator 24.3.0, SVG Export Plug-In . SVG Version: 6.00 Build 0)  -->
<svg version="1.1" id="圖層_2_1_" xmlns="http://www.w3.org/2000/svg" xmlns:xlink="http://www.w3.org/1999/xlink" x="0px"
	 y="0px" viewBox="0 0 236 234" style="enable-background:new 0 0 236 234;" xml:space="preserve">
<style type="text/css">
	.st0{fill:#D02E1A;}
	.st1{fill:#F3D523;}
</style>
<path class="st0" d="M230.3,117c0,61.3-49.7,111-111,111s-111-49.7-111-111S58,6,119.3,6C180.6,6,230.3,55.7,230.3,117
	C230.3,117,230.3,117,230.3,117z"/>
<g>
	
		<image style="overflow:visible;opacity:0;enable-background:new    ;" width="117" height="113" xlink:href="FF44CD46.png"  transform="matrix(0.7016 0 0 0.7016 21.7057 44.031)">
	</image>
	<g>
		<polygon class="st1" points="57.8,49.8 65,72 88.3,72 69.5,85.6 76.6,107.8 57.8,94.1 39,107.8 46.2,85.6 27.4,72 50.6,72 		"/>
	</g>
</g>
<g>
	
		<image style="overflow:visible;opacity:0;enable-background:new    ;" width="59" height="60" xlink:href="FF44CD4A.png"  transform="matrix(0.7016 0 0 0.7016 99.5843 32.1037)">
	</image>
	<g>
		<polygon class="st1" points="118.4,38.3 118,45.9 125.1,48.8 117.6,50.6 117.1,58.3 113.1,51.8 105.6,53.7 110.5,47.8 106.4,41.4 
			113.6,44.2 		"/>
	</g>
</g>
<g>
	
		<image style="overflow:visible;opacity:0;enable-background:new    ;" width="59" height="59" xlink:href="FF44CD4D.png"  transform="matrix(0.7016 0 0 0.7016 120.6326 55.2568)">
	</image>
	<g>
		<polygon class="st1" points="144.6,63.1 141.1,69.9 146.5,75.3 138.9,74.1 135.4,80.9 134.3,73.4 126.7,72.2 133.5,68.7 
			132.3,61.1 137.7,66.5 		"/>
	</g>
</g>
<g>
	
		<image style="overflow:visible;opacity:0;enable-background:new    ;" width="60" height="58" xlink:href="FF44CD4E.png"  transform="matrix(0.7016 0 0 0.7016 120.6326 88.2324)">
	</image>
	<g>
		<polygon class="st1" points="136.7,94.1 139.1,101.4 146.7,101.4 140.5,105.9 142.9,113.2 136.7,108.7 130.5,113.2 132.9,105.9 
			126.7,101.4 134.3,101.4 		"/>
	</g>
</g>
<g>
	
		<image style="overflow:visible;opacity:0;enable-background:new    ;" width="59" height="60" xlink:href="FF44CD4C.png"  transform="matrix(0.7016 0 0 0.7016 99.5843 111.3855)">
	</image>
	<g>
		<polygon class="st1" points="118.4,117.5 117.9,125.1 125,128 117.6,129.8 117.1,137.5 113,131 105.6,132.9 110.5,127 
			106.4,120.5 113.5,123.4 		"/>
	</g>
</g>
</svg>
