<?xml version="1.0" encoding="utf-8"?>
<!-- Generator: Adobe Illustrator 24.3.0, SVG Export Plug-In . SVG Version: 6.00 Build 0)  -->
<svg version="1.1" id="圖層_2" xmlns="http://www.w3.org/2000/svg" xmlns:xlink="http://www.w3.org/1999/xlink" x="0px" y="0px"
	 viewBox="0 0 425 434.8" style="enable-background:new 0 0 425 434.8;" xml:space="preserve">
<style type="text/css">
	.st0{fill:url(#SVGID_1_);}
	.st1{fill:#FFFFFF;}
	.st2{fill:url(#SVGID_2_);}
	.st3{fill:#FBE7F0;}
	.st4{fill:url(#SVGID_3_);}
	.st5{fill:url(#SVGID_4_);}
	.st6{fill:url(#SVGID_5_);}
	.st7{clip-path:url(#SVGID_7_);}
	.st8{fill:#E52235;}
</style>
<linearGradient id="SVGID_1_" gradientUnits="userSpaceOnUse" x1="87.8491" y1="291.3666" x2="362.5242" y2="121.2015">
	<stop  offset="0.1515" style="stop-color:#E8473C"/>
	<stop  offset="0.4061" style="stop-color:#E95B54"/>
	<stop  offset="0.5909" style="stop-color:#FFF5DB"/>
	<stop  offset="0.7" style="stop-color:#EB6F6D"/>
	<stop  offset="0.8848" style="stop-color:#F6C3BF"/>
	<stop  offset="0.9848" style="stop-color:#EB6F6D"/>
</linearGradient>
<ellipse class="st0" cx="212" cy="214.5" rx="207" ry="206.5"/>
<ellipse class="st1" cx="212" cy="220.5" rx="207" ry="206.5"/>
<linearGradient id="SVGID_2_" gradientUnits="userSpaceOnUse" x1="211.9523" y1="44.8678" x2="211.9523" y2="438.8085">
	<stop  offset="0.1515" style="stop-color:#E8473C"/>
	<stop  offset="0.5909" style="stop-color:#D5050F"/>
	<stop  offset="0.9848" style="stop-color:#EB6F6D"/>
</linearGradient>
<ellipse class="st2" cx="212" cy="222.5" rx="207" ry="206.5"/>
<g>
	<path class="st3" d="M215,406.5c97.4,0,176.4-78.8,176.4-176c0-20.4-3.5-40-9.9-58.3c5.1,16.5,7.9,34,7.9,52.2
		c0,97.2-79,176-176.4,176c-77,0-142.4-49.2-166.5-117.7C68.8,354.4,135.8,406.5,215,406.5z"/>
</g>
<g>
	<linearGradient id="SVGID_3_" gradientUnits="userSpaceOnUse" x1="46.4818" y1="288.396" x2="391.3963" y2="288.396">
		<stop  offset="0.1515" style="stop-color:#E8473C"/>
		<stop  offset="0.4061" style="stop-color:#E95B54"/>
		<stop  offset="0.5909" style="stop-color:#FFF5DB"/>
		<stop  offset="0.7" style="stop-color:#EB6F6D"/>
		<stop  offset="0.8848" style="stop-color:#F6C3BF"/>
		<stop  offset="0.9848" style="stop-color:#EB6F6D"/>
	</linearGradient>
	<path class="st4" d="M215,405.5c97.4,0,176.4-78.8,176.4-176c0-20.4-3.5-40-9.9-58.3c5.1,16.5,7.9,34,7.9,52.2
		c0,97.2-79,176-176.4,176c-77,0-142.4-49.2-166.5-117.7C68.8,353.4,135.8,405.5,215,405.5z"/>
</g>
<linearGradient id="SVGID_4_" gradientUnits="userSpaceOnUse" x1="212.9787" y1="418.692" x2="212.9787" y2="40.8265">
	<stop  offset="0.1515" style="stop-color:#FFFFFF"/>
	<stop  offset="0.5909" style="stop-color:#DEDEDE"/>
	<stop  offset="0.9848" style="stop-color:#F7F7F7"/>
</linearGradient>
<path class="st5" d="M389.4,223.5c0,97.2-79,176-176.4,176c-97.4,0-176.4-78.8-176.4-176s79-176,176.4-176
	C310.4,47.5,389.4,126.3,389.4,223.5z"/>
<path class="st1" d="M333.9,95.3c30.6,31.7,49.5,74.7,49.5,122.2c0,97.2-79,176-176.4,176c-47.8,0-91.1-19-122.9-49.8
	c32.1,33.2,77.1,53.8,126.9,53.8c97.4,0,176.4-78.8,176.4-176C387.4,172,366.9,127.3,333.9,95.3z"/>
<linearGradient id="SVGID_5_" gradientUnits="userSpaceOnUse" x1="96.5166" y1="352.1993" x2="462.302" y2="161.9376">
	<stop  offset="0.1515" style="stop-color:#D4D4D5"/>
	<stop  offset="0.2091" style="stop-color:#C0C1C1"/>
	<stop  offset="0.3394" style="stop-color:#F09270"/>
	<stop  offset="0.4606" style="stop-color:#B5B5B6"/>
	<stop  offset="0.5091" style="stop-color:#A0A1A1"/>
	<stop  offset="0.5606" style="stop-color:#A5A5A6"/>
	<stop  offset="0.5939" style="stop-color:#E8E9E9"/>
	<stop  offset="0.6364" style="stop-color:#ABABAC"/>
	<stop  offset="0.7485" style="stop-color:#B4B4B5"/>
	<stop  offset="0.797" style="stop-color:#E1E2E2"/>
	<stop  offset="0.8424" style="stop-color:#C0C1C1"/>
	<stop  offset="0.9788" style="stop-color:#D8D8D9"/>
</linearGradient>
<path class="st6" d="M335.9,97.3c30.6,31.7,49.5,74.7,49.5,122.2c0,97.2-79,176-176.4,176c-47.8,0-91.1-19-122.9-49.8
	c32.1,33.2,77.1,53.8,126.9,53.8c97.4,0,176.4-78.8,176.4-176C389.4,174,368.9,129.3,335.9,97.3z"/>
<path class="st1" d="M38.6,231.5c0-97.2,79-176,176.4-176c68.4,0,127.7,38.8,157,95.6c-28.5-59-89-99.6-159-99.6
	c-97.4,0-176.4,78.8-176.4,176c0,28.9,7,54.3,19.4,78.3C44.8,282.8,38.6,258.9,38.6,231.5z"/>
<g>
	<defs>
		<path id="SVGID_6_" d="M383.9,221.6c0,94.5-76.6,171.1-171.1,171.1c-94.5,0-171.1-76.6-171.1-171.1c0-94.5,76.6-171.1,171.1-171.1
			C307.3,50.5,383.9,127.1,383.9,221.6z"/>
	</defs>
	<clipPath id="SVGID_7_">
		<use xlink:href="#SVGID_6_"  style="overflow:visible;"/>
	</clipPath>
	<g class="st7">
		<g>
			<rect x="41.6" y="221.6" class="st1" width="513.3" height="171.1"/>
			<rect x="41.6" y="50.5" class="st8" width="513.3" height="171.1"/>
			<g>
				<path class="st1" d="M222.9,191c-29.5-1.2-52.7-25.3-52.7-54.9c0-29.6,23.1-53.7,52.7-54.9c0.2,0,0.3-0.1,0.3-0.3
					c0-0.1-0.1-0.3-0.2-0.4c-6.2-2.2-12.8-3.3-19.4-3.3c-32.4,0-58.8,26.4-58.8,58.8s26.4,58.8,58.8,58.8c6.6,0,13.2-1.1,19.4-3.3
					c0.1,0,0.2-0.2,0.2-0.4C223.2,191.1,223.1,191,222.9,191z"/>
				<path class="st1" d="M215.7,121.5c0-0.1-0.2-0.2-0.3-0.2l0,0l-10.1,0l-3.1-10.1c-0.1-0.3-0.5-0.3-0.6,0l-3.1,10.1l-10.1,0l0,0
					c-0.1,0-0.3,0.1-0.3,0.2c0,0.1,0,0.3,0.1,0.4l8.2,6.2l-3.1,10.1c0,0.1,0,0.3,0.1,0.4c0,0,0.1,0.1,0.2,0.1c0.1,0,0.1,0,0.2-0.1
					l8.2-6.3l8.1,6.3c0,0,0.1,0.1,0.2,0.1c0,0,0,0,0,0c0.2,0,0.3-0.1,0.3-0.3c0-0.1,0-0.1,0-0.2l-3.1-10l8.2-6.2
					C215.7,121.8,215.8,121.7,215.7,121.5z"/>
				<path class="st1" d="M282.4,121.5c0-0.1-0.2-0.2-0.3-0.2l0,0l-10.1,0l-3.1-10.1c-0.1-0.3-0.5-0.3-0.6,0l-3.1,10.1l-10.1,0l0,0
					c-0.1,0-0.3,0.1-0.3,0.2c0,0.1,0,0.3,0.1,0.4l8.2,6.2l-3.1,10.1c0,0.1,0,0.3,0.1,0.4c0,0,0.1,0.1,0.2,0.1c0.1,0,0.1,0,0.2-0.1
					l8.2-6.3l8.1,6.3c0.1,0,0.1,0.1,0.2,0.1l0,0c0.2,0,0.3-0.1,0.3-0.3c0-0.1,0-0.1-0.1-0.2l-3.1-10l8.2-6.2
					C282.4,121.8,282.5,121.7,282.4,121.5z"/>
				<path class="st1" d="M243.6,112.8C243.6,112.8,243.6,112.8,243.6,112.8c0.2,0,0.3-0.1,0.3-0.3c0-0.1,0-0.1,0-0.2l-3.1-10L249,96
					c0.1-0.1,0.2-0.2,0.1-0.4c0-0.1-0.2-0.2-0.3-0.2l0,0l-10.1,0l-3.1-10.1c-0.1-0.3-0.6-0.3-0.6,0l-3.1,10.1l-10.1,0l0,0
					c-0.1,0-0.3,0.1-0.3,0.2c0,0.1,0,0.3,0.1,0.4l8.2,6.2l-3.2,10.1c0,0.1,0,0.3,0.1,0.4c0,0,0.1,0.1,0.2,0.1c0.1,0,0.1,0,0.2-0.1
					l8.2-6.3l8.1,6.3C243.5,112.8,243.6,112.8,243.6,112.8z"/>
				<path class="st1" d="M227.7,159.7L227.7,159.7l-10.1,0l-3.1-10.1c-0.1-0.3-0.5-0.3-0.6,0l-3.1,10.1l-10.1,0l0,0
					c-0.1,0-0.3,0.1-0.3,0.2c0,0.1,0,0.3,0.1,0.4l8.2,6.2l-3.2,10.1c0,0.1,0,0.3,0.1,0.4c0,0,0.1,0.1,0.2,0.1c0.1,0,0.1,0,0.2-0.1
					l8.1-6.2l8.2,6.2c0.1,0,0.1,0.1,0.2,0.1c0,0,0,0,0,0c0.2,0,0.3-0.2,0.3-0.3c0-0.1,0-0.1,0-0.2l-3.2-10l8.2-6.2
					c0.1-0.1,0.2-0.2,0.1-0.4C227.9,159.8,227.8,159.7,227.7,159.7z"/>
				<path class="st1" d="M270.1,159.7L270.1,159.7l-10.1,0l-3.1-10.1c-0.1-0.3-0.5-0.3-0.6,0l-3.1,10.1l-10.1,0l0,0
					c-0.1,0-0.3,0.1-0.3,0.2c0,0.1,0,0.3,0.1,0.4l8.2,6.2l-3.2,10.1c0,0.1,0,0.3,0.1,0.4c0.1,0,0.1,0.1,0.2,0.1c0.1,0,0.1,0,0.2-0.1
					l8.2-6.2l8.1,6.2c0.1,0,0.1,0.1,0.2,0.1c0.2,0,0.3-0.2,0.3-0.3c0-0.1,0-0.1-0.1-0.2l-3.1-10l8.2-6.2c0.1-0.1,0.2-0.2,0.1-0.4
					C270.3,159.8,270.2,159.7,270.1,159.7z"/>
			</g>
		</g>
	</g>
</g>
</svg>
