<?xml version="1.0" encoding="utf-8"?>
<!-- Generator: Adobe Illustrator 24.3.0, SVG Export Plug-In . SVG Version: 6.00 Build 0)  -->
<svg version="1.1" id="圖層_9" xmlns="http://www.w3.org/2000/svg" xmlns:xlink="http://www.w3.org/1999/xlink" x="0px" y="0px"
	 viewBox="0 0 425 434.8" style="enable-background:new 0 0 425 434.8;" xml:space="preserve">
<style type="text/css">
	.st0{fill:url(#SVGID_1_);}
	.st1{fill:#FFFFFF;}
	.st2{fill:url(#SVGID_2_);}
	.st3{fill:#FBE7F0;}
	.st4{fill:url(#SVGID_3_);}
	.st5{fill:url(#SVGID_4_);}
	.st6{fill:url(#SVGID_5_);}
	.st7{clip-path:url(#SVGID_7_);}
	.st8{fill:#E03B2B;}
	.st9{fill:#1E278A;}
	.st10{fill:#007F54;}
	.st11{fill:#231815;}
	.st12{fill:#F8B60E;}
</style>
<linearGradient id="SVGID_1_" gradientUnits="userSpaceOnUse" x1="87.8492" y1="144.6318" x2="362.5293" y2="314.8033" gradientTransform="matrix(1 0 0 -1 0 436)">
	<stop  offset="0.15" style="stop-color:#E8473C"/>
	<stop  offset="0.41" style="stop-color:#E95B54"/>
	<stop  offset="0.59" style="stop-color:#FFF5DB"/>
	<stop  offset="0.7" style="stop-color:#EB6F6D"/>
	<stop  offset="0.88" style="stop-color:#F6C3BF"/>
	<stop  offset="0.98" style="stop-color:#EB6F6D"/>
</linearGradient>
<ellipse class="st0" cx="212" cy="214.5" rx="207" ry="206.5"/>
<ellipse class="st1" cx="212" cy="220.5" rx="207" ry="206.5"/>
<linearGradient id="SVGID_2_" gradientUnits="userSpaceOnUse" x1="211.9518" y1="391.1361" x2="211.9518" y2="-2.8122" gradientTransform="matrix(1 0 0 -1 0 436)">
	<stop  offset="0.15" style="stop-color:#E8473C"/>
	<stop  offset="0.59" style="stop-color:#D5050F"/>
	<stop  offset="0.98" style="stop-color:#EB6F6D"/>
</linearGradient>
<ellipse class="st2" cx="212" cy="222.5" rx="207" ry="206.5"/>
<path class="st3" d="M215,406.5c97.4,0,176.4-78.8,176.4-176c0-19.8-3.3-39.5-9.9-58.3c5.2,16.9,7.9,34.5,7.9,52.2
	c0,97.2-79,176-176.4,176c-74.8,0.1-141.6-47.1-166.5-117.7C69.5,356.4,137.8,406.5,215,406.5z"/>
<linearGradient id="SVGID_3_" gradientUnits="userSpaceOnUse" x1="18.1871" y1="132.3871" x2="363.1014" y2="132.3871" gradientTransform="matrix(1 0 0 -1 28.3 420.78)">
	<stop  offset="0.15" style="stop-color:#E8473C"/>
	<stop  offset="0.41" style="stop-color:#E95B54"/>
	<stop  offset="0.59" style="stop-color:#FFF5DB"/>
	<stop  offset="0.7" style="stop-color:#EB6F6D"/>
	<stop  offset="0.88" style="stop-color:#F6C3BF"/>
	<stop  offset="0.98" style="stop-color:#EB6F6D"/>
</linearGradient>
<path class="st4" d="M215,405.5c97.4,0,176.4-78.8,176.4-176c0-19.8-3.3-39.5-9.9-58.3c5.3,16.9,7.9,34.5,7.9,52.2
	c0,97.2-79,176-176.4,176c-74.9,0.1-141.6-47.1-166.5-117.7C69.5,355.4,137.8,405.6,215,405.5z"/>
<linearGradient id="SVGID_4_" gradientUnits="userSpaceOnUse" x1="184.6784" y1="2.0928" x2="184.6784" y2="379.9547" gradientTransform="matrix(1 0 0 -1 28.3 420.78)">
	<stop  offset="0.15" style="stop-color:#FFFFFF"/>
	<stop  offset="0.59" style="stop-color:#DEDEDE"/>
	<stop  offset="0.98" style="stop-color:#F7F7F7"/>
</linearGradient>
<path class="st5" d="M389.4,223.5c0,97.2-79,176-176.4,176s-176.4-78.8-176.4-176s79-176,176.4-176S389.4,126.3,389.4,223.5z"/>
<path class="st1" d="M333.9,95.3c31.8,32.7,49.5,76.6,49.5,122.2c0,97.2-79,176-176.4,176c-45.9,0.1-90-17.8-122.9-49.8
	c33.2,34.4,79.1,53.8,126.9,53.8c97.4,0,176.4-78.8,176.4-176C387.4,173.9,368.1,128.3,333.9,95.3z"/>
<linearGradient id="SVGID_5_" gradientUnits="userSpaceOnUse" x1="68.2187" y1="68.579" x2="434.0037" y2="258.8465" gradientTransform="matrix(1 0 0 -1 28.3 420.78)">
	<stop  offset="0.15" style="stop-color:#D4D4D5"/>
	<stop  offset="0.21" style="stop-color:#C0C1C1"/>
	<stop  offset="0.34" style="stop-color:#F09270"/>
	<stop  offset="0.46" style="stop-color:#B5B5B6"/>
	<stop  offset="0.51" style="stop-color:#A0A1A1"/>
	<stop  offset="0.56" style="stop-color:#A5A5A6"/>
	<stop  offset="0.59" style="stop-color:#E8E9E9"/>
	<stop  offset="0.64" style="stop-color:#ABABAC"/>
	<stop  offset="0.75" style="stop-color:#B4B4B5"/>
	<stop  offset="0.8" style="stop-color:#E1E2E2"/>
	<stop  offset="0.84" style="stop-color:#C0C1C1"/>
	<stop  offset="0.98" style="stop-color:#D8D8D9"/>
</linearGradient>
<path class="st6" d="M335.9,97.3c31.8,32.7,49.5,76.6,49.5,122.2c0,97.2-79,176-176.4,176c-45.9,0.1-90-17.8-122.9-49.8
	c33.2,34.4,79.1,53.9,126.9,53.8c97.4,0,176.4-78.8,176.4-176C389.4,175.9,370.1,130.4,335.9,97.3z"/>
<path class="st1" d="M38.6,231.5c0-97.2,79-176,176.4-176c66.1-0.1,126.7,36.9,157,95.6c-29.5-61-91.3-99.7-159-99.6
	c-97.4,0-176.4,78.8-176.4,176c0,28.9,7,54.2,19.4,78.3C44.8,282.8,38.6,258.9,38.6,231.5z"/>
<g>
	<defs>
		<path id="SVGID_6_" d="M382.9,222.5c0,94.4-76.5,171-170.9,171c-94.4,0-171-76.5-171-170.9c0-94.4,76.5-171,170.9-171c0,0,0,0,0,0
			C306.4,51.6,382.9,128.1,382.9,222.5z"/>
	</defs>
	<clipPath id="SVGID_7_">
		<use xlink:href="#SVGID_6_"  style="overflow:visible;"/>
	</clipPath>
	<g class="st7">
		<polygon class="st8" points="468.5,160.5 468.5,51.5 62.7,51.5 226.3,160.5 		"/>
		<polygon class="st9" points="62.6,393.4 468.5,393.4 468.5,284.5 226.1,284.5 		"/>
		<polygon class="st1" points="19.7,393.4 62.6,393.4 226.2,284.4 468.5,284.4 468.5,260.9 218.4,260.9 		"/>
		<polygon class="st1" points="226.4,160.5 62.7,51.5 19.7,51.5 218.5,184 468.5,184 468.5,160.5 		"/>
		<polygon class="st10" points="218.5,184 19.7,51.5 -44.4,51.5 -44.4,91.4 152.2,222.5 -44.4,353.5 -44.4,393.4 19.7,393.4 
			218.4,260.9 468.5,260.9 468.5,184 		"/>
		<polygon class="st11" points="-44.4,114.2 -44.4,222.5 -44.4,330.7 118,222.5 		"/>
		<polygon class="st12" points="-44.4,91.4 -44.4,114.2 118,222.5 -44.4,330.7 -44.4,353.5 152.2,222.5 		"/>
	</g>
</g>
</svg>
