<?xml version="1.0" encoding="utf-8"?>
<!-- Generator: Adobe Illustrator 24.3.0, SVG Export Plug-In . SVG Version: 6.00 Build 0)  -->
<svg version="1.1" id="圖層_1" xmlns="http://www.w3.org/2000/svg" xmlns:xlink="http://www.w3.org/1999/xlink" x="0px" y="0px"
	 viewBox="0 0 435 436.7" style="enable-background:new 0 0 435 436.7;" xml:space="preserve">
<style type="text/css">
	.st0{fill:url(#SVGID_1_);}
	.st1{fill:#FFFFFF;}
	.st2{fill:url(#SVGID_2_);}
	.st3{fill:#FBE7F0;}
	.st4{fill:url(#SVGID_3_);}
	.st5{fill:url(#SVGID_4_);}
	.st6{fill:url(#SVGID_5_);}
	.st7{fill:#02578F;}
	.st8{fill:#F1C927;}
</style>
<g>
	<g id="圖層_11">
		
			<linearGradient id="SVGID_1_" gradientUnits="userSpaceOnUse" x1="93.0379" y1="146.3694" x2="369.3607" y2="317.549" gradientTransform="matrix(1 0 0 -1 0 438)">
			<stop  offset="0.15" style="stop-color:#E8473C"/>
			<stop  offset="0.41" style="stop-color:#E95B54"/>
			<stop  offset="0.59" style="stop-color:#FFF5DB"/>
			<stop  offset="0.7" style="stop-color:#EB6F6D"/>
			<stop  offset="0.88" style="stop-color:#F6C3BF"/>
			<stop  offset="0.98" style="stop-color:#EB6F6D"/>
		</linearGradient>
		<ellipse class="st0" cx="217.9" cy="214.3" rx="208.3" ry="207.8"/>
		<ellipse class="st1" cx="217.9" cy="220.4" rx="208.3" ry="207.8"/>
		
			<linearGradient id="SVGID_2_" gradientUnits="userSpaceOnUse" x1="217.8804" y1="394.3421" x2="217.8804" y2="-1.9623" gradientTransform="matrix(1 0 0 -1 0 438)">
			<stop  offset="0.15" style="stop-color:#E8473C"/>
			<stop  offset="0.59" style="stop-color:#D5050F"/>
			<stop  offset="0.98" style="stop-color:#EB6F6D"/>
		</linearGradient>
		<ellipse class="st2" cx="217.9" cy="222.4" rx="208.3" ry="207.8"/>
		<path class="st3" d="M220.9,407.4c98,0,177.5-79.3,177.5-177c0-20-3.4-39.8-10-58.6c5.3,17,8,34.7,7.9,52.5
			c0,97.8-79.5,177-177.5,177c-75.3,0.1-142.4-47.4-167.5-118.4C74.6,357,143.3,407.5,220.9,407.4z"/>
		
			<linearGradient id="SVGID_3_" gradientUnits="userSpaceOnUse" x1="74.1461" y1="136.0267" x2="421.1232" y2="136.0267" gradientTransform="matrix(1 0 0 -1 -22.72 424.67)">
			<stop  offset="0.15" style="stop-color:#E8473C"/>
			<stop  offset="0.41" style="stop-color:#E95B54"/>
			<stop  offset="0.59" style="stop-color:#FFF5DB"/>
			<stop  offset="0.7" style="stop-color:#EB6F6D"/>
			<stop  offset="0.88" style="stop-color:#F6C3BF"/>
			<stop  offset="0.98" style="stop-color:#EB6F6D"/>
		</linearGradient>
		<path class="st4" d="M220.9,406.5c98,0,177.5-79.3,177.5-177c0-20-3.4-39.8-10-58.6c5.3,17,8,34.7,7.9,52.5
			c0,97.8-79.5,177-177.5,177C143.6,400.5,76.5,353,51.4,282C74.6,356.1,143.3,406.5,220.9,406.5z"/>
		
			<linearGradient id="SVGID_4_" gradientUnits="userSpaceOnUse" x1="241.6331" y1="4.9531" x2="241.6331" y2="385.0748" gradientTransform="matrix(1 0 0 -1 -22.72 424.67)">
			<stop  offset="0.15" style="stop-color:#FFFFFF"/>
			<stop  offset="0.59" style="stop-color:#DEDEDE"/>
			<stop  offset="0.98" style="stop-color:#F7F7F7"/>
		</linearGradient>
		<path class="st5" d="M396.4,223.4c0,97.8-79.5,177-177.5,177s-177.5-79.3-177.5-177s79.5-177,177.5-177S396.4,125.6,396.4,223.4z"
			/>
		<path class="st1" d="M340.5,94.4c32,32.9,49.8,77,49.8,122.9c0,97.8-79.5,177-177.5,177c-46.2,0.1-90.5-17.9-123.6-50.1
			c33.4,34.6,79.5,54.2,127.7,54.1c98,0,177.5-79.3,177.5-177C394.4,173.5,375,127.6,340.5,94.4z"/>
		
			<linearGradient id="SVGID_5_" gradientUnits="userSpaceOnUse" x1="124.4769" y1="71.8369" x2="492.4495" y2="263.2423" gradientTransform="matrix(1 0 0 -1 -22.72 424.67)">
			<stop  offset="0.15" style="stop-color:#D4D4D5"/>
			<stop  offset="0.21" style="stop-color:#C0C1C1"/>
			<stop  offset="0.34" style="stop-color:#F09270"/>
			<stop  offset="0.46" style="stop-color:#B5B5B6"/>
			<stop  offset="0.51" style="stop-color:#A0A1A1"/>
			<stop  offset="0.56" style="stop-color:#A5A5A6"/>
			<stop  offset="0.59" style="stop-color:#E8E9E9"/>
			<stop  offset="0.64" style="stop-color:#ABABAC"/>
			<stop  offset="0.75" style="stop-color:#B4B4B5"/>
			<stop  offset="0.8" style="stop-color:#E1E2E2"/>
			<stop  offset="0.84" style="stop-color:#C0C1C1"/>
			<stop  offset="0.98" style="stop-color:#D8D8D9"/>
		</linearGradient>
		<path class="st6" d="M342.6,96.4c32,32.9,49.8,77,49.8,122.9c0,97.8-79.5,177-177.5,177c-46.2,0.1-90.5-17.9-123.6-50.1
			c33.4,34.6,79.5,54.2,127.7,54.1c98,0,177.5-79.3,177.5-177C396.4,175.5,377,129.7,342.6,96.4z"/>
		<path class="st1" d="M43.5,231.5c0-97.8,79.5-177,177.5-177c66.5-0.1,127.5,37.1,157.9,96.2C349.2,89.3,287,50.3,218.9,50.4
			c-98,0-177.5,79.3-177.5,177c0,29.1,7.1,54.6,19.6,78.8C49.8,283,43.5,259,43.5,231.5z"/>
		<path class="st7" d="M156.6,59.6C99,81.2,57.1,131.6,46.3,192.1h110.3V59.6z"/>
		<path class="st7" d="M46.3,253C57.1,313.5,99,363.9,156.6,385.5V253H46.3z"/>
		<path class="st7" d="M388.7,192.1c-14.4-81.5-85.5-143.4-171.2-143.4v143.4H388.7z"/>
		<path class="st7" d="M388.7,253H217.5v143.4C303.1,396.4,374.3,334.5,388.7,253z"/>
		<path class="st8" d="M388.7,253c3.6-20.1,3.6-40.7,0-60.9H217.5V48.7c-20.8,0-41.4,3.7-60.9,11v132.5H46.3
			c-3.6,20.1-3.6,40.7,0,60.9h110.3v132.5c19.5,7.3,40.1,11,60.9,11V253H388.7z"/>
	</g>
</g>
</svg>
