<?xml version="1.0" encoding="utf-8"?>
<!-- Generator: Adobe Illustrator 24.3.0, SVG Export Plug-In . SVG Version: 6.00 Build 0)  -->
<svg version="1.1" id="圖層_1" xmlns="http://www.w3.org/2000/svg" xmlns:xlink="http://www.w3.org/1999/xlink" x="0px" y="0px"
	 viewBox="0 0 441 435.8" style="enable-background:new 0 0 441 435.8;" xml:space="preserve">
<style type="text/css">
	.st0{fill:url(#SVGID_1_);}
	.st1{fill:#FFFFFF;}
	.st2{fill:url(#SVGID_2_);}
	.st3{fill:#FBE7F0;}
	.st4{fill:url(#SVGID_3_);}
	.st5{fill:url(#SVGID_4_);}
	.st6{fill:url(#SVGID_5_);}
	.st7{clip-path:url(#SVGID_7_);}
	.st8{fill:#E6231A;}
</style>
<g>
	<g id="圖層_6">
		
			<linearGradient id="SVGID_1_" gradientUnits="userSpaceOnUse" x1="94.2238" y1="146.3814" x2="369.8699" y2="317.1488" gradientTransform="matrix(1 0 0 -1 0 438)">
			<stop  offset="0.15" style="stop-color:#E8473C"/>
			<stop  offset="0.41" style="stop-color:#E95B54"/>
			<stop  offset="0.59" style="stop-color:#FFF5DB"/>
			<stop  offset="0.7" style="stop-color:#EB6F6D"/>
			<stop  offset="0.88" style="stop-color:#F6C3BF"/>
			<stop  offset="0.98" style="stop-color:#EB6F6D"/>
		</linearGradient>
		<ellipse class="st0" cx="218.8" cy="214.5" rx="207.8" ry="207.2"/>
		<ellipse class="st1" cx="218.8" cy="220.5" rx="207.8" ry="207.2"/>
		
			<linearGradient id="SVGID_2_" gradientUnits="userSpaceOnUse" x1="218.76" y1="393.7483" x2="218.76" y2="-1.5833" gradientTransform="matrix(1 0 0 -1 0 438)">
			<stop  offset="0.15" style="stop-color:#E8473C"/>
			<stop  offset="0.59" style="stop-color:#D5050F"/>
			<stop  offset="0.98" style="stop-color:#EB6F6D"/>
		</linearGradient>
		<ellipse class="st2" cx="218.8" cy="222.5" rx="207.8" ry="207.2"/>
		<path class="st3" d="M222.8,407.1c97.8,0,177-79.1,177-176.6c0-19.9-3.3-39.7-9.9-58.5c5.3,17,7.9,34.6,7.9,52.4
			c0,97.5-79.3,176.6-177,176.6c-75.1,0-142.1-47.3-167.1-118.1C76.8,356.9,145.3,407.2,222.8,407.1z"/>
		
			<linearGradient id="SVGID_3_" gradientUnits="userSpaceOnUse" x1="74.3949" y1="136.1393" x2="420.5356" y2="136.1393" gradientTransform="matrix(1 0 0 -1 -20.72 424.78)">
			<stop  offset="0.15" style="stop-color:#E8473C"/>
			<stop  offset="0.41" style="stop-color:#E95B54"/>
			<stop  offset="0.59" style="stop-color:#FFF5DB"/>
			<stop  offset="0.7" style="stop-color:#EB6F6D"/>
			<stop  offset="0.88" style="stop-color:#F6C3BF"/>
			<stop  offset="0.98" style="stop-color:#EB6F6D"/>
		</linearGradient>
		<path class="st4" d="M222.8,406.2c97.8,0,177-79.1,177-176.6c0-19.9-3.3-39.7-9.9-58.5c5.3,17,7.9,34.6,7.9,52.4
			c0,97.5-79.3,176.6-177,176.6C145.7,400.1,78.7,352.8,53.7,282C76.8,355.9,145.3,406.2,222.8,406.2z"/>
		
			<linearGradient id="SVGID_4_" gradientUnits="userSpaceOnUse" x1="240.5175" y1="5.3851" x2="240.5175" y2="384.5815" gradientTransform="matrix(1 0 0 -1 -20.72 424.78)">
			<stop  offset="0.15" style="stop-color:#FFFFFF"/>
			<stop  offset="0.59" style="stop-color:#DEDEDE"/>
			<stop  offset="0.98" style="stop-color:#F7F7F7"/>
		</linearGradient>
		<path class="st5" d="M396.8,223.5c0,97.5-79.3,176.6-177,176.6s-177-79.1-177-176.6S122,46.9,219.7,46.9S396.8,126,396.8,223.5z"
			/>
		<path class="st1" d="M342.1,94.9c31.9,32.8,49.7,76.8,49.6,122.6c0,97.5-79.3,176.6-177,176.6c-46.1,0.1-90.3-17.9-123.3-49.9
			c33.4,34.6,79.4,54.1,127.4,54c97.8,0,177-79.1,177-176.6C395.9,173.7,376.5,128,342.1,94.9z"/>
		
			<linearGradient id="SVGID_5_" gradientUnits="userSpaceOnUse" x1="124.6111" y1="72.1223" x2="491.6868" y2="263.0489" gradientTransform="matrix(1 0 0 -1 -20.72 424.78)">
			<stop  offset="0.15" style="stop-color:#D4D4D5"/>
			<stop  offset="0.21" style="stop-color:#C0C1C1"/>
			<stop  offset="0.34" style="stop-color:#F09270"/>
			<stop  offset="0.46" style="stop-color:#B5B5B6"/>
			<stop  offset="0.51" style="stop-color:#A0A1A1"/>
			<stop  offset="0.56" style="stop-color:#A5A5A6"/>
			<stop  offset="0.59" style="stop-color:#E8E9E9"/>
			<stop  offset="0.64" style="stop-color:#ABABAC"/>
			<stop  offset="0.75" style="stop-color:#B4B4B5"/>
			<stop  offset="0.8" style="stop-color:#E1E2E2"/>
			<stop  offset="0.84" style="stop-color:#C0C1C1"/>
			<stop  offset="0.98" style="stop-color:#D8D8D9"/>
		</linearGradient>
		<path class="st6" d="M344.1,96.9c31.9,32.8,49.7,76.8,49.6,122.6c0,97.5-79.3,176.6-177,176.6c-46.1,0.1-90.3-17.9-123.3-49.9
			c33.4,34.5,79.3,54,127.3,54c97.8,0,177-79.1,177-176.6C397.8,175.8,378.5,130.1,344.1,96.9z"/>
		<path class="st1" d="M44.8,231.6C44.8,134,124,55,221.8,55c66.4,0,127.2,37,157.5,96C349.8,89.8,287.7,50.9,219.7,51
			c-97.8,0-177,79.1-177,176.6c0,29.1,7,54.5,19.5,78.6C51,283,44.8,259,44.8,231.6z"/>
		<g>
			<defs>
				<path id="SVGID_6_" d="M390.5,223.3c0,95.2-77.2,172.4-172.4,172.4c-95.2,0-172.4-77.2-172.4-172.4
					C45.7,128.2,122.9,51,218.1,51c0,0,0,0,0,0C313.3,51,390.5,128.1,390.5,223.3z"/>
			</defs>
			<clipPath id="SVGID_7_">
				<use xlink:href="#SVGID_6_"  style="overflow:visible;"/>
			</clipPath>
			<g class="st7">
				<polygon class="st1" points="325.9,191.1 250.4,191.1 250.4,115.6 185.8,115.6 185.8,191.1 110.4,191.1 110.4,255.7 
					185.8,255.7 185.8,331.1 250.4,331.1 250.4,255.7 325.9,255.7 				"/>
				<path class="st8" d="M45.7,51v344.8h344.8V51H45.7z M325.9,255.7h-75.4v75.4h-64.6v-75.4h-75.4V191h75.4v-75.4h64.6V191h75.4
					L325.9,255.7z"/>
			</g>
		</g>
	</g>
</g>
</svg>
