<?xml version="1.0" encoding="utf-8"?>
<!-- Generator: Adobe Illustrator 24.3.0, SVG Export Plug-In . SVG Version: 6.00 Build 0)  -->
<svg version="1.1" xmlns="http://www.w3.org/2000/svg" xmlns:xlink="http://www.w3.org/1999/xlink" x="0px" y="0px"
	 viewBox="0 0 425 434.8" style="enable-background:new 0 0 425 434.8;" xml:space="preserve">
<style type="text/css">
	.st0{display:none;}
	.st1{display:inline;fill:url(#SVGID_1_);}
	.st2{display:inline;fill:#FFFFFF;}
	.st3{display:inline;fill:url(#SVGID_2_);}
	.st4{display:inline;fill:#FBE7F0;}
	.st5{display:inline;fill:url(#SVGID_3_);}
	.st6{display:inline;fill:url(#SVGID_4_);}
	.st7{display:inline;fill:url(#SVGID_5_);}
	.st8{display:inline;}
	.st9{clip-path:url(#SVGID_7_);}
	.st10{fill:#E03B2B;}
	.st11{fill:#1E278A;}
	.st12{fill:#FFFFFF;}
	.st13{fill:#007F54;}
	.st14{fill:#231815;}
	.st15{fill:#F8B60E;}
	.st16{fill:url(#SVGID_8_);}
	.st17{fill:url(#SVGID_9_);}
	.st18{fill:url(#SVGID_10_);}
	.st19{clip-path:url(#SVGID_12_);}
	.st20{fill:#62BDEB;}
	.st21{fill:#1C247B;}
	.st22{fill:#E3001B;}
	.st23{fill:#E2051C;}
</style>
<g id="圖層_9" class="st0">
	
		<linearGradient id="SVGID_1_" gradientUnits="userSpaceOnUse" x1="87.8492" y1="144.6318" x2="362.5293" y2="314.8033" gradientTransform="matrix(1 0 0 -1 0 436)">
		<stop  offset="0.15" style="stop-color:#E8473C"/>
		<stop  offset="0.41" style="stop-color:#E95B54"/>
		<stop  offset="0.59" style="stop-color:#FFF5DB"/>
		<stop  offset="0.7" style="stop-color:#EB6F6D"/>
		<stop  offset="0.88" style="stop-color:#F6C3BF"/>
		<stop  offset="0.98" style="stop-color:#EB6F6D"/>
	</linearGradient>
	<ellipse class="st1" cx="212" cy="214.5" rx="207" ry="206.5"/>
	<ellipse class="st2" cx="212" cy="220.5" rx="207" ry="206.5"/>
	
		<linearGradient id="SVGID_2_" gradientUnits="userSpaceOnUse" x1="211.9518" y1="391.1361" x2="211.9518" y2="-2.8122" gradientTransform="matrix(1 0 0 -1 0 436)">
		<stop  offset="0.15" style="stop-color:#E8473C"/>
		<stop  offset="0.59" style="stop-color:#D5050F"/>
		<stop  offset="0.98" style="stop-color:#EB6F6D"/>
	</linearGradient>
	<ellipse class="st3" cx="212" cy="222.5" rx="207" ry="206.5"/>
	<path class="st4" d="M215,406.5c97.4,0,176.4-78.8,176.4-176c0-19.8-3.3-39.5-9.9-58.3c5.2,16.9,7.9,34.5,7.9,52.2
		c0,97.2-79,176-176.4,176c-74.8,0.1-141.6-47.1-166.5-117.7C69.5,356.4,137.8,406.5,215,406.5z"/>
	
		<linearGradient id="SVGID_3_" gradientUnits="userSpaceOnUse" x1="18.1871" y1="132.3871" x2="363.1014" y2="132.3871" gradientTransform="matrix(1 0 0 -1 28.3 420.78)">
		<stop  offset="0.15" style="stop-color:#E8473C"/>
		<stop  offset="0.41" style="stop-color:#E95B54"/>
		<stop  offset="0.59" style="stop-color:#FFF5DB"/>
		<stop  offset="0.7" style="stop-color:#EB6F6D"/>
		<stop  offset="0.88" style="stop-color:#F6C3BF"/>
		<stop  offset="0.98" style="stop-color:#EB6F6D"/>
	</linearGradient>
	<path class="st5" d="M215,405.5c97.4,0,176.4-78.8,176.4-176c0-19.8-3.3-39.5-9.9-58.3c5.3,16.9,7.9,34.5,7.9,52.2
		c0,97.2-79,176-176.4,176c-74.9,0.1-141.6-47.1-166.5-117.7C69.5,355.4,137.8,405.6,215,405.5z"/>
	
		<linearGradient id="SVGID_4_" gradientUnits="userSpaceOnUse" x1="184.6784" y1="2.0928" x2="184.6784" y2="379.9547" gradientTransform="matrix(1 0 0 -1 28.3 420.78)">
		<stop  offset="0.15" style="stop-color:#FFFFFF"/>
		<stop  offset="0.59" style="stop-color:#DEDEDE"/>
		<stop  offset="0.98" style="stop-color:#F7F7F7"/>
	</linearGradient>
	<path class="st6" d="M389.4,223.5c0,97.2-79,176-176.4,176s-176.4-78.8-176.4-176s79-176,176.4-176S389.4,126.3,389.4,223.5z"/>
	<path class="st2" d="M333.9,95.3c31.8,32.7,49.5,76.6,49.5,122.2c0,97.2-79,176-176.4,176c-45.9,0.1-90-17.8-122.9-49.8
		c33.2,34.4,79.1,53.8,126.9,53.8c97.4,0,176.4-78.8,176.4-176C387.4,173.9,368.1,128.3,333.9,95.3z"/>
	
		<linearGradient id="SVGID_5_" gradientUnits="userSpaceOnUse" x1="68.2187" y1="68.579" x2="434.0037" y2="258.8465" gradientTransform="matrix(1 0 0 -1 28.3 420.78)">
		<stop  offset="0.15" style="stop-color:#D4D4D5"/>
		<stop  offset="0.21" style="stop-color:#C0C1C1"/>
		<stop  offset="0.34" style="stop-color:#F09270"/>
		<stop  offset="0.46" style="stop-color:#B5B5B6"/>
		<stop  offset="0.51" style="stop-color:#A0A1A1"/>
		<stop  offset="0.56" style="stop-color:#A5A5A6"/>
		<stop  offset="0.59" style="stop-color:#E8E9E9"/>
		<stop  offset="0.64" style="stop-color:#ABABAC"/>
		<stop  offset="0.75" style="stop-color:#B4B4B5"/>
		<stop  offset="0.8" style="stop-color:#E1E2E2"/>
		<stop  offset="0.84" style="stop-color:#C0C1C1"/>
		<stop  offset="0.98" style="stop-color:#D8D8D9"/>
	</linearGradient>
	<path class="st7" d="M335.9,97.3c31.8,32.7,49.5,76.6,49.5,122.2c0,97.2-79,176-176.4,176c-45.9,0.1-90-17.8-122.9-49.8
		c33.2,34.4,79.1,53.9,126.9,53.8c97.4,0,176.4-78.8,176.4-176C389.4,175.9,370.1,130.4,335.9,97.3z"/>
	<path class="st2" d="M38.6,231.5c0-97.2,79-176,176.4-176c66.1-0.1,126.7,36.9,157,95.6c-29.5-61-91.3-99.7-159-99.6
		c-97.4,0-176.4,78.8-176.4,176c0,28.9,7,54.2,19.4,78.3C44.8,282.8,38.6,258.9,38.6,231.5z"/>
	<g class="st8">
		<defs>
			<path id="SVGID_6_" d="M382.9,222.5c0,94.4-76.5,171-170.9,171c-94.4,0-171-76.5-171-170.9c0-94.4,76.5-171,170.9-171
				c0,0,0,0,0,0C306.4,51.6,382.9,128.1,382.9,222.5z"/>
		</defs>
		<clipPath id="SVGID_7_">
			<use xlink:href="#SVGID_6_"  style="overflow:visible;"/>
		</clipPath>
		<g class="st9">
			<polygon class="st10" points="468.5,160.5 468.5,51.5 62.7,51.5 226.3,160.5 			"/>
			<polygon class="st11" points="62.6,393.4 468.5,393.4 468.5,284.5 226.1,284.5 			"/>
			<polygon class="st12" points="19.7,393.4 62.6,393.4 226.2,284.4 468.5,284.4 468.5,260.9 218.4,260.9 			"/>
			<polygon class="st12" points="226.4,160.5 62.7,51.5 19.7,51.5 218.5,184 468.5,184 468.5,160.5 			"/>
			<polygon class="st13" points="218.5,184 19.7,51.5 -44.4,51.5 -44.4,91.4 152.2,222.5 -44.4,353.5 -44.4,393.4 19.7,393.4 
				218.4,260.9 468.5,260.9 468.5,184 			"/>
			<polygon class="st14" points="-44.4,114.2 -44.4,222.5 -44.4,330.7 118,222.5 			"/>
			<polygon class="st15" points="-44.4,91.4 -44.4,114.2 118,222.5 -44.4,330.7 -44.4,353.5 152.2,222.5 			"/>
		</g>
	</g>
</g>
<g id="圖層_2">
	
		<linearGradient id="SVGID_8_" gradientUnits="userSpaceOnUse" x1="89.6994" y1="145.3074" x2="363.7101" y2="315.063" gradientTransform="matrix(1 0 0 -1 0 436)">
		<stop  offset="0.15" style="stop-color:#E8473C"/>
		<stop  offset="0.41" style="stop-color:#E95B54"/>
		<stop  offset="0.59" style="stop-color:#FFF5DB"/>
		<stop  offset="0.7" style="stop-color:#EB6F6D"/>
		<stop  offset="0.88" style="stop-color:#F6C3BF"/>
		<stop  offset="0.98" style="stop-color:#EB6F6D"/>
	</linearGradient>
	<ellipse class="st16" cx="213.5" cy="214" rx="206.5" ry="206"/>
	<ellipse class="st12" cx="213.5" cy="220" rx="206.5" ry="206"/>
	
		<linearGradient id="SVGID_9_" gradientUnits="userSpaceOnUse" x1="213.5004" y1="391.2089" x2="213.5004" y2="-1.7845" gradientTransform="matrix(1 0 0 -1 0 436)">
		<stop  offset="0.15" style="stop-color:#E8473C"/>
		<stop  offset="0.59" style="stop-color:#D5050F"/>
		<stop  offset="0.98" style="stop-color:#EB6F6D"/>
	</linearGradient>
	<ellipse class="st17" cx="213.5" cy="222" rx="206.5" ry="206"/>
	
		<linearGradient id="SVGID_10_" gradientUnits="userSpaceOnUse" x1="166.4161" y1="3.3946" x2="166.4161" y2="380.354" gradientTransform="matrix(1 0 0 -1 48.11 421.11)">
		<stop  offset="0.15" style="stop-color:#FFFFFF"/>
		<stop  offset="0.59" style="stop-color:#DEDEDE"/>
		<stop  offset="0.98" style="stop-color:#F7F7F7"/>
	</linearGradient>
	<path class="st18" d="M390.5,223c0,96.9-78.8,175.5-176,175.5S38.5,320,38.5,223s78.8-175.6,176-175.6S390.5,126,390.5,223z"/>
	<path class="st12" d="M40.5,231c0-97,78.8-175.5,176-175.5c66-0.1,126.4,36.8,156.6,95.4c-29.4-60.8-91-99.5-158.6-99.4
		c-97.2,0-176,78.6-176,175.6c0,28.9,7,54.1,19.4,78.2C46.8,282.1,40.5,258.3,40.5,231z"/>
	<g>
		<defs>
			<path id="SVGID_11_" d="M386,222.7c0,94.8-76.9,171.7-171.7,171.7S42.7,317.5,42.7,222.7c0-94.8,76.8-171.6,171.6-171.7
				C309.1,51.1,386,127.9,386,222.7C386,222.7,386,222.7,386,222.7z"/>
		</defs>
		<clipPath id="SVGID_12_">
			<use xlink:href="#SVGID_11_"  style="overflow:visible;"/>
		</clipPath>
		<g class="st19">
			<rect x="-60.8" y="46.8" class="st20" width="546" height="364"/>
			<rect x="-60.8" y="46.8" class="st21" width="546" height="364"/>
			<polygon class="st12" points="485.2,46.8 419.6,46.8 212.2,185.1 4.8,46.8 -60.8,46.8 -60.8,90.6 146.5,228.8 -60.8,367.1 
				-60.8,410.8 4.8,410.8 212.2,272.6 419.6,410.8 485.2,410.8 485.2,367.1 277.8,228.8 485.2,90.6 			"/>
			<polygon class="st22" points="-60.8,46.8 -60.8,68.7 212.2,250.7 212.2,228.8 			"/>
			<polygon class="st22" points="485.2,389 212.2,207 212.2,228.8 485.2,410.8 			"/>
			<polygon class="st22" points="-60.8,410.8 -28,410.8 212.2,250.7 212.2,228.8 			"/>
			<polygon class="st22" points="452.4,46.8 212.2,207 212.2,228.8 485.1,46.8 			"/>
			<polygon class="st23" points="485.2,197 235,197 235,46.8 189.4,46.8 189.4,197 -60.8,197 -60.8,260.7 189.4,260.7 189.4,410.8 
				235,410.8 235,260.7 485.2,260.7 			"/>
			<polygon class="st12" points="171.2,46.8 171.2,178.8 -60.8,178.8 -60.8,197 189.4,197 189.4,46.8 			"/>
			<polygon class="st12" points="-60.8,278.9 171.2,278.9 171.2,410.8 189.4,410.8 189.4,260.7 -60.8,260.7 			"/>
			<polygon class="st12" points="485.2,260.7 235,260.7 235,410.8 253.1,410.8 253.1,278.9 485.2,278.9 			"/>
			<polygon class="st12" points="485.2,178.8 253.1,178.8 253.1,46.8 235,46.8 235,197 485.2,197 			"/>
		</g>
	</g>
</g>
</svg>
