<?xml version="1.0" encoding="utf-8"?>
<!-- Generator: Adobe Illustrator 24.3.0, SVG Export Plug-In . SVG Version: 6.00 Build 0)  -->
<svg version="1.1" id="圖層_1" xmlns="http://www.w3.org/2000/svg" xmlns:xlink="http://www.w3.org/1999/xlink" x="0px" y="0px"
	 viewBox="0 0 266 257" style="enable-background:new 0 0 266 257;" xml:space="preserve">
<style type="text/css">
	.st0{fill:#FFFFFF;}
	.st1{fill:#B31C30;}
	.st2{fill:#192E58;}
	.st3{display:none;opacity:0.63;fill-rule:evenodd;clip-rule:evenodd;fill:url(#SVGID_1_);enable-background:new    ;}
	.st4{display:none;}
	.st5{display:inline;fill-rule:evenodd;clip-rule:evenodd;fill:#855D00;}
	.st6{display:inline;}
	.st7{fill-rule:evenodd;clip-rule:evenodd;fill:url(#SVGID_2_);}
	.st8{opacity:0.21;fill-rule:evenodd;clip-rule:evenodd;fill:#231815;enable-background:new    ;}
	.st9{opacity:0.27;fill-rule:evenodd;clip-rule:evenodd;fill:#231815;enable-background:new    ;}
	.st10{clip-path:url(#SVGID_7_);}
	.st11{clip-path:url(#SVGID_8_);fill-rule:evenodd;clip-rule:evenodd;fill:url(#SVGID_9_);}
	.st12{opacity:0.21;fill-rule:evenodd;clip-rule:evenodd;fill:url(#SVGID_10_);enable-background:new    ;}
	.st13{fill-rule:evenodd;clip-rule:evenodd;fill:url(#SVGID_11_);}
	.st14{opacity:0.56;fill-rule:evenodd;clip-rule:evenodd;fill:#855D00;enable-background:new    ;}
	.st15{fill-rule:evenodd;clip-rule:evenodd;fill:url(#SVGID_12_);}
	.st16{fill-rule:evenodd;clip-rule:evenodd;fill:url(#SVGID_13_);}
	.st17{fill-rule:evenodd;clip-rule:evenodd;fill:url(#SVGID_14_);}
	.st18{fill-rule:evenodd;clip-rule:evenodd;fill:url(#SVGID_15_);}
	.st19{fill-rule:evenodd;clip-rule:evenodd;fill:url(#SVGID_16_);}
	.st20{fill-rule:evenodd;clip-rule:evenodd;fill:url(#SVGID_17_);}
	.st21{fill-rule:evenodd;clip-rule:evenodd;fill:#FCDF4F;}
	.st22{fill-rule:evenodd;clip-rule:evenodd;fill:#FFFFFF;}
	.st23{fill-rule:evenodd;clip-rule:evenodd;fill:url(#SVGID_18_);}
	.st24{fill-rule:evenodd;clip-rule:evenodd;fill:url(#SVGID_19_);}
	.st25{opacity:0.22;fill-rule:evenodd;clip-rule:evenodd;fill:#FFFFFF;enable-background:new    ;}
	.st26{fill-rule:evenodd;clip-rule:evenodd;fill:url(#SVGID_20_);}
	.st27{fill-rule:evenodd;clip-rule:evenodd;fill:url(#SVGID_21_);}
	.st28{fill-rule:evenodd;clip-rule:evenodd;fill:url(#SVGID_22_);}
	.st29{fill-rule:evenodd;clip-rule:evenodd;fill:url(#SVGID_23_);}
	.st30{fill-rule:evenodd;clip-rule:evenodd;fill:url(#SVGID_24_);}
	.st31{fill-rule:evenodd;clip-rule:evenodd;fill:url(#SVGID_25_);}
	.st32{fill-rule:evenodd;clip-rule:evenodd;fill:url(#SVGID_26_);}
	.st33{fill-rule:evenodd;clip-rule:evenodd;fill:url(#SVGID_27_);}
	.st34{fill-rule:evenodd;clip-rule:evenodd;fill:url(#SVGID_28_);}
	.st35{fill-rule:evenodd;clip-rule:evenodd;fill:url(#SVGID_29_);}
	.st36{fill-rule:evenodd;clip-rule:evenodd;fill:url(#SVGID_30_);}
	.st37{fill-rule:evenodd;clip-rule:evenodd;fill:url(#SVGID_31_);}
	.st38{fill-rule:evenodd;clip-rule:evenodd;fill:url(#SVGID_32_);}
	.st39{opacity:0.46;fill-rule:evenodd;clip-rule:evenodd;fill:#FFFFFF;enable-background:new    ;}
	.st40{clip-path:url(#SVGID_37_);}
	.st41{clip-path:url(#SVGID_38_);fill-rule:evenodd;clip-rule:evenodd;fill:url(#SVGID_39_);}
	.st42{opacity:0.52;fill-rule:evenodd;clip-rule:evenodd;fill:url(#SVGID_40_);enable-background:new    ;}
	.st43{opacity:0.31;fill-rule:evenodd;clip-rule:evenodd;fill:#FFFFFF;enable-background:new    ;}
	.st44{opacity:0.67;fill-rule:evenodd;clip-rule:evenodd;fill:#FFFFFF;enable-background:new    ;}
	.st45{fill-rule:evenodd;clip-rule:evenodd;fill:#FFFAEB;}
	.st46{clip-path:url(#SVGID_45_);}
	.st47{clip-path:url(#SVGID_46_);fill-rule:evenodd;clip-rule:evenodd;fill:url(#SVGID_47_);}
	.st48{opacity:0.56;fill-rule:evenodd;clip-rule:evenodd;fill:url(#SVGID_48_);enable-background:new    ;}
	.st49{opacity:0.31;fill-rule:evenodd;clip-rule:evenodd;fill:#855D00;enable-background:new    ;}
	.st50{opacity:0.24;fill-rule:evenodd;clip-rule:evenodd;fill:#FFFFFF;enable-background:new    ;}
	.st51{clip-path:url(#SVGID_53_);}
	.st52{clip-path:url(#SVGID_54_);fill-rule:evenodd;clip-rule:evenodd;fill:url(#SVGID_55_);}
	.st53{fill-rule:evenodd;clip-rule:evenodd;fill:url(#SVGID_56_);}
</style>
<path class="st0" d="M9.4,134.3C9.4,64.5,66.1,8,136,8c49.1,0,91.7,27.9,112.7,68.6C228.2,34.3,184.8,5.1,134.6,5.1
	C64.6,5.1,8,61.7,8,131.4c0,20.8,5,38.9,13.9,56.2C13.9,171.1,9.4,153.9,9.4,134.3z"/>
<g>
	<g>
		<path class="st0" d="M13.5,156.6H254c1.5-6.2,2.5-12.5,2.9-19H10.6C11.1,144.1,12,150.5,13.5,156.6z"/>
		<path class="st0" d="M29.6,194.7h208.2c3.8-6,7.2-12.4,10-19H19.6C22.4,182.3,25.8,188.7,29.6,194.7z"/>
		<path class="st0" d="M67.9,232.7h131.7c8.5-5.4,16.3-11.8,23.3-19H44.6C51.6,220.9,59.4,227.3,67.9,232.7z"/>
		<path class="st0" d="M199.6,23.6H67.9c-8.5,5.4-16.4,11.8-23.3,19h178.3C215.9,35.3,208.1,28.9,199.6,23.6z"/>
		<g>
			<path class="st1" d="M19.6,175.7h228.2c2.5-6.1,4.6-12.5,6.1-19H13.5C15.1,163.2,17.1,169.5,19.6,175.7z"/>
			<path class="st1" d="M44.6,213.7h178.3c5.6-5.8,10.6-12.2,15-19H29.6C34,201.5,39,207.9,44.6,213.7z"/>
			<path class="st1" d="M133.7,251.7c24.2,0,46.8-7,65.8-19H67.9C87,244.7,109.5,251.7,133.7,251.7z"/>
			<path class="st1" d="M13.5,99.6H254c-1.6-6.6-3.6-12.9-6.1-19H19.6C17.1,86.7,15.1,93.1,13.5,99.6z"/>
			<path class="st1" d="M10.2,128.1c0,3.2,0.2,6.4,0.4,9.5h246.4c0.2-3.1,0.4-6.3,0.4-9.5c0-3.2-0.2-6.4-0.4-9.5H10.6
				C10.3,121.8,10.2,124.9,10.2,128.1z"/>
			<path class="st1" d="M44.6,42.6c-5.6,5.8-10.6,12.2-15,19h208.2c-4.4-6.8-9.4-13.2-15-19H44.6z"/>
			<path class="st1" d="M133.7,4.5c-24.2,0-46.8,7-65.8,19h131.7C180.5,11.5,158,4.5,133.7,4.5z"/>
		</g>
		<path class="st0" d="M10.6,118.6h246.4c-0.5-6.5-1.5-12.8-2.9-19H13.5C12,105.8,11.1,112.1,10.6,118.6z"/>
		<path class="st0" d="M19.6,80.6h228.2c-2.8-6.7-6.1-13-10-19H29.6C25.8,67.6,22.4,73.9,19.6,80.6z"/>
	</g>
	<g>
		<path class="st2" d="M133.7,4.5C65.4,4.6,10.2,59.9,10.2,128.1c0,3.3,0.2,6.5,0.4,9.7h123.1V4.5z"/>
		<g>
			<path class="st0" d="M17.7,85.5c-0.2,0.5-0.3,0.9-0.5,1.4h0L17.7,85.5z"/>
			<path class="st0" d="M16.3,89.5c-0.4,1.3-0.8,2.6-1.2,4L16.3,89.5L16.3,89.5z"/>
			<polygon class="st0" points="22.3,130.6 18.7,128 15,130.6 16.4,126.3 12.7,123.7 17.2,123.7 18.7,119.4 20,123.7 24.6,123.7 
				20.9,126.3 			"/>
			<polygon class="st0" points="38.9,112.1 35.2,109.4 31.5,112.1 32.9,107.8 29.3,105.1 33.8,105.1 35.2,100.9 36.6,105.1 
				41.1,105.1 37.5,107.8 			"/>
			<polygon class="st0" points="37.8,70.1 39.2,74.4 35.5,71.7 31.9,74.4 33.3,70.1 29.6,67.5 34.1,67.5 35.5,63.2 36.9,67.5 
				41.4,67.5 			"/>
			<polygon class="st0" points="56.1,130.6 52.4,128 48.8,130.6 50.2,126.3 46.5,123.7 51,123.7 52.4,119.4 53.8,123.7 58.4,123.7 
				54.7,126.3 			"/>
			<polygon class="st0" points="56.3,88.4 54.7,89.5 56.1,93.8 52.4,91.2 48.8,93.8 50.2,89.5 48.5,88.4 46.5,86.9 51,86.9 
				52.4,82.6 53.8,86.9 58.4,86.9 			"/>
			<polygon class="st0" points="54.7,51 56.1,55.3 52.4,52.6 48.8,55.3 50.2,51 46.5,48.3 51,48.3 52.4,44 53.8,48.3 58.4,48.3 			
				"/>
			<polygon class="st0" points="72.6,113.4 69,110.8 65.3,113.4 66.7,109.1 63.1,106.5 67.6,106.5 69,102.2 70.4,106.5 74.9,106.5 
				71.2,109.1 			"/>
			<polygon class="st0" points="71.6,71.5 73,75.7 69.3,73.1 65.7,75.7 67.1,71.5 63.4,68.8 67.9,68.8 69.3,64.5 70.7,68.8 
				75.2,68.8 			"/>
			<polygon class="st0" points="71.9,33.3 73.3,37.6 69.7,35 66,37.6 67.4,33.3 63.8,30.7 68.3,30.7 69.7,26.4 71.1,30.7 75.6,30.7 
							"/>
			<polygon class="st0" points="89.9,130.6 86.2,128 82.6,130.6 84,126.3 80.3,123.7 84.8,123.7 86.2,119.4 87.6,123.7 92.1,123.7 
				88.5,126.3 			"/>
			<polygon class="st0" points="90.1,88.4 88.5,89.5 89.9,93.8 86.2,91.2 82.6,93.8 84,89.5 82.3,88.4 80.3,86.9 84.8,86.9 
				86.2,82.6 87.6,86.9 92.1,86.9 			"/>
			<polygon class="st0" points="88.5,51 89.9,55.3 86.2,52.6 82.6,55.3 84,51 80.3,48.3 84.8,48.3 86.2,44 87.6,48.3 92.1,48.3 			
				"/>
			<polygon class="st0" points="106.4,113.4 102.8,110.8 99.1,113.4 100.5,109.1 96.9,106.5 101.4,106.5 102.8,102.2 104.2,106.5 
				108.7,106.5 105,109.1 			"/>
			<polygon class="st0" points="105.4,71.5 106.8,75.7 103.1,73.1 99.5,75.7 100.9,71.5 97.2,68.8 101.7,68.8 103.1,64.5 
				104.5,68.8 109,68.8 			"/>
			<polygon class="st0" points="105.7,33.3 107.1,37.6 103.5,35 99.8,37.6 101.2,33.3 97.6,30.7 102.1,30.7 103.5,26.4 104.8,30.7 
				109.4,30.7 			"/>
			<polygon class="st0" points="123.7,130.6 120,128 116.4,130.6 117.8,126.3 114.1,123.7 118.6,123.7 120,119.4 121.4,123.7 
				125.9,123.7 122.3,126.3 			"/>
			<polygon class="st0" points="123.9,88.4 122.3,89.5 123.7,93.8 120,91.2 116.4,93.8 117.8,89.5 116.1,88.4 114.1,86.9 
				118.6,86.9 120,82.6 121.4,86.9 125.9,86.9 			"/>
			<polygon class="st0" points="122.3,51 123.7,55.3 120,52.6 116.4,55.3 117.8,51 114.1,48.3 118.6,48.3 120,44 121.4,48.3 
				125.9,48.3 			"/>
			<polygon class="st0" points="122.3,13.3 123.7,17.6 120,14.9 116.4,17.6 117.8,13.3 114.1,10.6 118.6,10.6 120,6.3 121.4,10.6 
				125.9,10.6 			"/>
			<path class="st0" d="M86.2,14.9l3.6,2.7l-1.4-4.3l0.5-0.4c-1.9,0.7-3.8,1.5-5.7,2.4l-0.7,2.3L86.2,14.9z"/>
			<polygon class="st0" points="86.2,44 84.8,48.3 80.3,48.3 84,51 82.6,55.3 86.2,52.6 89.9,55.3 88.5,51 92.1,48.3 87.6,48.3 			
				"/>
			<polygon class="st0" points="86.2,82.6 84.8,86.9 80.3,86.9 82.3,88.4 84,89.5 82.6,93.8 86.2,91.2 89.9,93.8 88.5,89.5 
				90.1,88.4 92.1,86.9 87.6,86.9 			"/>
			<polygon class="st0" points="87.6,123.7 86.2,119.4 84.8,123.7 80.3,123.7 84,126.3 82.6,130.6 86.2,128 89.9,130.6 88.5,126.3 
				92.1,123.7 			"/>
			<polygon class="st0" points="52.4,44 51,48.3 46.5,48.3 50.2,51 48.8,55.3 52.4,52.6 56.1,55.3 54.7,51 58.4,48.3 53.8,48.3 			
				"/>
			<polygon class="st0" points="52.4,82.6 51,86.9 46.5,86.9 48.5,88.4 50.2,89.5 48.8,93.8 52.4,91.2 56.1,93.8 54.7,89.5 
				56.3,88.4 58.4,86.9 53.8,86.9 			"/>
			<polygon class="st0" points="53.8,123.7 52.4,119.4 51,123.7 46.5,123.7 50.2,126.3 48.8,130.6 52.4,128 56.1,130.6 54.7,126.3 
				58.4,123.7 			"/>
			<path class="st0" d="M15,93.8L15,93.8c0.1-0.1,0.1-0.2,0.1-0.3L15,93.8z"/>
			<path class="st0" d="M18.7,82.6l-1,2.9c0.3-0.9,0.7-1.8,1.1-2.6L18.7,82.6z"/>
			<path class="st0" d="M22.3,93.8l-1.4-4.3l1.6-1.2l2-1.5H20l-1.3-4c-0.3,0.9-0.7,1.8-1.1,2.6l-0.4,1.4h0c-0.3,0.9-0.6,1.7-0.9,2.6
				l0,0l-1.3,4c0,0.1-0.1,0.2-0.1,0.3l3.6-2.6L22.3,93.8z"/>
			<polygon class="st0" points="20,123.7 18.7,119.4 17.2,123.7 12.7,123.7 16.4,126.3 15,130.6 18.7,128 22.3,130.6 20.9,126.3 
				24.6,123.7 			"/>
			<polygon class="st0" points="103.1,64.5 101.7,68.8 97.2,68.8 100.9,71.5 99.5,75.7 103.1,73.1 106.8,75.7 105.4,71.5 109,68.8 
				104.5,68.8 			"/>
			<polygon class="st0" points="104.2,106.5 102.8,102.2 101.4,106.5 96.9,106.5 100.5,109.1 99.1,113.4 102.8,110.8 106.4,113.4 
				105,109.1 108.7,106.5 			"/>
			<polygon class="st0" points="69.3,64.5 67.9,68.8 63.4,68.8 67.1,71.5 65.7,75.7 69.3,73.1 73,75.7 71.6,71.5 75.2,68.8 
				70.7,68.8 			"/>
			<polygon class="st0" points="70.4,106.5 69,102.2 67.6,106.5 63.1,106.5 66.7,109.1 65.3,113.4 69,110.8 72.6,113.4 71.2,109.1 
				74.9,106.5 			"/>
			<polygon class="st0" points="35.5,63.2 34.1,67.5 29.6,67.5 33.3,70.1 31.9,74.4 35.5,71.7 39.2,74.4 37.8,70.1 41.4,67.5 
				36.9,67.5 			"/>
			<polygon class="st0" points="36.6,105.1 35.2,100.9 33.8,105.1 29.3,105.1 32.9,107.8 31.5,112.1 35.2,109.4 38.9,112.1 
				37.5,107.8 41.1,105.1 			"/>
			<polygon class="st0" points="120,44 118.6,48.3 114.1,48.3 117.8,51 116.4,55.3 120,52.6 123.7,55.3 122.3,51 125.9,48.3 
				121.4,48.3 			"/>
			<polygon class="st0" points="69.7,26.4 68.3,30.7 63.8,30.7 67.4,33.3 66,37.6 69.7,35 73.3,37.6 71.9,33.3 75.6,30.7 71.1,30.7 
							"/>
			<polygon class="st0" points="103.5,26.4 102.1,30.7 97.6,30.7 101.2,33.3 99.8,37.6 103.5,35 107.1,37.6 105.7,33.3 109.4,30.7 
				104.8,30.7 			"/>
			<polygon class="st0" points="120,6.3 118.6,10.6 114.1,10.6 117.8,13.3 116.4,17.6 120,14.9 123.7,17.6 122.3,13.3 125.9,10.6 
				121.4,10.6 			"/>
			<polygon class="st0" points="120,82.6 118.6,86.9 114.1,86.9 116.1,88.4 117.8,89.5 116.4,93.8 120,91.2 123.7,93.8 122.3,89.5 
				123.9,88.4 125.9,86.9 121.4,86.9 			"/>
			<polygon class="st0" points="121.4,123.7 120,119.4 118.6,123.7 114.1,123.7 117.8,126.3 116.4,130.6 120,128 123.7,130.6 
				122.3,126.3 125.9,123.7 			"/>
		</g>
	</g>
</g>
<linearGradient id="SVGID_1_" gradientUnits="userSpaceOnUse" x1="284.2163" y1="981.9489" x2="232.2163" y2="871.9489" gradientTransform="matrix(1 0 0 1 0 -618.1102)">
	<stop  offset="0" style="stop-color:#F2F2F2"/>
	<stop  offset="9.150000e-02" style="stop-color:#E6E6E6"/>
	<stop  offset="0.2571" style="stop-color:#C6C6C6"/>
	<stop  offset="0.4781" style="stop-color:#929292"/>
	<stop  offset="0.7426" style="stop-color:#4C4C4C"/>
	<stop  offset="1" style="stop-color:#000000"/>
</linearGradient>
<path class="st3" d="M232.6,244.9l14.9,41.1c0,0-13.8,14.7-11.7,25.6c1.3,6.4,4.7,16.3,8.2,23.7c16,34.2,51.7,88.3,51.7,88.3
	l23.8-12.6c0,0-12.7-48.1-26.3-83.1c-2-5.1-9.7-21.9-12.6-27c-8.6-14.9-27-17.4-27-17.4l-18.9-38.2L232.6,244.9z"/>
<g class="st4">
	<path class="st5" d="M473.5,87.2l-1.5-1.8l-66.6,7.3l0.7-0.8c0.1-0.1,0.1-0.2,0.2-0.2l0.9-1c1.2-1.8,1.2-2.2,1.4-3.9
		c0.4-4.5-5.5-11.2-10.4-10.1c-1.4,0.3-2.4,0.7-3.4,1.3l-4.9-64.2l-1.2-0.4l-36,38.1l-3.2,36.1l-30-2.2l-29.6,36.2l0,0.4l-0.8,0.9
		l0.7,0.2v0.1l39.9,8.2l-75.4,62c-1.4,1.3-2.6,2.5-3.6,3.7c-2.2,2.4-3.3,4.6-3.9,6.4c-2.6,8.7-1.4,16.3,2.1,22.1l-0.6,0.8
		c0,0-0.4,0.5-0.8,1.1L233.2,244c-0.6,0.6,1.1,1.3,1.7,0.7l17.9-12.5c0,0,0.1,0,0.1,0l1-0.8c5.5,4.6,13.1,6.6,20.4,5
		c2.6-0.6,6.3-3.2,9.5-6.7l10-11.2c0.5-0.4,1-0.8,1.4-1.3c-0.2,0.1-0.3,0.1-0.5,0.2l45.2-50.9c0.5-0.3,1-0.8,1.5-1.2
		c-0.2,0.1-0.4,0.2-0.6,0.3l2.6-2.9l0,0l12-13.5l7,13.4l0,0l15.1,29l0.2,0.4l0.4,0.8l34.4-25.7l-8.3-41.6l36.5-9.5L473.5,87.2z"/>
	<g class="st6">
		
			<linearGradient id="SVGID_2_" gradientUnits="userSpaceOnUse" x1="944.3601" y1="808.7718" x2="956.8508" y2="797.1139" gradientTransform="matrix(-0.9998 1.930000e-02 1.930000e-02 0.9998 1177.7931 -588.073)">
			<stop  offset="6.816230e-03" style="stop-color:#231815"/>
			<stop  offset="0.5" style="stop-color:#F2F2F2"/>
			<stop  offset="1" style="stop-color:#241916"/>
		</linearGradient>
		<path class="st7" d="M251.8,219.9l-19.3,24.4c-0.1,0.6,1,1.4,1.5,1.1l23-19C254.6,224.7,253,222.4,251.8,219.9z"/>
		<path class="st8" d="M248.6,223.9c0,0-1.6,2.4,0.4,4.4c2.4,2.3,4.1,1.3,4.1,1.3l4.1-3.2l-7-4.9L248.6,223.9z"/>
		<path class="st8" d="M248.6,223.9c0,0-1.6,2.4,0.4,4.4c2.4,2.3,4.1,1.3,4.1,1.3l4.1-3.2l-7-4.9L248.6,223.9z"/>
		<path class="st9" d="M249.5,222.8c0,0-1.9,2.6,0.9,5c2.5,2.2,3.7,1.1,3.7,1.1l4.5-4.1l-7-4.9L249.5,222.8z"/>
		<g>
			<g>
				<g>
					<defs>
						<polygon id="SVGID_3_" points="1,1 2,1 1,2 						"/>
					</defs>
					<clipPath id="SVGID_4_">
						<use xlink:href="#SVGID_3_"  style="overflow:visible;"/>
					</clipPath>
				</g>
				<g>
					<defs>
						<polygon id="SVGID_5_" points="1,1 2,1 1,2 						"/>
					</defs>
					<defs>
						<polygon id="SVGID_6_" points="-1,-1 -2,-1 -1,-2 						"/>
					</defs>
					<clipPath id="SVGID_7_">
						<use xlink:href="#SVGID_5_"  style="overflow:visible;"/>
					</clipPath>
					<clipPath id="SVGID_8_" class="st10">
						<use xlink:href="#SVGID_6_"  style="overflow:visible;"/>
					</clipPath>
					
						<linearGradient id="SVGID_9_" gradientUnits="userSpaceOnUse" x1="942.2906" y1="796.837" x2="947.9793" y2="802.4044" gradientTransform="matrix(-0.9998 1.930000e-02 1.930000e-02 0.9998 1177.7931 -588.073)">
						<stop  offset="6.816230e-03" style="stop-color:#FFFFFF"/>
						<stop  offset="1" style="stop-color:#858585"/>
					</linearGradient>
					<path class="st11" d="M248.6,223.9c0,0-3.6,4.6-3.1,5.3c1.7,2.9,7.6,0.4,7.6,0.4l4.1-3.2l-7-4.9L248.6,223.9z"/>
				</g>
			</g>
		</g>
		
			<linearGradient id="SVGID_10_" gradientUnits="userSpaceOnUse" x1="942.2906" y1="796.837" x2="947.9793" y2="802.4044" gradientTransform="matrix(-0.9998 1.930000e-02 1.930000e-02 0.9998 1177.7931 -588.073)">
			<stop  offset="6.816230e-03" style="stop-color:#FCEF30"/>
			<stop  offset="1" style="stop-color:#FFF26B"/>
		</linearGradient>
		<path class="st12" d="M248.6,223.9c0,0-3.6,4.6-3.1,5.3c1.7,2.9,7.6,0.4,7.6,0.4l4.1-3.2l-7-4.9L248.6,223.9z"/>
		
			<linearGradient id="SVGID_11_" gradientUnits="userSpaceOnUse" x1="746.7664" y1="611.96" x2="832.7935" y2="636.6279" gradientTransform="matrix(-0.9988 4.820000e-02 4.820000e-02 0.9988 1183.1851 -558.1402)">
			<stop  offset="0" style="stop-color:#FDDC3F"/>
			<stop  offset="0.34" style="stop-color:#FCCF00"/>
			<stop  offset="0.99" style="stop-color:#EEBA00"/>
			<stop  offset="1" style="stop-color:#E1AD00"/>
		</linearGradient>
		<polygon class="st13" points="386.5,128.5 438.5,114.8 471,86.3 400.5,95.5 397.2,98.1 		"/>
		<polygon class="st14" points="386.5,128.5 438.5,114.8 471,86.3 400.5,95.5 397.2,98.1 		"/>
		
			<linearGradient id="SVGID_12_" gradientUnits="userSpaceOnUse" x1="749.0374" y1="608.1759" x2="808.8328" y2="613.4073" gradientTransform="matrix(-0.9988 4.820000e-02 4.820000e-02 0.9988 1183.1851 -558.1402)">
			<stop  offset="0" style="stop-color:#FDDC3F"/>
			<stop  offset="0.76" style="stop-color:#E6B800"/>
			<stop  offset="1" style="stop-color:#D59B14"/>
		</linearGradient>
		<polygon class="st15" points="471,86.3 469.5,84.6 401.7,92.1 400.5,95.5 		"/>
		
			<linearGradient id="SVGID_13_" gradientUnits="userSpaceOnUse" x1="824.5564" y1="519.9586" x2="820.5012" y2="597.338" gradientTransform="matrix(-0.9988 4.820000e-02 4.820000e-02 0.9988 1183.1851 -558.1402)">
			<stop  offset="0" style="stop-color:#FDDC3F"/>
			<stop  offset="0.76" style="stop-color:#E6B800"/>
			<stop  offset="1" style="stop-color:#D59B14"/>
		</linearGradient>
		<path class="st16" d="M387,13.5l1.2,0.4l4.9,64.1c-1.3,0.9-1.6,0.8-2.8,1.8L387,13.5z"/>
		
			<linearGradient id="SVGID_14_" gradientUnits="userSpaceOnUse" x1="854.95" y1="506.6192" x2="833.0027" y2="631.0894" gradientTransform="matrix(-0.9988 4.820000e-02 4.820000e-02 0.9988 1183.1851 -558.1402)">
			<stop  offset="0" style="stop-color:#FDDC3F"/>
			<stop  offset="0.34" style="stop-color:#FCCF00"/>
			<stop  offset="0.99" style="stop-color:#EEBA00"/>
			<stop  offset="1" style="stop-color:#E1AD00"/>
		</linearGradient>
		<polygon class="st17" points="348.2,88 351.5,51.2 387,13.5 390.3,79.7 379,89 		"/>
		
			<linearGradient id="SVGID_15_" gradientUnits="userSpaceOnUse" x1="955.5719" y1="754.8068" x2="834.6119" y2="582.0578" gradientTransform="matrix(-0.9988 4.820000e-02 4.820000e-02 0.9988 1183.1851 -558.1402)">
			<stop  offset="0" style="stop-color:#FDDC3F"/>
			<stop  offset="0.34" style="stop-color:#FCCF00"/>
			<stop  offset="0.78" style="stop-color:#EEBA00"/>
			<stop  offset="1" style="stop-color:#F7D847"/>
		</linearGradient>
		<path class="st18" d="M404.4,91.1L283.6,227.2c-3.2,3.5-6.9,6.1-9.4,6.6c-16.2,3.7-33.7-10.9-27.2-32.5c0.8-2.5,2.6-5.5,6.4-8.8
			L378.8,89.2c3.9-3.6,7.7-6.8,11.6-9.5c1.5-1.2,3-2,5.1-2.5c4.8-1,10.7,5.6,10.3,10C405.6,89,405.6,89.4,404.4,91.1z"/>
		
			<linearGradient id="SVGID_16_" gradientUnits="userSpaceOnUse" x1="929.9214" y1="605.6735" x2="834.117" y2="638.6618" gradientTransform="matrix(-0.9988 4.820000e-02 4.820000e-02 0.9988 1183.1851 -558.1402)">
			<stop  offset="0" style="stop-color:#FDDC3F"/>
			<stop  offset="0.34" style="stop-color:#FCCF00"/>
			<stop  offset="0.99" style="stop-color:#EEBA00"/>
			<stop  offset="1" style="stop-color:#E1AD00"/>
		</linearGradient>
		<polygon class="st19" points="332.5,130.9 289.4,122 317.2,88.9 380,91.1 		"/>
		
			<linearGradient id="SVGID_17_" gradientUnits="userSpaceOnUse" x1="893.4673" y1="611.3709" x2="838.7595" y2="601.7245" gradientTransform="matrix(-0.9988 4.820000e-02 4.820000e-02 0.9988 1183.1851 -558.1402)">
			<stop  offset="0" style="stop-color:#FDDC3F"/>
			<stop  offset="0.76" style="stop-color:#E6B800"/>
			<stop  offset="1" style="stop-color:#D59B14"/>
		</linearGradient>
		<path class="st20" d="M380,91.1l-62.8-2.2l-0.5-1.5L379,89C379.2,89.9,379.6,90.5,380,91.1z"/>
		<polygon class="st21" points="289.4,122 289.5,120.4 316.8,87.3 317.2,88.9 		"/>
		<path class="st22" d="M271,209.4c8.4,8.6,19,11,23.9,5.5c-5.2,2.8-13.9,0.1-21.2-7.1c-8.6-8.5-12-20-7.5-25.7
			c0.2-0.3,0.4-0.5,0.6-0.7c-0.9,0.5-1.7,1.1-2.4,1.9C259.6,189,262.5,200.7,271,209.4z"/>
		<path class="st22" d="M281.4,200.6c8.1,7.9,17.6,10.1,21.4,4.9c-4.3,2.7-12.1,0.2-19.1-6.4c-8.3-7.8-12.3-18.4-8.9-23.7
			c0.1-0.2,0.3-0.5,0.5-0.7c-0.7,0.5-1.4,1.1-1.9,1.8C269.6,181.9,273.3,192.7,281.4,200.6z"/>
		<path class="st22" d="M322.4,159.7c6.4,6.4,14.4,8.1,18,3.9c-3.9,2.2-10.5,0.2-16-5.1c-6.5-6.3-9.2-14.9-5.9-19.3
			c0.1-0.2,0.3-0.4,0.5-0.6c-0.7,0.4-1.3,0.9-1.8,1.5C313.6,144.5,315.9,153.2,322.4,159.7z"/>
		<path class="st22" d="M328.7,154.5c6.1,5.9,13.3,7.4,16.1,3.5c-3.2,2-9.1,0.3-14.5-4.6c-6.3-5.8-9.4-13.7-6.9-17.8
			c0.1-0.2,0.2-0.4,0.4-0.5c-0.5,0.4-1,0.8-1.4,1.4C319.7,140.5,322.5,148.6,328.7,154.5z"/>
		
			<linearGradient id="SVGID_18_" gradientUnits="userSpaceOnUse" x1="824.5564" y1="519.9586" x2="820.5012" y2="597.338" gradientTransform="matrix(-0.9988 4.820000e-02 4.820000e-02 0.9988 1183.1851 -558.1402)">
			<stop  offset="0" style="stop-color:#FDDC3F"/>
			<stop  offset="0.76" style="stop-color:#E6B800"/>
			<stop  offset="1" style="stop-color:#D59B14"/>
		</linearGradient>
		<path class="st23" d="M387,13.5l1.2,0.4l4.9,64.1c-1.3,0.9-1.6,0.8-2.8,1.8L387,13.5z"/>
		
			<linearGradient id="SVGID_19_" gradientUnits="userSpaceOnUse" x1="854.95" y1="506.6192" x2="833.0027" y2="631.0894" gradientTransform="matrix(-0.9988 4.820000e-02 4.820000e-02 0.9988 1183.1851 -558.1402)">
			<stop  offset="0" style="stop-color:#FDDC3F"/>
			<stop  offset="0.34" style="stop-color:#FCCF00"/>
			<stop  offset="0.99" style="stop-color:#EEBA00"/>
			<stop  offset="1" style="stop-color:#E1AD00"/>
		</linearGradient>
		<polygon class="st24" points="348.2,88 351.5,51.2 387,13.5 390.3,79.7 379,89 		"/>
		<polygon class="st25" points="348.2,88 351.5,51.2 387,13.5 390.3,79.7 379,89 		"/>
		
			<linearGradient id="SVGID_20_" gradientUnits="userSpaceOnUse" x1="843.364" y1="746.0289" x2="865.5693" y2="721.9045" gradientTransform="matrix(-0.9998 1.930000e-02 1.930000e-02 0.9998 1177.7931 -588.073)">
			<stop  offset="0" style="stop-color:#FDDC3F"/>
			<stop  offset="0.34" style="stop-color:#F5CA00"/>
			<stop  offset="0.3438" style="stop-color:#F4C900"/>
			<stop  offset="0.4039" style="stop-color:#E3B600"/>
			<stop  offset="0.4661" style="stop-color:#D8AB00"/>
			<stop  offset="0.5334" style="stop-color:#D5A700"/>
			<stop  offset="0.672" style="stop-color:#D5A700"/>
			<stop  offset="0.7618" style="stop-color:#DDB20F"/>
			<stop  offset="0.8119" style="stop-color:#E2B919"/>
			<stop  offset="1" style="stop-color:#F7D847"/>
		</linearGradient>
		<path class="st26" d="M405.4,89.9L284.6,226c-3.2,3.5-6.9,6.1-9.4,6.6c-16.2,3.7-33.7-10.9-27.2-32.5c0.8-2.5,2.6-5.5,6.4-8.8
			L379.8,88.1c3.9-3.6,7.7-6.8,11.6-9.5c1.5-1.2,3-2,5.1-2.5c4.8-1,10.7,5.6,10.3,10C406.6,87.8,406.6,88.2,405.4,89.9z"/>
		
			<linearGradient id="SVGID_21_" gradientUnits="userSpaceOnUse" x1="929.9214" y1="605.6735" x2="834.117" y2="638.6618" gradientTransform="matrix(-0.9988 4.820000e-02 4.820000e-02 0.9988 1183.1851 -558.1402)">
			<stop  offset="0" style="stop-color:#FDDC3F"/>
			<stop  offset="0.34" style="stop-color:#FCCF00"/>
			<stop  offset="0.99" style="stop-color:#EEBA00"/>
			<stop  offset="1" style="stop-color:#E1AD00"/>
		</linearGradient>
		<polygon class="st27" points="332.5,130.9 289.4,122 319.8,86.7 380,91.1 		"/>
		
			<linearGradient id="SVGID_22_" gradientUnits="userSpaceOnUse" x1="891.3066" y1="609.9029" x2="838.7979" y2="600.6443" gradientTransform="matrix(-0.9988 4.820000e-02 4.820000e-02 0.9988 1183.1851 -558.1402)">
			<stop  offset="0" style="stop-color:#FDDC3F"/>
			<stop  offset="0.76" style="stop-color:#E6B800"/>
			<stop  offset="1" style="stop-color:#D59B14"/>
		</linearGradient>
		<path class="st28" d="M380,91.1l-60.2-4.4l-1.1-2L379,89C379.2,89.9,379.6,90.5,380,91.1z"/>
		<polygon class="st21" points="289.4,122 289.5,120.4 318.7,84.7 319.8,86.7 		"/>
		
			<linearGradient id="SVGID_23_" gradientUnits="userSpaceOnUse" x1="897.4153" y1="797.4185" x2="927.1926" y2="761.8307" gradientTransform="matrix(-0.9998 1.930000e-02 1.930000e-02 0.9998 1177.7931 -588.073)">
			<stop  offset="0" style="stop-color:#FFFFFF"/>
			<stop  offset="0.2116" style="stop-color:#D62923"/>
			<stop  offset="0.2196" style="stop-color:#D1221E"/>
			<stop  offset="0.2453" style="stop-color:#C40F13"/>
			<stop  offset="0.272" style="stop-color:#BD040C"/>
			<stop  offset="0.3007" style="stop-color:#BA000A"/>
			<stop  offset="0.3623" style="stop-color:#BB1010"/>
			<stop  offset="0.4394" style="stop-color:#BC2A1B"/>
			<stop  offset="0.557" style="stop-color:#CB2D1F"/>
			<stop  offset="0.7265" style="stop-color:#E73226"/>
			<stop  offset="0.9988" style="stop-color:#F5BEBE"/>
		</linearGradient>
		<path class="st29" d="M271,209.4c8.4,8.6,19,11,23.9,5.5c-5.2,2.8-13.9,0.1-21.2-7.1c-8.6-8.5-12-20-7.5-25.7
			c0.2-0.3,0.4-0.5,0.6-0.7c-0.9,0.5-1.7,1.1-2.4,1.9C259.6,189,262.5,200.7,271,209.4z"/>
		
			<linearGradient id="SVGID_24_" gradientUnits="userSpaceOnUse" x1="890.1694" y1="762.3074" x2="920.6025" y2="762.3074" gradientTransform="matrix(-0.9998 1.930000e-02 1.930000e-02 0.9998 1177.7931 -588.073)">
			<stop  offset="0" style="stop-color:#FFFFFF"/>
			<stop  offset="0.2116" style="stop-color:#D62923"/>
			<stop  offset="0.2196" style="stop-color:#D1221E"/>
			<stop  offset="0.2453" style="stop-color:#C40F13"/>
			<stop  offset="0.272" style="stop-color:#BD040C"/>
			<stop  offset="0.3007" style="stop-color:#BA000A"/>
			<stop  offset="0.3623" style="stop-color:#BB1010"/>
			<stop  offset="0.4394" style="stop-color:#BC2A1B"/>
			<stop  offset="0.557" style="stop-color:#CB2D1F"/>
			<stop  offset="0.7265" style="stop-color:#E73226"/>
			<stop  offset="0.9988" style="stop-color:#F5BEBE"/>
		</linearGradient>
		<path class="st30" d="M281.4,200.6c8.1,7.9,17.6,10.1,21.4,4.9c-4.3,2.7-12.1,0.2-19.1-6.4c-8.3-7.8-12.3-18.4-8.9-23.7
			c0.1-0.2,0.3-0.5,0.5-0.7c-0.7,0.5-1.4,1.1-1.9,1.8C269.6,181.9,273.3,192.7,281.4,200.6z"/>
		
			<linearGradient id="SVGID_25_" gradientUnits="userSpaceOnUse" x1="851.7563" y1="723.7995" x2="876.2642" y2="723.7995" gradientTransform="matrix(-0.9998 1.930000e-02 1.930000e-02 0.9998 1177.7931 -588.073)">
			<stop  offset="0" style="stop-color:#FFFFFF"/>
			<stop  offset="0.2116" style="stop-color:#DBDCDC"/>
			<stop  offset="0.3007" style="stop-color:#DADADB"/>
			<stop  offset="0.3804" style="stop-color:#CACBCC"/>
			<stop  offset="0.3886" style="stop-color:#C8C9CA"/>
			<stop  offset="0.485" style="stop-color:#D7D8D8"/>
			<stop  offset="0.573" style="stop-color:#E8E9E9"/>
			<stop  offset="0.995" style="stop-color:#FFFFFF"/>
		</linearGradient>
		<path class="st31" d="M322.4,159.7c6.4,6.4,14.4,8.1,18,3.9c-3.9,2.2-10.5,0.2-16-5.1c-6.5-6.3-9.2-14.9-5.9-19.3
			c0.1-0.2,0.3-0.4,0.5-0.6c-0.7,0.4-1.3,0.9-1.8,1.5C313.6,144.5,315.9,153.2,322.4,159.7z"/>
		
			<linearGradient id="SVGID_26_" gradientUnits="userSpaceOnUse" x1="847.1987" y1="719.251" x2="870.3016" y2="719.251" gradientTransform="matrix(-0.9998 1.930000e-02 1.930000e-02 0.9998 1177.7931 -588.073)">
			<stop  offset="0" style="stop-color:#FFFFFF"/>
			<stop  offset="0.2116" style="stop-color:#DBDCDC"/>
			<stop  offset="0.3007" style="stop-color:#DADADB"/>
			<stop  offset="0.3804" style="stop-color:#CACBCC"/>
			<stop  offset="0.3886" style="stop-color:#C8C9CA"/>
			<stop  offset="0.485" style="stop-color:#D7D8D8"/>
			<stop  offset="0.573" style="stop-color:#E8E9E9"/>
			<stop  offset="0.995" style="stop-color:#FFFFFF"/>
		</linearGradient>
		<path class="st32" d="M328.7,154.5c6.1,5.9,13.3,7.4,16.1,3.5c-3.2,2-9.1,0.3-14.5-4.6c-6.3-5.8-9.4-13.7-6.9-17.8
			c0.1-0.2,0.2-0.4,0.4-0.5c-0.5,0.4-1,0.8-1.4,1.4C319.7,140.5,322.5,148.6,328.7,154.5z"/>
		
			<linearGradient id="SVGID_27_" gradientUnits="userSpaceOnUse" x1="792.8262" y1="704.7728" x2="870.2254" y2="621.7723" gradientTransform="matrix(-0.9988 4.820000e-02 4.820000e-02 0.9988 1183.1851 -558.1402)">
			<stop  offset="0" style="stop-color:#FDDC3F"/>
			<stop  offset="0.34" style="stop-color:#FCCF00"/>
			<stop  offset="0.99" style="stop-color:#EEBA00"/>
			<stop  offset="1" style="stop-color:#E1AD00"/>
		</linearGradient>
		<polygon class="st33" points="354.1,147.7 376.6,190.8 410.6,165.3 395.6,101 		"/>
		
			<linearGradient id="SVGID_28_" gradientUnits="userSpaceOnUse" x1="804.7101" y1="683.6187" x2="821.0305" y2="618.1619" gradientTransform="matrix(-0.9988 4.820000e-02 4.820000e-02 0.9988 1183.1851 -558.1402)">
			<stop  offset="0" style="stop-color:#FDDC3F"/>
			<stop  offset="0.76" style="stop-color:#E6B800"/>
			<stop  offset="1" style="stop-color:#D59B14"/>
		</linearGradient>
		<polygon class="st34" points="395.6,101 408.3,164.5 410.6,165.3 397.4,99 		"/>
		
			<linearGradient id="SVGID_29_" gradientUnits="userSpaceOnUse" x1="841.9561" y1="699.4515" x2="807.7249" y2="694.0298" gradientTransform="matrix(-0.9988 4.820000e-02 4.820000e-02 0.9988 1183.1851 -558.1402)">
			<stop  offset="0" style="stop-color:#FDDC3F"/>
			<stop  offset="0.34" style="stop-color:#FCCF00"/>
			<stop  offset="0.99" style="stop-color:#EEBA00"/>
			<stop  offset="1" style="stop-color:#E1AD00"/>
		</linearGradient>
		<polygon class="st35" points="408.3,164.5 376.2,189.9 376.6,190.8 410.6,165.3 		"/>
		
			<linearGradient id="SVGID_30_" gradientUnits="userSpaceOnUse" x1="804.7176" y1="683.5895" x2="821.4175" y2="616.6089" gradientTransform="matrix(-0.9988 4.820000e-02 4.820000e-02 0.9988 1183.1851 -558.1402)">
			<stop  offset="0" style="stop-color:#FDDC3F"/>
			<stop  offset="0.76" style="stop-color:#E6B800"/>
			<stop  offset="1" style="stop-color:#D59B14"/>
		</linearGradient>
		<polygon class="st36" points="395,98 408.3,164.5 410.6,165.3 397.4,99 		"/>
		
			<linearGradient id="SVGID_31_" gradientUnits="userSpaceOnUse" x1="858.8978" y1="642.8737" x2="825.7303" y2="624.1112" gradientTransform="matrix(-0.9807 0.1955 0.1955 0.9807 1075.3721 -590.8445)">
			<stop  offset="0" style="stop-color:#FDDC3F"/>
			<stop  offset="0.34" style="stop-color:#FCCF00"/>
			<stop  offset="0.99" style="stop-color:#EEBA00"/>
			<stop  offset="1" style="stop-color:#E1AD00"/>
		</linearGradient>
		<polygon class="st37" points="408.3,164.5 376.2,189.9 376.6,190.8 410.6,165.3 		"/>
		
			<linearGradient id="SVGID_32_" gradientUnits="userSpaceOnUse" x1="793.5975" y1="702.4977" x2="871.2672" y2="619.207" gradientTransform="matrix(-0.9988 4.820000e-02 4.820000e-02 0.9988 1183.1851 -558.1402)">
			<stop  offset="0" style="stop-color:#FDDC3F"/>
			<stop  offset="0.34" style="stop-color:#FCCF00"/>
			<stop  offset="0.99" style="stop-color:#EEBA00"/>
			<stop  offset="1" style="stop-color:#E1AD00"/>
		</linearGradient>
		<polygon class="st38" points="353.5,144.8 376.2,189.9 408.3,164.5 395,98 		"/>
		<path class="st14" d="M331.8,130.6c0,0-1,2.3-1.5,4.8c-0.9,5,0.1,8.5,0.5,11c0.8,4.8,2.5,8.6,5.9,11.9c2.3,2.3,5.6,2.7,5.6,2.7
			l11.8-13.3l6.9,13.2l23.5-51c0,0-0.7-0.6-1.5-1.5c-1.3-1.5-3.1-3.8-3.7-5.4c-2.3-6.1,0.7-11.9,0.7-11.9l-60.9-4.6l-30.4,35.3"/>
		<path class="st39" d="M247.1,214.8c0,0-0.4-2.4-0.3-7.5c0.1-5.3,3.9-8.9,3.9-8.9l74.8-62.9L247.1,214.8z"/>
		<g>
			<g>
				<g>
					<defs>
						<polygon id="SVGID_33_" points="1,1 2,1 1,2 						"/>
					</defs>
					<clipPath id="SVGID_34_">
						<use xlink:href="#SVGID_33_"  style="overflow:visible;"/>
					</clipPath>
				</g>
				<g>
					<defs>
						<polygon id="SVGID_35_" points="1,1 2,1 1,2 						"/>
					</defs>
					<defs>
						<polygon id="SVGID_36_" points="-1,-1 -2,-1 -1,-2 						"/>
					</defs>
					<clipPath id="SVGID_37_">
						<use xlink:href="#SVGID_35_"  style="overflow:visible;"/>
					</clipPath>
					<clipPath id="SVGID_38_" class="st40">
						<use xlink:href="#SVGID_36_"  style="overflow:visible;"/>
					</clipPath>
					
						<linearGradient id="SVGID_39_" gradientUnits="userSpaceOnUse" x1="807.1893" y1="679.9244" x2="883.8377" y2="758.7018" gradientTransform="matrix(-0.9998 1.930000e-02 1.930000e-02 0.9998 1177.7931 -588.073)">
						<stop  offset="0" style="stop-color:#6B6B6B"/>
						<stop  offset="8.460000e-02" style="stop-color:#646464"/>
						<stop  offset="0.4326" style="stop-color:#4A4A4A"/>
						<stop  offset="0.748" style="stop-color:#3B3B3B"/>
						<stop  offset="1" style="stop-color:#363636"/>
					</linearGradient>
					<path class="st41" d="M272.9,231.7c0,0-3.7-0.3-4.8-0.4c-2.9-0.3-4.8-1-4.8-1L397.7,90.8L272.9,231.7z"/>
				</g>
			</g>
		</g>
		
			<linearGradient id="SVGID_40_" gradientUnits="userSpaceOnUse" x1="807.1893" y1="679.9244" x2="883.8377" y2="758.7018" gradientTransform="matrix(-0.9998 1.930000e-02 1.930000e-02 0.9998 1177.7931 -588.073)">
			<stop  offset="0" style="stop-color:#FFFFFF"/>
			<stop  offset="1" style="stop-color:#FFFFFF"/>
		</linearGradient>
		<path class="st42" d="M272.9,231.7c0,0-3.7-0.3-4.8-0.4c-2.9-0.3-4.8-1-4.8-1L397.7,90.8L272.9,231.7z"/>
		<path class="st43" d="M395.8,80.7c2-0.2,7.2-0.3,8.5,5.1c0.3,1.2,0.3,4.4,0.4,4.2c3.3-4.6,0-9.7-2.5-11.4
			c-2.8-1.9-5.2-3.5-13.3,2.3c-2,1.4-7.4,6.2-7.4,6.2S391.1,81.1,395.8,80.7z"/>
		<path class="st44" d="M388.2,87.1c-1-1.5,0.6-4.4,3.7-6.6s6.4-2.7,7.4-1.3s-0.6,4.4-3.7,6.6C392.6,88,389.3,88.5,388.2,87.1z"/>
		<polygon class="st45" points="389.4,60.1 387.1,14.7 371.2,31.6 385.6,18.6 		"/>
		<polygon class="st45" points="408.3,164.5 407.9,162.8 395.7,101.6 406.5,164.5 393.4,176.3 		"/>
		<polygon class="st45" points="318.7,84.9 304,103.3 318.9,85.6 366.1,88.5 		"/>
		<polygon class="st45" points="469.4,85.7 469,85.1 430.6,89.5 		"/>
		<g>
			<g>
				<g>
					<defs>
						<polygon id="SVGID_41_" points="1,1 2,1 1,2 						"/>
					</defs>
					<clipPath id="SVGID_42_">
						<use xlink:href="#SVGID_41_"  style="overflow:visible;"/>
					</clipPath>
				</g>
				<g>
					<defs>
						<polygon id="SVGID_43_" points="1,1 2,1 1,2 						"/>
					</defs>
					<defs>
						<polygon id="SVGID_44_" points="-1,-1 -2,-1 -1,-2 						"/>
					</defs>
					<clipPath id="SVGID_45_">
						<use xlink:href="#SVGID_43_"  style="overflow:visible;"/>
					</clipPath>
					<clipPath id="SVGID_46_" class="st46">
						<use xlink:href="#SVGID_44_"  style="overflow:visible;"/>
					</clipPath>
					
						<linearGradient id="SVGID_47_" gradientUnits="userSpaceOnUse" x1="878.0196" y1="646.8917" x2="855.3587" y2="680.0544" gradientTransform="matrix(-0.9998 1.930000e-02 1.930000e-02 0.9998 1177.7931 -588.073)">
						<stop  offset="0" style="stop-color:#000000"/>
						<stop  offset="0.1131" style="stop-color:#040404"/>
						<stop  offset="0.2371" style="stop-color:#121212"/>
						<stop  offset="0.3665" style="stop-color:#282828"/>
						<stop  offset="0.4996" style="stop-color:#464646"/>
						<stop  offset="0.6356" style="stop-color:#6E6E6E"/>
						<stop  offset="0.7739" style="stop-color:#9F9F9F"/>
						<stop  offset="0.9115" style="stop-color:#D7D7D7"/>
						<stop  offset="1" style="stop-color:#FFFFFF"/>
					</linearGradient>
					<polygon class="st47" points="380,91.1 332.5,130.9 288.7,121.8 319.8,86.7 					"/>
				</g>
			</g>
		</g>
		
			<linearGradient id="SVGID_48_" gradientUnits="userSpaceOnUse" x1="878.0196" y1="646.8917" x2="855.3587" y2="680.0544" gradientTransform="matrix(-0.9998 1.930000e-02 1.930000e-02 0.9998 1177.7931 -588.073)">
			<stop  offset="0" style="stop-color:#79731F"/>
			<stop  offset="0.3521" style="stop-color:#7C721B"/>
			<stop  offset="0.7375" style="stop-color:#85700D"/>
			<stop  offset="1" style="stop-color:#8E6E00"/>
		</linearGradient>
		<polygon class="st48" points="380,91.1 332.5,130.9 288.7,121.8 319.8,86.7 		"/>
		<path class="st49" d="M352.9,145.4l31.6-35.5c0,0-23.6,51.3-23.5,51C361.2,160.6,352.9,145.4,352.9,145.4z"/>
		<path class="st43" d="M260.7,187.1c-11.5,11.7-17,25-12.2,29.7c4.8,4.7,18-0.9,29.5-12.6c11.5-11.7,17-25,12.2-29.7
			C285.4,169.8,272.2,175.5,260.7,187.1z"/>
		<path class="st50" d="M265.2,232.4c7.7,2.1,15.1-4.1,15.1-4.1l17.8-19.1c0,0-15.5,14.3-23.4,17.5c-3.7,1.5-7.5,2-12.4,1.5
			c-4-0.4-8.1-0.6-8.1-0.6S260.6,231.1,265.2,232.4z"/>
		<g>
			<g>
				<g>
					<defs>
						<polygon id="SVGID_49_" points="1,1 2,1 1,2 						"/>
					</defs>
					<clipPath id="SVGID_50_">
						<use xlink:href="#SVGID_49_"  style="overflow:visible;"/>
					</clipPath>
				</g>
				<g>
					<defs>
						<polygon id="SVGID_51_" points="1,1 2,1 1,2 						"/>
					</defs>
					<defs>
						<polygon id="SVGID_52_" points="-1,-1 -2,-1 -1,-2 						"/>
					</defs>
					<clipPath id="SVGID_53_">
						<use xlink:href="#SVGID_51_"  style="overflow:visible;"/>
					</clipPath>
					<clipPath id="SVGID_54_" class="st51">
						<use xlink:href="#SVGID_52_"  style="overflow:visible;"/>
					</clipPath>
					
						<linearGradient id="SVGID_55_" gradientUnits="userSpaceOnUse" x1="962.2034" y1="814.0274" x2="944.6563" y2="797.4226" gradientTransform="matrix(-0.9998 1.930000e-02 1.930000e-02 0.9998 1177.7931 -588.073)">
						<stop  offset="3.712870e-03" style="stop-color:#FFFFFF"/>
						<stop  offset="1" style="stop-color:#000000"/>
					</linearGradient>
					<polygon class="st52" points="232.5,244.8 249.8,224.6 250.9,226.1 232.7,245 					"/>
				</g>
			</g>
		</g>
		
			<linearGradient id="SVGID_56_" gradientUnits="userSpaceOnUse" x1="962.2034" y1="814.0274" x2="944.6563" y2="797.4226" gradientTransform="matrix(-0.9998 1.930000e-02 1.930000e-02 0.9998 1177.7931 -588.073)">
			<stop  offset="3.712870e-03" style="stop-color:#FFFFFF"/>
			<stop  offset="1" style="stop-color:#FFFFFF"/>
		</linearGradient>
		<polygon class="st53" points="232.5,244.8 249.8,224.6 250.9,226.1 232.7,245 		"/>
	</g>
</g>
</svg>
